{"glyphs":{"0":{"ha":913,"x_min":0,"x_max":0,"o":"m 457 -14 b 79 486 219 -14 79 160 b 457 986 79 813 219 986 b 833 486 694 986 833 813 b 457 -14 833 160 694 -14 m 464 94 b 711 486 572 94 711 179 b 464 878 711 793 572 878 l 450 878 b 201 486 342 878 201 793 b 450 94 201 179 342 94 "},"1":{"ha":519,"x_min":0,"x_max":0,"o":"m 296 972 l 389 972 l 389 0 l 269 0 l 269 796 l 44 579 l 44 728 "},"2":{"ha":789,"x_min":0,"x_max":0,"o":"m 213 114 l 718 114 l 718 0 l 69 0 l 69 131 l 410 461 b 582 722 503 553 582 615 b 407 878 582 814 506 878 l 393 878 b 204 685 281 878 204 797 l 79 685 b 399 986 81 867 215 986 b 704 726 569 986 704 888 b 504 393 704 585 607 492 "},"3":{"ha":806,"x_min":0,"x_max":0,"o":"m 397 -14 b 65 251 208 -14 85 88 l 188 251 b 390 94 207 151 282 94 l 403 94 b 600 264 511 94 600 158 b 413 432 600 368 519 432 l 336 432 l 336 540 l 417 540 b 593 708 524 540 593 617 b 403 878 593 814 511 878 l 390 878 b 203 718 292 878 213 808 l 83 718 b 401 986 92 872 226 986 b 715 726 575 986 715 878 b 550 489 715 607 644 522 b 722 257 644 464 722 386 b 397 -14 722 93 579 -14 "},"4":{"ha":839,"x_min":0,"x_max":0,"o":"m 521 0 l 521 225 l 40 225 l 40 349 l 517 972 l 639 972 l 639 333 l 794 333 l 794 225 l 639 225 l 639 0 m 157 333 l 521 333 l 521 811 "},"5":{"ha":800,"x_min":0,"x_max":0,"o":"m 390 -14 b 51 254 214 -14 65 78 l 174 254 b 383 94 188 150 276 94 l 397 94 b 603 306 519 94 603 185 b 407 500 603 418 519 500 l 393 500 b 207 400 326 500 249 465 l 86 400 l 204 972 l 715 972 l 715 858 l 297 858 l 228 532 b 425 608 279 582 351 608 b 725 313 606 608 725 479 b 390 -14 725 121 579 -14 "},"6":{"ha":854,"x_min":0,"x_max":0,"o":"m 454 639 b 768 321 632 639 768 511 b 435 -14 768 118 625 -14 b 76 457 217 -14 76 160 b 479 986 76 768 256 986 b 788 739 644 986 758 896 l 665 739 b 488 876 643 821 578 876 l 472 876 b 185 472 315 876 200 713 b 454 639 233 581 342 639 m 443 96 b 646 313 554 96 646 185 b 443 531 646 440 557 531 l 429 531 b 219 314 315 531 219 438 b 429 96 219 190 315 96 "},"7":{"ha":739,"x_min":0,"x_max":0,"o":"m 33 972 l 697 972 l 697 847 b 328 28 451 696 328 444 l 328 0 l 206 0 l 206 40 b 572 858 206 446 350 724 l 33 858 "},"8":{"ha":794,"x_min":0,"x_max":0,"o":"m 397 -14 b 97 243 221 -14 97 90 b 261 474 97 358 171 440 b 78 713 165 499 78 594 b 397 986 78 875 208 986 b 717 713 586 986 717 875 b 533 474 717 594 629 499 b 697 243 624 440 697 358 b 397 -14 697 90 574 -14 m 404 533 b 594 706 513 533 594 606 b 404 878 594 807 514 878 l 390 878 b 200 706 281 878 200 807 b 390 533 200 606 282 533 m 404 94 b 576 256 506 94 576 161 b 404 422 576 349 506 422 l 390 422 b 218 256 289 422 218 349 b 390 94 218 161 289 94 "},"9":{"ha":853,"x_min":0,"x_max":0,"o":"m 419 986 b 776 515 638 986 776 813 b 375 -14 776 204 597 -14 b 67 233 210 -14 96 76 l 189 233 b 365 96 211 151 276 96 l 382 96 b 668 497 538 96 653 258 b 399 333 619 390 511 333 b 85 651 222 333 85 461 b 419 986 85 854 229 986 m 425 442 b 635 658 538 442 635 535 b 425 876 635 782 538 876 l 411 876 b 207 660 299 876 207 788 b 411 442 207 532 296 442 "}," ":{"ha":342,"x_min":0,"x_max":0,"o":""},"A":{"ha":957,"x_min":0,"x_max":0,"o":"m 815 0 l 714 256 l 239 256 l 138 0 l 10 0 l 400 972 l 558 972 l 946 0 m 283 369 l 669 369 l 476 857 "},"Á":{"ha":957,"x_min":0,"x_max":0,"o":"m 649 1236 l 525 1058 l 433 1058 l 501 1236 m 815 0 l 714 256 l 239 256 l 138 0 l 10 0 l 400 972 l 558 972 l 946 0 m 283 369 l 669 369 l 476 857 "},"Ă":{"ha":957,"x_min":0,"x_max":0,"o":"m 479 1044 b 268 1236 360 1044 268 1113 l 364 1236 b 479 1135 367 1164 421 1135 b 594 1236 538 1135 592 1164 l 690 1236 b 479 1044 690 1113 599 1044 m 815 0 l 714 256 l 239 256 l 138 0 l 10 0 l 400 972 l 558 972 l 946 0 m 283 369 l 669 369 l 476 857 "},"Â":{"ha":957,"x_min":0,"x_max":0,"o":"m 479 1156 l 354 1058 l 249 1058 l 403 1236 l 556 1236 l 710 1058 l 604 1058 m 815 0 l 714 256 l 239 256 l 138 0 l 10 0 l 400 972 l 558 972 l 946 0 m 283 369 l 669 369 l 476 857 "},"Ä":{"ha":957,"x_min":0,"x_max":0,"o":"m 413 1213 l 413 1083 l 283 1083 l 283 1213 m 675 1213 l 675 1083 l 546 1083 l 546 1213 m 815 0 l 714 256 l 239 256 l 138 0 l 10 0 l 400 972 l 558 972 l 946 0 m 283 369 l 669 369 l 476 857 "},"Ȧ":{"ha":957,"x_min":0,"x_max":0,"o":"m 544 1225 l 544 1083 l 413 1083 l 413 1225 m 815 0 l 714 256 l 239 256 l 138 0 l 10 0 l 400 972 l 558 972 l 946 0 m 283 369 l 669 369 l 476 857 "},"À":{"ha":957,"x_min":0,"x_max":0,"o":"m 533 1058 l 440 1058 l 317 1236 l 465 1236 m 815 0 l 714 256 l 239 256 l 138 0 l 10 0 l 400 972 l 558 972 l 946 0 m 283 369 l 669 369 l 476 857 "},"Ā":{"ha":957,"x_min":0,"x_max":0,"o":"m 679 1178 l 679 1083 l 278 1083 l 278 1178 m 815 0 l 714 256 l 239 256 l 138 0 l 10 0 l 400 972 l 558 972 l 946 0 m 283 369 l 669 369 l 476 857 "},"Ą":{"ha":957,"x_min":0,"x_max":0,"o":"m 825 -137 b 910 -194 825 -182 865 -194 l 936 -194 l 936 -281 l 885 -281 b 736 -162 790 -281 736 -232 b 851 0 736 -83 799 -29 l 815 0 l 714 256 l 239 256 l 138 0 l 10 0 l 400 972 l 558 972 l 946 0 b 825 -137 885 -36 825 -81 m 283 369 l 669 369 l 476 857 "},"Å":{"ha":957,"x_min":0,"x_max":0,"o":"m 479 1046 b 360 1164 417 1046 360 1096 b 479 1282 360 1232 417 1282 b 599 1164 542 1282 599 1232 b 479 1046 599 1096 542 1046 m 481 1211 b 433 1164 456 1211 433 1189 b 481 1117 433 1139 456 1117 b 525 1164 506 1117 525 1139 b 481 1211 525 1189 506 1211 m 815 0 l 714 256 l 239 256 l 138 0 l 10 0 l 400 972 l 558 972 l 946 0 m 283 369 l 669 369 l 476 857 "},"Ã":{"ha":957,"x_min":0,"x_max":0,"o":"m 375 1146 b 324 1065 343 1146 324 1121 l 236 1065 l 236 1100 b 367 1240 236 1179 289 1240 b 478 1200 404 1240 443 1224 l 513 1176 b 583 1146 538 1161 560 1146 b 633 1226 615 1146 633 1172 l 721 1226 l 721 1192 b 593 1051 721 1113 668 1051 b 475 1099 553 1051 517 1071 l 436 1124 b 375 1146 417 1138 399 1146 m 815 0 l 714 256 l 239 256 l 138 0 l 10 0 l 400 972 l 558 972 l 946 0 m 283 369 l 669 369 l 476 857 "},"Æ":{"ha":1382,"x_min":0,"x_max":0,"o":"m -6 0 l 561 972 l 1263 972 l 1263 858 l 757 858 l 800 557 l 1221 557 l 1221 443 l 813 443 l 858 114 l 1346 114 l 1346 0 l 751 0 l 715 256 l 279 256 l 132 0 m 346 369 l 700 369 l 632 867 "},"Ǽ":{"ha":1382,"x_min":0,"x_max":0,"o":"m 819 1058 l 888 1236 l 1036 1236 l 913 1058 m -6 0 l 561 972 l 1263 972 l 1263 858 l 757 858 l 800 557 l 1221 557 l 1221 443 l 813 443 l 858 114 l 1346 114 l 1346 0 l 751 0 l 715 256 l 279 256 l 132 0 m 346 369 l 700 369 l 632 867 "},"B":{"ha":918,"x_min":0,"x_max":0,"o":"m 128 0 l 128 972 l 546 972 b 821 717 699 972 821 876 b 663 493 821 606 751 524 b 842 265 761 476 842 399 b 558 0 842 103 713 0 m 253 550 l 529 550 b 696 704 628 550 696 607 b 529 858 696 801 628 858 l 253 858 m 253 114 l 533 114 b 717 275 642 114 717 171 b 533 436 717 379 642 436 l 253 436 "},"C":{"ha":972,"x_min":0,"x_max":0,"o":"m 524 -14 b 69 486 242 -14 69 201 b 524 986 69 771 242 986 b 907 669 733 986 894 861 l 782 669 b 531 872 768 786 676 872 l 517 872 b 194 486 308 872 194 700 b 517 100 194 272 308 100 l 531 100 b 782 303 676 100 768 186 l 907 303 b 524 -14 894 111 733 -14 "},"Ć":{"ha":972,"x_min":0,"x_max":0,"o":"m 475 1058 l 543 1236 l 692 1236 l 568 1058 m 524 -14 b 69 486 242 -14 69 201 b 524 986 69 771 242 986 b 907 669 733 986 894 861 l 782 669 b 531 872 768 786 676 872 l 517 872 b 194 486 308 872 194 700 b 517 100 194 272 308 100 l 531 100 b 782 303 676 100 768 186 l 907 303 b 524 -14 894 111 733 -14 "},"Č":{"ha":972,"x_min":0,"x_max":0,"o":"m 597 1058 l 444 1058 l 290 1236 l 396 1236 l 521 1139 l 646 1236 l 751 1236 m 531 100 b 782 303 676 100 768 186 l 907 303 b 524 -14 894 111 733 -14 b 69 486 242 -14 69 201 b 524 986 69 771 242 986 b 907 669 733 986 894 861 l 782 669 b 531 872 768 786 676 872 l 517 872 b 194 486 308 872 194 700 b 517 100 194 272 308 100 "},"Ç":{"ha":972,"x_min":0,"x_max":0,"o":"m 531 100 b 782 303 676 100 768 186 l 907 303 b 550 -14 894 119 747 -3 l 550 -62 b 668 -183 619 -65 668 -112 b 515 -322 668 -267 606 -322 l 429 -322 l 429 -236 l 517 -236 b 585 -182 563 -236 585 -215 b 519 -126 585 -146 560 -126 l 478 -126 l 478 -12 b 69 486 224 10 69 217 b 524 986 69 771 242 986 b 907 669 733 986 894 861 l 782 669 b 531 872 768 786 676 872 l 517 872 b 194 486 308 872 194 700 b 517 100 194 272 308 100 "},"Ĉ":{"ha":972,"x_min":0,"x_max":0,"o":"m 521 1156 l 396 1058 l 290 1058 l 444 1236 l 597 1236 l 751 1058 l 646 1058 m 531 100 b 782 303 676 100 768 186 l 907 303 b 524 -14 894 111 733 -14 b 69 486 242 -14 69 201 b 524 986 69 771 242 986 b 907 669 733 986 894 861 l 782 669 b 531 872 768 786 676 872 l 517 872 b 194 486 308 872 194 700 b 517 100 194 272 308 100 "},"Ċ":{"ha":972,"x_min":0,"x_max":0,"o":"m 454 1083 l 454 1225 l 586 1225 l 586 1083 m 524 -14 b 69 486 242 -14 69 201 b 524 986 69 771 242 986 b 907 669 733 986 894 861 l 782 669 b 531 872 768 786 676 872 l 517 872 b 194 486 308 872 194 700 b 517 100 194 272 308 100 l 531 100 b 782 303 676 100 768 186 l 907 303 b 524 -14 894 111 733 -14 "},"D":{"ha":989,"x_min":0,"x_max":0,"o":"m 128 0 l 128 972 l 471 972 b 918 485 739 972 918 790 b 471 0 918 179 739 0 m 253 114 l 457 114 b 793 486 671 114 793 244 b 457 858 793 728 671 858 l 253 858 "},"Ð":{"ha":1019,"x_min":0,"x_max":0,"o":"m 500 972 b 947 485 769 972 947 790 b 500 0 947 179 769 0 l 158 0 l 158 431 l 19 431 l 19 542 l 158 542 l 158 972 m 486 114 b 822 486 701 114 822 244 b 486 858 822 728 701 858 l 283 858 l 283 542 l 481 542 l 481 431 l 283 431 l 283 114 "},"Ď":{"ha":989,"x_min":0,"x_max":0,"o":"m 553 1058 l 400 1058 l 246 1236 l 351 1236 l 476 1139 l 601 1236 l 707 1236 m 471 972 b 918 485 739 972 918 790 b 471 0 918 179 739 0 l 128 0 l 128 972 m 457 114 b 793 486 671 114 793 244 b 457 858 793 728 671 858 l 253 858 l 253 114 "},"Đ":{"ha":1019,"x_min":0,"x_max":0,"o":"m 500 972 b 947 485 769 972 947 790 b 500 0 947 179 769 0 l 158 0 l 158 431 l 19 431 l 19 542 l 158 542 l 158 972 m 486 114 b 822 486 701 114 822 244 b 486 858 822 728 701 858 l 283 858 l 283 542 l 481 542 l 481 431 l 283 431 l 283 114 "},"E":{"ha":901,"x_min":0,"x_max":0,"o":"m 128 0 l 128 972 l 826 972 l 826 858 l 253 858 l 253 557 l 743 557 l 743 443 l 253 443 l 253 114 l 840 114 l 840 0 "},"É":{"ha":901,"x_min":0,"x_max":0,"o":"m 435 1058 l 503 1236 l 651 1236 l 528 1058 m 128 0 l 128 972 l 826 972 l 826 858 l 253 858 l 253 557 l 743 557 l 743 443 l 253 443 l 253 114 l 840 114 l 840 0 "},"Ĕ":{"ha":901,"x_min":0,"x_max":0,"o":"m 482 1044 b 271 1236 361 1044 271 1113 l 365 1236 b 482 1135 369 1164 424 1135 b 597 1236 540 1135 594 1164 l 692 1236 b 482 1044 692 1113 601 1044 m 128 0 l 128 972 l 826 972 l 826 858 l 253 858 l 253 557 l 743 557 l 743 443 l 253 443 l 253 114 l 840 114 l 840 0 "},"Ě":{"ha":901,"x_min":0,"x_max":0,"o":"m 558 1058 l 406 1058 l 251 1236 l 357 1236 l 482 1139 l 607 1236 l 713 1236 m 253 114 l 840 114 l 840 0 l 128 0 l 128 972 l 826 972 l 826 858 l 253 858 l 253 557 l 743 557 l 743 443 l 253 443 "},"Ê":{"ha":901,"x_min":0,"x_max":0,"o":"m 482 1156 l 357 1058 l 251 1058 l 406 1236 l 558 1236 l 713 1058 l 607 1058 m 253 114 l 840 114 l 840 0 l 128 0 l 128 972 l 826 972 l 826 858 l 253 858 l 253 557 l 743 557 l 743 443 l 253 443 "},"Ë":{"ha":901,"x_min":0,"x_max":0,"o":"m 286 1083 l 286 1213 l 415 1213 l 415 1083 m 547 1083 l 547 1213 l 678 1213 l 678 1083 m 128 0 l 128 972 l 826 972 l 826 858 l 253 858 l 253 557 l 743 557 l 743 443 l 253 443 l 253 114 l 840 114 l 840 0 "},"Ė":{"ha":901,"x_min":0,"x_max":0,"o":"m 415 1083 l 415 1225 l 547 1225 l 547 1083 m 128 0 l 128 972 l 826 972 l 826 858 l 253 858 l 253 557 l 743 557 l 743 443 l 253 443 l 253 114 l 840 114 l 840 0 "},"È":{"ha":901,"x_min":0,"x_max":0,"o":"m 443 1058 l 319 1236 l 467 1236 l 535 1058 m 128 0 l 128 972 l 826 972 l 826 858 l 253 858 l 253 557 l 743 557 l 743 443 l 253 443 l 253 114 l 840 114 l 840 0 "},"Ē":{"ha":901,"x_min":0,"x_max":0,"o":"m 281 1083 l 281 1178 l 682 1178 l 682 1083 m 128 0 l 128 972 l 826 972 l 826 858 l 253 858 l 253 557 l 743 557 l 743 443 l 253 443 l 253 114 l 840 114 l 840 0 "},"Ę":{"ha":901,"x_min":0,"x_max":0,"o":"m 840 0 b 721 -137 781 -36 721 -81 b 804 -194 721 -182 761 -194 l 831 -194 l 831 -281 l 781 -281 b 632 -162 686 -281 632 -232 b 746 0 632 -83 694 -29 l 128 0 l 128 972 l 826 972 l 826 858 l 253 858 l 253 557 l 743 557 l 743 443 l 253 443 l 253 114 l 840 114 "},"F":{"ha":835,"x_min":0,"x_max":0,"o":"m 128 0 l 128 972 l 797 972 l 797 858 l 253 858 l 253 529 l 728 529 l 728 415 l 253 415 l 253 0 "},"G":{"ha":1019,"x_min":0,"x_max":0,"o":"m 526 -14 b 69 486 246 -14 69 194 b 536 986 69 778 246 986 b 928 656 776 986 913 846 l 803 656 b 543 872 786 793 692 872 l 529 872 b 194 486 331 872 194 732 b 531 100 194 240 331 100 l 544 100 b 822 344 710 100 822 203 l 822 378 l 538 378 l 538 490 l 826 490 b 935 382 897 490 935 453 l 935 0 l 822 0 l 822 115 b 526 -14 783 58 682 -14 "},"Ğ":{"ha":1019,"x_min":0,"x_max":0,"o":"m 528 1044 b 318 1236 408 1044 318 1113 l 413 1236 b 528 1135 415 1164 469 1135 b 644 1236 586 1135 640 1164 l 739 1236 b 528 1044 739 1113 649 1044 m 526 -14 b 69 486 246 -14 69 194 b 536 986 69 778 246 986 b 928 656 776 986 913 846 l 803 656 b 543 872 786 793 692 872 l 529 872 b 194 486 331 872 194 732 b 531 100 194 240 331 100 l 544 100 b 822 344 710 100 822 203 l 822 378 l 538 378 l 538 490 l 826 490 b 935 382 897 490 935 453 l 935 0 l 822 0 l 822 115 b 526 -14 783 58 682 -14 "},"Ĝ":{"ha":1019,"x_min":0,"x_max":0,"o":"m 528 1156 l 403 1058 l 297 1058 l 451 1236 l 604 1236 l 758 1058 l 653 1058 m 826 490 b 935 382 897 490 935 453 l 935 0 l 822 0 l 822 115 b 526 -14 783 58 682 -14 b 69 486 246 -14 69 194 b 536 986 69 778 246 986 b 928 656 776 986 913 846 l 803 656 b 543 872 786 793 692 872 l 529 872 b 194 486 331 872 194 732 b 531 100 194 240 331 100 l 544 100 b 822 344 710 100 822 203 l 822 378 l 538 378 l 538 490 "},"Ģ":{"ha":1019,"x_min":0,"x_max":0,"o":"m 526 -14 b 69 486 246 -14 69 194 b 536 986 69 778 246 986 b 928 656 776 986 913 846 l 803 656 b 543 872 786 793 692 872 l 529 872 b 194 486 331 872 194 732 b 531 100 194 240 331 100 l 544 100 b 822 344 710 100 822 203 l 822 378 l 538 378 l 538 490 l 826 490 b 935 382 897 490 935 453 l 935 0 l 822 0 l 822 115 b 526 -14 783 58 682 -14 m 440 -379 l 440 -317 l 451 -317 b 524 -261 500 -317 524 -299 l 524 -253 l 468 -253 l 468 -125 l 586 -125 l 586 -261 b 458 -379 586 -329 539 -379 "},"Ġ":{"ha":1019,"x_min":0,"x_max":0,"o":"m 461 1083 l 461 1225 l 593 1225 l 593 1083 m 526 -14 b 69 486 246 -14 69 194 b 536 986 69 778 246 986 b 928 656 776 986 913 846 l 803 656 b 543 872 786 793 692 872 l 529 872 b 194 486 331 872 194 732 b 531 100 194 240 331 100 l 544 100 b 822 344 710 100 822 203 l 822 378 l 538 378 l 538 490 l 826 490 b 935 382 897 490 935 453 l 935 0 l 822 0 l 822 115 b 526 -14 783 58 682 -14 "},"H":{"ha":1018,"x_min":0,"x_max":0,"o":"m 128 0 l 128 972 l 253 972 l 253 543 l 765 543 l 765 972 l 890 972 l 890 0 l 765 0 l 765 429 l 253 429 l 253 0 "},"Ħ":{"ha":1040,"x_min":0,"x_max":0,"o":"m 999 815 l 999 713 l 901 713 l 901 0 l 776 0 l 776 429 l 264 429 l 264 0 l 139 0 l 139 713 l 42 713 l 42 815 l 139 815 l 139 972 l 264 972 l 264 815 l 776 815 l 776 972 l 901 972 l 901 815 m 776 543 l 776 713 l 264 713 l 264 543 "},"Ĥ":{"ha":1018,"x_min":0,"x_max":0,"o":"m 510 1156 l 385 1058 l 279 1058 l 433 1236 l 586 1236 l 740 1058 l 635 1058 m 765 972 l 890 972 l 890 0 l 765 0 l 765 429 l 253 429 l 253 0 l 128 0 l 128 972 l 253 972 l 253 543 l 765 543 "},"I":{"ha":382,"x_min":0,"x_max":0,"o":"m 128 0 l 128 972 l 253 972 l 253 0 "},"Ĳ":{"ha":783,"x_min":0,"x_max":0,"o":"m 107 0 l 107 118 l 411 118 b 536 254 500 118 536 161 l 536 972 l 661 972 l 661 247 b 425 0 661 79 583 0 m 107 267 l 107 972 l 232 972 l 232 267 "},"Í":{"ha":382,"x_min":0,"x_max":0,"o":"m 144 1058 l 213 1236 l 361 1236 l 238 1058 m 128 0 l 128 972 l 253 972 l 253 0 "},"Ĭ":{"ha":382,"x_min":0,"x_max":0,"o":"m 190 1044 b -19 1236 71 1044 -19 1113 l 75 1236 b 190 1135 78 1164 132 1135 b 307 1236 249 1135 303 1164 l 401 1236 b 190 1044 401 1113 311 1044 m 128 0 l 128 972 l 253 972 l 253 0 "},"Î":{"ha":382,"x_min":0,"x_max":0,"o":"m 267 1236 l 421 1058 l 315 1058 l 190 1156 l 65 1058 l -40 1058 l 114 1236 m 128 0 l 128 972 l 253 972 l 253 0 "},"Ï":{"ha":382,"x_min":0,"x_max":0,"o":"m -6 1083 l -6 1213 l 125 1213 l 125 1083 m 257 1083 l 257 1213 l 386 1213 l 386 1083 m 128 0 l 128 972 l 253 972 l 253 0 "},"İ":{"ha":382,"x_min":0,"x_max":0,"o":"m 124 1083 l 124 1225 l 256 1225 l 256 1083 m 128 0 l 128 972 l 253 972 l 253 0 "},"Ì":{"ha":382,"x_min":0,"x_max":0,"o":"m 151 1058 l 28 1236 l 176 1236 l 244 1058 m 128 0 l 128 972 l 253 972 l 253 0 "},"Ī":{"ha":382,"x_min":0,"x_max":0,"o":"m -10 1083 l -10 1178 l 392 1178 l 392 1083 m 128 0 l 128 972 l 253 972 l 253 0 "},"Į":{"ha":382,"x_min":0,"x_max":0,"o":"m 135 -137 b 218 -194 135 -182 175 -194 l 244 -194 l 244 -281 l 194 -281 b 44 -162 100 -281 44 -232 b 160 0 44 -83 107 -29 l 128 0 l 128 972 l 253 972 l 253 0 l 254 0 b 135 -137 194 -36 135 -81 "},"Ĩ":{"ha":382,"x_min":0,"x_max":0,"o":"m 304 1051 b 186 1099 264 1051 229 1071 l 149 1124 b 86 1146 128 1138 110 1146 b 36 1065 54 1146 36 1121 l -53 1065 l -53 1100 b 78 1240 -53 1179 0 1240 b 189 1200 117 1240 154 1224 l 225 1176 b 294 1146 249 1161 271 1146 b 344 1226 326 1146 344 1172 l 432 1226 l 432 1192 b 304 1051 432 1113 379 1051 m 128 0 l 128 972 l 253 972 l 253 0 "},"J":{"ha":557,"x_min":0,"x_max":0,"o":"m 38 0 l 38 118 l 185 118 b 310 254 274 118 310 161 l 310 972 l 435 972 l 435 247 b 199 0 435 79 357 0 "},"Ĵ":{"ha":557,"x_min":0,"x_max":0,"o":"m 447 1236 l 601 1058 l 496 1058 l 371 1156 l 246 1058 l 140 1058 l 294 1236 m 310 972 l 435 972 l 435 247 b 199 0 435 79 357 0 l 38 0 l 38 118 l 185 118 b 310 254 274 118 310 161 "},"K":{"ha":936,"x_min":0,"x_max":0,"o":"m 768 0 l 436 485 l 253 300 l 253 0 l 128 0 l 128 972 l 253 972 l 253 471 l 754 972 l 918 972 l 526 576 l 925 0 "},"Ķ":{"ha":936,"x_min":0,"x_max":0,"o":"m 526 576 l 925 0 l 768 0 l 436 485 l 253 300 l 253 0 l 128 0 l 128 972 l 253 972 l 253 471 l 754 972 l 918 972 m 413 -253 l 413 -125 l 531 -125 l 531 -261 b 403 -379 531 -329 482 -379 l 385 -379 l 385 -317 l 396 -317 b 468 -261 444 -317 468 -299 l 468 -253 "},"L":{"ha":850,"x_min":0,"x_max":0,"o":"m 128 0 l 128 972 l 253 972 l 253 114 l 826 114 l 826 0 "},"Ĺ":{"ha":850,"x_min":0,"x_max":0,"o":"m 146 1058 l 214 1236 l 363 1236 l 239 1058 m 128 0 l 128 972 l 253 972 l 253 114 l 826 114 l 826 0 "},"Ľ":{"ha":850,"x_min":0,"x_max":0,"o":"m 128 0 l 128 972 l 253 972 l 253 114 l 826 114 l 826 0 m 411 718 l 411 781 l 424 781 b 494 836 471 781 494 799 l 494 844 l 439 844 l 439 972 l 557 972 l 557 836 b 431 718 557 768 510 718 "},"Ļ":{"ha":850,"x_min":0,"x_max":0,"o":"m 128 0 l 128 972 l 253 972 l 253 114 l 826 114 l 826 0 m 390 -379 l 390 -317 l 401 -317 b 474 -261 450 -317 474 -299 l 474 -253 l 418 -253 l 418 -125 l 536 -125 l 536 -261 b 408 -379 536 -329 489 -379 "},"Ŀ":{"ha":851,"x_min":0,"x_max":0,"o":"m 128 0 l 128 972 l 253 972 l 253 114 l 826 114 l 826 0 m 540 431 l 540 572 l 682 572 l 682 431 "},"Ł":{"ha":893,"x_min":0,"x_max":0,"o":"m 297 114 l 871 114 l 871 0 l 172 0 l 172 368 l 40 293 l 40 418 l 172 493 l 172 972 l 297 972 l 297 564 l 558 711 l 558 586 l 297 439 "},"M":{"ha":1282,"x_min":0,"x_max":0,"o":"m 947 972 l 1154 972 l 1154 0 l 1029 0 l 1029 867 l 725 0 l 563 0 l 253 864 l 253 0 l 128 0 l 128 972 l 338 972 l 644 111 "},"N":{"ha":1032,"x_min":0,"x_max":0,"o":"m 779 972 l 904 972 l 904 0 l 735 0 l 253 817 l 253 0 l 128 0 l 128 972 l 300 972 l 779 160 "},"Ń":{"ha":1032,"x_min":0,"x_max":0,"o":"m 692 1236 l 568 1058 l 475 1058 l 543 1236 m 779 972 l 904 972 l 904 0 l 735 0 l 253 817 l 253 0 l 128 0 l 128 972 l 300 972 l 779 160 "},"Ň":{"ha":1032,"x_min":0,"x_max":0,"o":"m 597 1058 l 444 1058 l 290 1236 l 396 1236 l 521 1139 l 646 1236 l 751 1236 m 779 972 l 904 972 l 904 0 l 735 0 l 253 817 l 253 0 l 128 0 l 128 972 l 300 972 l 779 160 "},"Ņ":{"ha":1032,"x_min":0,"x_max":0,"o":"m 779 972 l 904 972 l 904 0 l 735 0 l 253 817 l 253 0 l 128 0 l 128 972 l 300 972 l 779 160 m 457 -253 l 457 -125 l 575 -125 l 575 -261 b 447 -379 575 -329 528 -379 l 429 -379 l 429 -317 l 440 -317 b 513 -261 489 -317 513 -299 l 513 -253 "},"Ŋ":{"ha":1032,"x_min":0,"x_max":0,"o":"m 579 -257 l 579 -143 l 707 -143 b 779 -71 760 -143 779 -119 l 779 0 l 253 779 l 253 0 l 128 0 l 128 972 l 268 972 l 779 217 l 779 972 l 904 972 l 904 -87 b 735 -257 904 -190 842 -257 "},"Ñ":{"ha":1032,"x_min":0,"x_max":0,"o":"m 417 1146 b 367 1065 385 1146 367 1121 l 278 1065 l 278 1100 b 408 1240 278 1179 331 1240 b 519 1200 447 1240 485 1224 l 556 1176 b 625 1146 579 1161 601 1146 b 675 1226 657 1146 675 1172 l 763 1226 l 763 1192 b 635 1051 763 1113 710 1051 b 517 1099 594 1051 560 1071 l 479 1124 b 417 1146 458 1138 440 1146 m 779 972 l 904 972 l 904 0 l 735 0 l 253 817 l 253 0 l 128 0 l 128 972 l 300 972 l 779 160 "},"O":{"ha":1049,"x_min":0,"x_max":0,"o":"m 524 -14 b 71 486 263 -14 71 174 b 524 986 71 799 263 986 b 978 486 785 986 978 799 b 524 -14 978 174 785 -14 m 531 100 b 853 486 717 100 853 244 b 531 872 853 728 717 872 l 517 872 b 196 486 331 872 196 728 b 517 100 196 244 331 100 "},"Ó":{"ha":1049,"x_min":0,"x_max":0,"o":"m 478 1058 l 546 1236 l 694 1236 l 571 1058 m 524 -14 b 71 486 263 -14 71 174 b 524 986 71 799 263 986 b 978 486 785 986 978 799 b 524 -14 978 174 785 -14 m 531 100 b 853 486 717 100 853 244 b 531 872 853 728 717 872 l 517 872 b 196 486 331 872 196 728 b 517 100 196 244 331 100 "},"Ŏ":{"ha":1049,"x_min":0,"x_max":0,"o":"m 524 1044 b 314 1236 404 1044 314 1113 l 408 1236 b 524 1135 411 1164 465 1135 b 640 1236 582 1135 636 1164 l 735 1236 b 524 1044 735 1113 644 1044 m 524 -14 b 71 486 263 -14 71 174 b 524 986 71 799 263 986 b 978 486 785 986 978 799 b 524 -14 978 174 785 -14 m 531 100 b 853 486 717 100 853 244 b 531 872 853 728 717 872 l 517 872 b 196 486 331 872 196 728 b 517 100 196 244 331 100 "},"Ô":{"ha":1049,"x_min":0,"x_max":0,"o":"m 524 1156 l 399 1058 l 293 1058 l 447 1236 l 600 1236 l 754 1058 l 649 1058 m 524 986 b 978 486 785 986 978 799 b 524 -14 978 174 785 -14 b 71 486 263 -14 71 174 b 524 986 71 799 263 986 m 531 100 b 853 486 717 100 853 244 b 531 872 853 728 717 872 l 517 872 b 196 486 331 872 196 728 b 517 100 196 244 331 100 "},"Ö":{"ha":1049,"x_min":0,"x_max":0,"o":"m 328 1083 l 328 1213 l 458 1213 l 458 1083 m 590 1083 l 590 1213 l 719 1213 l 719 1083 m 524 -14 b 71 486 263 -14 71 174 b 524 986 71 799 263 986 b 978 486 785 986 978 799 b 524 -14 978 174 785 -14 m 531 100 b 853 486 717 100 853 244 b 531 872 853 728 717 872 l 517 872 b 196 486 331 872 196 728 b 517 100 196 244 331 100 "},"Ò":{"ha":1049,"x_min":0,"x_max":0,"o":"m 485 1058 l 361 1236 l 510 1236 l 578 1058 m 524 -14 b 71 486 263 -14 71 174 b 524 986 71 799 263 986 b 978 486 785 986 978 799 b 524 -14 978 174 785 -14 m 531 100 b 853 486 717 100 853 244 b 531 872 853 728 717 872 l 517 872 b 196 486 331 872 196 728 b 517 100 196 244 331 100 "},"Ő":{"ha":1049,"x_min":0,"x_max":0,"o":"m 369 1058 l 438 1236 l 585 1236 l 461 1058 m 597 1058 l 665 1236 l 813 1236 l 689 1058 m 524 -14 b 71 486 263 -14 71 174 b 524 986 71 799 263 986 b 978 486 785 986 978 799 b 524 -14 978 174 785 -14 m 531 100 b 853 486 717 100 853 244 b 531 872 853 728 717 872 l 517 872 b 196 486 331 872 196 728 b 517 100 196 244 331 100 "},"Ō":{"ha":1049,"x_min":0,"x_max":0,"o":"m 324 1083 l 324 1178 l 725 1178 l 725 1083 m 524 -14 b 71 486 263 -14 71 174 b 524 986 71 799 263 986 b 978 486 785 986 978 799 b 524 -14 978 174 785 -14 m 531 100 b 853 486 717 100 853 244 b 531 872 853 728 717 872 l 517 872 b 196 486 331 872 196 728 b 517 100 196 244 331 100 "},"Ø":{"ha":1057,"x_min":0,"x_max":0,"o":"m 874 831 b 982 486 942 746 982 629 b 529 -14 982 174 790 -14 b 268 64 429 -14 340 14 l 181 -46 l 92 25 l 185 142 b 75 486 115 226 75 343 b 529 986 75 799 268 986 b 790 908 628 986 718 960 l 876 1018 l 965 947 m 200 486 b 263 242 200 388 222 304 l 717 815 b 536 872 667 853 604 872 l 522 872 b 200 486 336 872 200 728 m 536 100 b 857 486 722 100 857 244 b 794 732 857 585 835 668 l 340 157 b 522 100 392 119 453 100 "},"Ǿ":{"ha":1057,"x_min":0,"x_max":0,"o":"m 701 1236 l 578 1058 l 485 1058 l 553 1236 m 874 831 b 982 486 942 746 982 629 b 529 -14 982 174 790 -14 b 268 64 429 -14 340 14 l 181 -46 l 92 25 l 185 142 b 75 486 115 226 75 343 b 529 986 75 799 268 986 b 790 908 628 986 718 960 l 876 1018 l 965 947 m 200 486 b 263 242 200 388 222 304 l 717 815 b 536 872 667 853 604 872 l 522 872 b 200 486 336 872 200 728 m 536 100 b 857 486 722 100 857 244 b 794 732 857 585 835 668 l 340 157 b 522 100 392 119 453 100 "},"Õ":{"ha":1049,"x_min":0,"x_max":0,"o":"m 638 1051 b 519 1099 597 1051 563 1071 l 482 1124 b 419 1146 461 1138 443 1146 b 369 1065 388 1146 369 1121 l 281 1065 l 281 1100 b 411 1240 281 1179 333 1240 b 522 1200 450 1240 488 1224 l 558 1176 b 628 1146 582 1161 604 1146 b 678 1226 660 1146 678 1172 l 765 1226 l 765 1192 b 638 1051 765 1113 713 1051 m 524 -14 b 71 486 263 -14 71 174 b 524 986 71 799 263 986 b 978 486 785 986 978 799 b 524 -14 978 174 785 -14 m 531 100 b 853 486 717 100 853 244 b 531 872 853 728 717 872 l 517 872 b 196 486 331 872 196 728 b 517 100 196 244 331 100 "},"Œ":{"ha":1625,"x_min":0,"x_max":0,"o":"m 524 -14 b 71 486 263 -14 71 174 b 524 986 71 799 263 986 b 853 849 657 986 772 938 l 853 972 l 1551 972 l 1551 858 l 978 858 l 978 557 l 1468 557 l 1468 443 l 978 443 l 978 114 l 1565 114 l 1565 0 l 853 0 l 853 124 b 524 -14 772 35 657 -14 m 531 100 b 853 486 717 100 853 244 b 531 872 853 728 717 872 l 517 872 b 196 486 331 872 196 728 b 517 100 196 244 331 100 "},"P":{"ha":890,"x_min":0,"x_max":0,"o":"m 128 0 l 128 972 l 531 972 b 842 681 707 972 842 868 b 531 389 842 493 707 389 l 253 389 l 253 0 m 253 503 l 510 503 b 717 681 639 503 717 563 b 510 858 717 799 639 858 l 253 858 "},"Þ":{"ha":907,"x_min":0,"x_max":0,"o":"m 128 0 l 128 972 l 253 972 l 253 775 l 536 775 b 842 486 714 775 842 671 b 536 197 842 301 714 197 l 253 197 l 253 0 m 253 311 l 513 311 b 717 486 643 311 717 368 b 513 661 717 606 643 661 l 253 661 "},"Q":{"ha":1049,"x_min":0,"x_max":0,"o":"m 586 -83 b 646 -143 586 -128 603 -143 l 858 -143 l 858 -257 l 597 -257 b 465 -129 514 -257 465 -212 l 465 -11 b 71 486 235 15 71 197 b 524 986 71 799 263 986 b 978 486 785 986 978 799 b 586 -10 978 199 815 18 m 196 486 b 517 100 196 244 331 100 l 531 100 b 853 486 717 100 853 244 b 531 872 853 728 717 872 l 517 872 b 196 486 331 872 196 728 "},"R":{"ha":942,"x_min":0,"x_max":0,"o":"m 128 0 l 128 972 l 539 972 b 842 710 715 972 842 861 b 686 468 842 589 775 499 b 828 333 792 468 828 431 l 828 0 l 703 0 l 703 310 b 617 396 703 375 682 396 l 253 396 l 253 0 m 253 510 l 519 510 b 717 692 636 510 717 586 b 519 858 717 799 643 858 l 253 858 "},"Ŕ":{"ha":942,"x_min":0,"x_max":0,"o":"m 406 1058 l 474 1236 l 622 1236 l 499 1058 m 128 0 l 128 972 l 539 972 b 842 710 715 972 842 861 b 686 468 842 589 775 499 b 828 333 792 468 828 431 l 828 0 l 703 0 l 703 310 b 617 396 703 375 682 396 l 253 396 l 253 0 m 253 510 l 519 510 b 717 692 636 510 717 586 b 519 858 717 799 643 858 l 253 858 "},"Ř":{"ha":942,"x_min":0,"x_max":0,"o":"m 529 1058 l 376 1058 l 222 1236 l 328 1236 l 453 1139 l 578 1236 l 683 1236 m 686 468 b 828 333 792 468 828 431 l 828 0 l 703 0 l 703 310 b 617 396 703 375 682 396 l 253 396 l 253 0 l 128 0 l 128 972 l 539 972 b 842 710 715 972 842 861 b 686 468 842 589 775 499 m 519 510 b 717 692 636 510 717 586 b 519 858 717 799 643 858 l 253 858 l 253 510 "},"Ŗ":{"ha":942,"x_min":0,"x_max":0,"o":"m 128 0 l 128 972 l 539 972 b 842 710 715 972 842 861 b 686 468 842 589 775 499 b 828 333 792 468 828 431 l 828 0 l 703 0 l 703 310 b 617 396 703 375 682 396 l 253 396 l 253 0 m 253 510 l 519 510 b 717 692 636 510 717 586 b 519 858 717 799 643 858 l 253 858 m 399 -379 l 399 -317 l 410 -317 b 482 -261 458 -317 482 -299 l 482 -253 l 426 -253 l 426 -125 l 544 -125 l 544 -261 b 417 -379 544 -329 497 -379 "},"S":{"ha":865,"x_min":0,"x_max":0,"o":"m 432 -14 b 53 310 201 -14 57 99 l 178 310 b 436 100 178 174 285 100 l 450 100 b 660 257 586 100 660 169 b 499 410 660 340 607 388 l 343 442 b 101 708 190 474 101 558 b 444 986 101 861 235 986 b 800 683 657 986 793 869 l 675 683 b 451 872 667 800 575 872 l 438 872 b 226 710 311 872 226 803 b 369 567 226 631 282 585 l 525 536 b 785 263 690 503 785 417 b 432 -14 785 92 646 -14 "},"Ś":{"ha":865,"x_min":0,"x_max":0,"o":"m 392 1058 l 460 1236 l 607 1236 l 483 1058 m 432 -14 b 53 310 201 -14 57 99 l 178 310 b 436 100 178 174 285 100 l 450 100 b 660 257 586 100 660 169 b 499 410 660 340 607 388 l 343 442 b 101 708 190 474 101 558 b 444 986 101 861 235 986 b 800 683 657 986 793 869 l 675 683 b 451 872 667 800 575 872 l 438 872 b 226 710 311 872 226 803 b 369 567 226 631 282 585 l 525 536 b 785 263 690 503 785 417 b 432 -14 785 92 646 -14 "},"Š":{"ha":865,"x_min":0,"x_max":0,"o":"m 514 1058 l 361 1058 l 207 1236 l 313 1236 l 438 1139 l 563 1236 l 668 1236 m 525 536 b 785 263 690 503 785 417 b 432 -14 785 92 646 -14 b 53 310 201 -14 57 99 l 178 310 b 436 100 178 174 285 100 l 450 100 b 660 257 586 100 660 169 b 499 410 660 340 607 388 l 343 442 b 101 708 190 474 101 558 b 444 986 101 861 235 986 b 800 683 657 986 793 869 l 675 683 b 451 872 667 800 575 872 l 438 872 b 226 710 311 872 226 803 b 369 567 226 631 282 585 "},"Ş":{"ha":865,"x_min":0,"x_max":0,"o":"m 525 536 b 785 263 690 503 785 417 b 465 -12 785 101 660 -3 l 465 -62 b 583 -183 533 -65 583 -112 b 431 -322 583 -267 519 -322 l 344 -322 l 344 -236 l 431 -236 b 500 -182 476 -236 500 -215 b 435 -126 500 -146 474 -126 l 393 -126 l 393 -12 b 53 310 185 0 57 111 l 178 310 b 436 100 178 174 285 100 l 450 100 b 660 257 586 100 660 169 b 499 410 660 340 607 388 l 343 442 b 101 708 190 474 101 558 b 444 986 101 861 235 986 b 800 683 657 986 793 869 l 675 683 b 451 872 667 800 575 872 l 438 872 b 226 710 311 872 226 803 b 369 567 226 631 282 585 "},"Ŝ":{"ha":865,"x_min":0,"x_max":0,"o":"m 438 1156 l 313 1058 l 207 1058 l 361 1236 l 514 1236 l 668 1058 l 563 1058 m 525 536 b 785 263 690 503 785 417 b 432 -14 785 92 646 -14 b 53 310 201 -14 57 99 l 178 310 b 436 100 178 174 285 100 l 450 100 b 660 257 586 100 660 169 b 499 410 660 340 607 388 l 343 442 b 101 708 190 474 101 558 b 444 986 101 861 235 986 b 800 683 657 986 793 869 l 675 683 b 451 872 667 800 575 872 l 438 872 b 226 710 311 872 226 803 b 369 567 226 631 282 585 "},"Ș":{"ha":865,"x_min":0,"x_max":0,"o":"m 432 -14 b 53 310 201 -14 57 99 l 178 310 b 436 100 178 174 285 100 l 450 100 b 660 257 586 100 660 169 b 499 410 660 340 607 388 l 343 442 b 101 708 190 474 101 558 b 444 986 101 861 235 986 b 800 683 657 986 793 869 l 675 683 b 451 872 667 800 575 872 l 438 872 b 226 710 311 872 226 803 b 369 567 226 631 282 585 l 525 536 b 785 263 690 503 785 417 b 432 -14 785 92 646 -14 m 342 -379 l 342 -317 l 354 -317 b 425 -261 401 -317 425 -299 l 425 -253 l 369 -253 l 369 -125 l 488 -125 l 488 -261 b 361 -379 488 -329 440 -379 "},"ẞ":{"ha":900,"x_min":0,"x_max":0,"o":"m 128 0 l 128 972 l 501 972 b 771 721 650 972 771 879 b 633 508 771 622 715 549 b 835 261 756 481 835 386 b 546 0 835 97 706 0 l 392 0 l 392 114 l 525 114 b 710 275 632 114 710 168 b 526 436 710 379 632 436 l 392 436 l 392 550 l 478 550 b 646 710 574 550 646 610 b 485 858 646 807 575 858 l 253 858 l 253 0 "},"T":{"ha":869,"x_min":0,"x_max":0,"o":"m 372 0 l 372 858 l 22 858 l 22 972 l 847 972 l 847 858 l 497 858 l 497 0 "},"Ŧ":{"ha":908,"x_min":0,"x_max":0,"o":"m 867 858 l 517 858 l 517 582 l 776 582 l 776 471 l 517 471 l 517 0 l 392 0 l 392 471 l 132 471 l 132 582 l 392 582 l 392 858 l 42 858 l 42 972 l 867 972 "},"Ť":{"ha":869,"x_min":0,"x_max":0,"o":"m 511 1058 l 358 1058 l 204 1236 l 310 1236 l 435 1139 l 560 1236 l 665 1236 m 22 972 l 847 972 l 847 858 l 497 858 l 497 0 l 372 0 l 372 858 l 22 858 "},"Ţ":{"ha":869,"x_min":0,"x_max":0,"o":"m 497 0 l 469 0 l 469 -62 b 589 -183 539 -65 589 -112 b 436 -322 589 -267 525 -322 l 350 -322 l 350 -236 l 436 -236 b 506 -182 482 -236 506 -215 b 440 -126 506 -146 479 -126 l 399 -126 l 399 0 l 372 0 l 372 858 l 22 858 l 22 972 l 847 972 l 847 858 l 497 858 "},"Ț":{"ha":869,"x_min":0,"x_max":0,"o":"m 372 0 l 372 858 l 22 858 l 22 972 l 847 972 l 847 858 l 497 858 l 497 0 m 347 -379 l 347 -317 l 358 -317 b 431 -261 407 -317 431 -299 l 431 -253 l 375 -253 l 375 -125 l 493 -125 l 493 -261 b 365 -379 493 -329 446 -379 "},"U":{"ha":965,"x_min":0,"x_max":0,"o":"m 483 -14 b 119 347 236 -14 119 132 l 119 972 l 244 972 l 244 361 b 476 100 244 196 324 100 l 490 100 b 721 361 642 100 721 196 l 721 972 l 846 972 l 846 347 b 483 -14 846 132 722 -14 "},"Ú":{"ha":965,"x_min":0,"x_max":0,"o":"m 436 1058 l 504 1236 l 653 1236 l 529 1058 m 483 -14 b 119 347 236 -14 119 132 l 119 972 l 244 972 l 244 361 b 476 100 244 196 324 100 l 490 100 b 721 361 642 100 721 196 l 721 972 l 846 972 l 846 347 b 483 -14 846 132 722 -14 "},"Ŭ":{"ha":965,"x_min":0,"x_max":0,"o":"m 483 1044 b 272 1236 363 1044 272 1113 l 367 1236 b 483 1135 371 1164 425 1135 b 599 1236 542 1135 596 1164 l 693 1236 b 483 1044 693 1113 603 1044 m 483 -14 b 119 347 236 -14 119 132 l 119 972 l 244 972 l 244 361 b 476 100 244 196 324 100 l 490 100 b 721 361 642 100 721 196 l 721 972 l 846 972 l 846 347 b 483 -14 846 132 722 -14 "},"Û":{"ha":965,"x_min":0,"x_max":0,"o":"m 483 1156 l 358 1058 l 253 1058 l 407 1236 l 560 1236 l 714 1058 l 608 1058 m 721 972 l 846 972 l 846 347 b 483 -14 846 132 722 -14 b 119 347 236 -14 119 132 l 119 972 l 244 972 l 244 361 b 476 100 244 196 324 100 l 490 100 b 721 361 642 100 721 196 "},"Ü":{"ha":965,"x_min":0,"x_max":0,"o":"m 288 1083 l 288 1213 l 417 1213 l 417 1083 m 549 1083 l 549 1213 l 679 1213 l 679 1083 m 483 -14 b 119 347 236 -14 119 132 l 119 972 l 244 972 l 244 361 b 476 100 244 196 324 100 l 490 100 b 721 361 642 100 721 196 l 721 972 l 846 972 l 846 347 b 483 -14 846 132 722 -14 "},"Ù":{"ha":965,"x_min":0,"x_max":0,"o":"m 444 1058 l 321 1236 l 468 1236 l 536 1058 m 483 -14 b 119 347 236 -14 119 132 l 119 972 l 244 972 l 244 361 b 476 100 244 196 324 100 l 490 100 b 721 361 642 100 721 196 l 721 972 l 846 972 l 846 347 b 483 -14 846 132 722 -14 "},"Ű":{"ha":965,"x_min":0,"x_max":0,"o":"m 328 1058 l 396 1236 l 544 1236 l 421 1058 m 556 1058 l 624 1236 l 772 1236 l 649 1058 m 483 -14 b 119 347 236 -14 119 132 l 119 972 l 244 972 l 244 361 b 476 100 244 196 324 100 l 490 100 b 721 361 642 100 721 196 l 721 972 l 846 972 l 846 347 b 483 -14 846 132 722 -14 "},"Ū":{"ha":965,"x_min":0,"x_max":0,"o":"m 282 1083 l 282 1178 l 683 1178 l 683 1083 m 483 -14 b 119 347 236 -14 119 132 l 119 972 l 244 972 l 244 361 b 476 100 244 196 324 100 l 490 100 b 721 361 642 100 721 196 l 721 972 l 846 972 l 846 347 b 483 -14 846 132 722 -14 "},"Ų":{"ha":965,"x_min":0,"x_max":0,"o":"m 721 972 l 846 972 l 846 347 b 601 0 846 171 763 40 b 481 -137 540 -36 481 -81 b 565 -194 481 -182 521 -194 l 592 -194 l 592 -281 l 540 -281 b 392 -162 446 -281 392 -232 b 485 -14 392 -94 438 -44 l 483 -14 b 119 347 236 -14 119 132 l 119 972 l 244 972 l 244 361 b 476 100 244 196 324 100 l 490 100 b 721 361 642 100 721 196 "},"Ů":{"ha":965,"x_min":0,"x_max":0,"o":"m 483 1046 b 363 1164 421 1046 363 1096 b 483 1282 363 1232 421 1282 b 603 1164 546 1282 603 1232 b 483 1046 603 1096 546 1046 m 485 1117 b 529 1164 510 1117 529 1139 b 485 1211 529 1189 510 1211 b 438 1164 460 1211 438 1189 b 485 1117 438 1139 460 1117 m 483 -14 b 119 347 236 -14 119 132 l 119 972 l 244 972 l 244 361 b 476 100 244 196 324 100 l 490 100 b 721 361 642 100 721 196 l 721 972 l 846 972 l 846 347 b 483 -14 846 132 722 -14 "},"Ũ":{"ha":965,"x_min":0,"x_max":0,"o":"m 597 1051 b 478 1099 556 1051 521 1071 l 440 1124 b 378 1146 419 1138 401 1146 b 328 1065 346 1146 328 1121 l 240 1065 l 240 1100 b 371 1240 240 1179 293 1240 b 482 1200 408 1240 447 1224 l 517 1176 b 588 1146 542 1161 563 1146 b 636 1226 618 1146 636 1172 l 725 1226 l 725 1192 b 597 1051 725 1113 672 1051 m 483 -14 b 119 347 236 -14 119 132 l 119 972 l 244 972 l 244 361 b 476 100 244 196 324 100 l 490 100 b 721 361 642 100 721 196 l 721 972 l 846 972 l 846 347 b 483 -14 846 132 722 -14 "},"V":{"ha":963,"x_min":0,"x_max":0,"o":"m 818 972 l 950 972 l 563 0 l 406 0 l 8 972 l 140 972 l 488 121 "},"W":{"ha":1292,"x_min":0,"x_max":0,"o":"m 1129 972 l 1258 972 l 1021 0 l 847 0 l 646 832 l 444 0 l 271 0 l 33 972 l 163 972 l 361 128 l 565 972 l 735 972 l 936 125 "},"Ẃ":{"ha":1292,"x_min":0,"x_max":0,"o":"m 821 1236 l 697 1058 l 604 1058 l 672 1236 m 1129 972 l 1258 972 l 1021 0 l 847 0 l 646 832 l 444 0 l 271 0 l 33 972 l 163 972 l 361 128 l 565 972 l 735 972 l 936 125 "},"Ŵ":{"ha":1292,"x_min":0,"x_max":0,"o":"m 650 1156 l 525 1058 l 419 1058 l 574 1236 l 726 1236 l 881 1058 l 775 1058 m 1129 972 l 1258 972 l 1021 0 l 847 0 l 646 832 l 444 0 l 271 0 l 33 972 l 163 972 l 361 128 l 565 972 l 735 972 l 936 125 "},"Ẅ":{"ha":1292,"x_min":0,"x_max":0,"o":"m 585 1213 l 585 1083 l 454 1083 l 454 1213 m 846 1213 l 846 1083 l 717 1083 l 717 1213 m 1129 972 l 1258 972 l 1021 0 l 847 0 l 646 832 l 444 0 l 271 0 l 33 972 l 163 972 l 361 128 l 565 972 l 735 972 l 936 125 "},"Ẁ":{"ha":1292,"x_min":0,"x_max":0,"o":"m 704 1058 l 611 1058 l 488 1236 l 636 1236 m 1129 972 l 1258 972 l 1021 0 l 847 0 l 646 832 l 444 0 l 271 0 l 33 972 l 163 972 l 361 128 l 565 972 l 735 972 l 936 125 "},"X":{"ha":876,"x_min":0,"x_max":0,"o":"m 864 0 l 717 0 l 438 396 l 156 0 l 11 0 l 365 497 l 31 972 l 178 972 l 440 601 l 704 972 l 847 972 l 511 500 "},"Y":{"ha":842,"x_min":0,"x_max":0,"o":"m 358 0 l 358 403 l 8 972 l 153 972 l 424 526 l 693 972 l 833 972 l 483 403 l 483 0 "},"Ý":{"ha":842,"x_min":0,"x_max":0,"o":"m 375 1058 l 443 1236 l 592 1236 l 468 1058 m 358 0 l 358 403 l 8 972 l 153 972 l 424 526 l 693 972 l 833 972 l 483 403 l 483 0 "},"Ŷ":{"ha":842,"x_min":0,"x_max":0,"o":"m 421 1156 l 296 1058 l 190 1058 l 344 1236 l 497 1236 l 651 1058 l 546 1058 m 693 972 l 833 972 l 483 403 l 483 0 l 358 0 l 358 403 l 8 972 l 153 972 l 424 526 "},"Ÿ":{"ha":842,"x_min":0,"x_max":0,"o":"m 225 1083 l 225 1213 l 356 1213 l 356 1083 m 488 1083 l 488 1213 l 617 1213 l 617 1083 m 358 0 l 358 403 l 8 972 l 153 972 l 424 526 l 693 972 l 833 972 l 483 403 l 483 0 "},"Ỳ":{"ha":842,"x_min":0,"x_max":0,"o":"m 382 1058 l 258 1236 l 407 1236 l 475 1058 m 358 0 l 358 403 l 8 972 l 153 972 l 424 526 l 693 972 l 833 972 l 483 403 l 483 0 "},"Ȳ":{"ha":842,"x_min":0,"x_max":0,"o":"m 221 1083 l 221 1178 l 622 1178 l 622 1083 m 358 0 l 358 403 l 8 972 l 153 972 l 424 526 l 693 972 l 833 972 l 483 403 l 483 0 "},"Z":{"ha":846,"x_min":0,"x_max":0,"o":"m 56 0 l 56 117 l 633 858 l 69 858 l 69 972 l 776 972 l 776 858 l 197 114 l 790 114 l 790 0 "},"Ź":{"ha":846,"x_min":0,"x_max":0,"o":"m 378 1058 l 446 1236 l 593 1236 l 469 1058 m 56 0 l 56 117 l 633 858 l 69 858 l 69 972 l 776 972 l 776 858 l 197 114 l 790 114 l 790 0 "},"Ž":{"ha":846,"x_min":0,"x_max":0,"o":"m 500 1058 l 347 1058 l 193 1236 l 299 1236 l 424 1139 l 549 1236 l 654 1236 m 197 114 l 790 114 l 790 0 l 56 0 l 56 117 l 633 858 l 69 858 l 69 972 l 776 972 l 776 858 "},"Ż":{"ha":846,"x_min":0,"x_max":0,"o":"m 357 1083 l 357 1225 l 489 1225 l 489 1083 m 56 0 l 56 117 l 633 858 l 69 858 l 69 972 l 776 972 l 776 858 l 197 114 l 790 114 l 790 0 "},"a":{"ha":732,"x_min":0,"x_max":0,"o":"m 292 -14 b 65 192 163 -14 65 74 b 314 404 65 349 203 396 l 514 421 l 514 444 b 360 608 514 549 456 608 l 350 608 b 197 496 272 608 206 571 l 79 496 b 356 708 88 622 201 708 b 632 444 539 708 632 586 l 632 153 b 639 0 632 111 632 49 l 528 0 b 521 111 522 33 521 94 b 292 -14 493 49 406 -14 m 317 86 b 514 250 406 86 514 160 l 514 328 l 332 314 b 183 197 244 307 183 265 b 304 86 183 133 235 86 "},"á":{"ha":732,"x_min":0,"x_max":0,"o":"m 317 788 l 393 972 l 524 972 l 399 788 m 292 -14 b 65 192 163 -14 65 74 b 314 404 65 349 203 396 l 514 421 l 514 444 b 360 608 514 549 456 608 l 350 608 b 197 496 272 608 206 571 l 79 496 b 356 708 88 622 201 708 b 632 444 539 708 632 586 l 632 153 b 639 0 632 111 632 49 l 528 0 b 521 111 522 33 521 94 b 292 -14 493 49 406 -14 m 317 86 b 514 250 406 86 514 160 l 514 328 l 332 314 b 183 197 244 307 183 265 b 304 86 183 133 235 86 "},"ă":{"ha":732,"x_min":0,"x_max":0,"o":"m 358 774 b 154 972 247 774 160 839 l 243 972 b 358 857 250 890 299 857 b 474 972 418 857 467 890 l 563 972 b 358 774 557 839 465 774 m 292 -14 b 65 192 163 -14 65 74 b 314 404 65 349 203 396 l 514 421 l 514 444 b 360 608 514 549 456 608 l 350 608 b 197 496 272 608 206 571 l 79 496 b 356 708 88 622 201 708 b 632 444 539 708 632 586 l 632 153 b 639 0 632 111 632 49 l 528 0 b 521 111 522 33 521 94 b 292 -14 493 49 406 -14 m 317 86 b 514 250 406 86 514 160 l 514 328 l 332 314 b 183 197 244 307 183 265 b 304 86 183 133 235 86 "},"â":{"ha":732,"x_min":0,"x_max":0,"o":"m 360 892 l 219 788 l 126 788 l 297 972 l 419 972 l 590 788 l 497 788 m 632 153 b 639 0 632 111 632 49 l 528 0 b 521 111 522 33 521 94 b 292 -14 493 49 406 -14 b 65 192 163 -14 65 74 b 314 404 65 349 203 396 l 514 421 l 514 444 b 360 608 514 549 456 608 l 350 608 b 197 496 272 608 206 571 l 79 496 b 356 708 88 622 201 708 b 632 444 539 708 632 586 m 514 328 l 332 314 b 183 197 244 307 183 265 b 304 86 183 133 235 86 l 317 86 b 514 250 406 86 514 160 "},"ä":{"ha":732,"x_min":0,"x_max":0,"o":"m 167 819 l 167 954 l 293 954 l 293 819 m 424 819 l 424 954 l 550 954 l 550 819 m 292 -14 b 65 192 163 -14 65 74 b 314 404 65 349 203 396 l 514 421 l 514 444 b 360 608 514 549 456 608 l 350 608 b 197 496 272 608 206 571 l 79 496 b 356 708 88 622 201 708 b 632 444 539 708 632 586 l 632 153 b 639 0 632 111 632 49 l 528 0 b 521 111 522 33 521 94 b 292 -14 493 49 406 -14 m 317 86 b 514 250 406 86 514 160 l 514 328 l 332 314 b 183 197 244 307 183 265 b 304 86 183 133 235 86 "},"ȧ":{"ha":732,"x_min":0,"x_max":0,"o":"m 292 819 l 292 961 l 424 961 l 424 819 m 292 -14 b 65 192 163 -14 65 74 b 314 404 65 349 203 396 l 514 421 l 514 444 b 360 608 514 549 456 608 l 350 608 b 197 496 272 608 206 571 l 79 496 b 356 708 88 622 201 708 b 632 444 539 708 632 586 l 632 153 b 639 0 632 111 632 49 l 528 0 b 521 111 522 33 521 94 b 292 -14 493 49 406 -14 m 317 86 b 514 250 406 86 514 160 l 514 328 l 332 314 b 183 197 244 307 183 265 b 304 86 183 133 235 86 "},"à":{"ha":732,"x_min":0,"x_max":0,"o":"m 317 788 l 192 972 l 322 972 l 399 788 m 292 -14 b 65 192 163 -14 65 74 b 314 404 65 349 203 396 l 514 421 l 514 444 b 360 608 514 549 456 608 l 350 608 b 197 496 272 608 206 571 l 79 496 b 356 708 88 622 201 708 b 632 444 539 708 632 586 l 632 153 b 639 0 632 111 632 49 l 528 0 b 521 111 522 33 521 94 b 292 -14 493 49 406 -14 m 317 86 b 514 250 406 86 514 160 l 514 328 l 332 314 b 183 197 244 307 183 265 b 304 86 183 133 235 86 "},"ā":{"ha":732,"x_min":0,"x_max":0,"o":"m 163 819 l 163 914 l 553 914 l 553 819 m 292 -14 b 65 192 163 -14 65 74 b 314 404 65 349 203 396 l 514 421 l 514 444 b 360 608 514 549 456 608 l 350 608 b 197 496 272 608 206 571 l 79 496 b 356 708 88 622 201 708 b 632 444 539 708 632 586 l 632 153 b 639 0 632 111 632 49 l 528 0 b 521 111 522 33 521 94 b 292 -14 493 49 406 -14 m 317 86 b 514 250 406 86 514 160 l 514 328 l 332 314 b 183 197 244 307 183 265 b 304 86 183 133 235 86 "},"ą":{"ha":732,"x_min":0,"x_max":0,"o":"m 519 -137 b 603 -194 519 -182 560 -194 l 629 -194 l 629 -281 l 579 -281 b 431 -162 485 -281 431 -232 b 544 0 431 -83 493 -29 l 528 0 b 521 111 522 33 521 94 b 292 -14 493 49 406 -14 b 65 192 163 -14 65 74 b 314 404 65 349 203 396 l 514 421 l 514 444 b 360 608 514 549 456 608 l 350 608 b 197 496 272 608 206 571 l 79 496 b 356 708 88 622 201 708 b 632 444 539 708 632 586 l 632 153 b 639 0 632 111 632 49 b 519 -137 579 -36 519 -81 m 514 328 l 332 314 b 183 197 244 307 183 265 b 304 86 183 133 235 86 l 317 86 b 514 250 406 86 514 160 "},"å":{"ha":732,"x_min":0,"x_max":0,"o":"m 357 775 b 231 901 290 775 231 829 b 357 1028 231 974 290 1028 b 485 901 424 1028 485 974 b 357 775 485 829 424 775 m 358 840 b 418 901 392 840 418 868 b 358 963 418 935 392 963 b 297 901 325 963 297 935 b 358 840 297 868 325 840 m 292 -14 b 65 192 163 -14 65 74 b 314 404 65 349 203 396 l 514 421 l 514 444 b 360 608 514 549 456 608 l 350 608 b 197 496 272 608 206 571 l 79 496 b 356 708 88 622 201 708 b 632 444 539 708 632 586 l 632 153 b 639 0 632 111 632 49 l 528 0 b 521 111 522 33 521 94 b 292 -14 493 49 406 -14 m 317 86 b 514 250 406 86 514 160 l 514 328 l 332 314 b 183 197 244 307 183 265 b 304 86 183 133 235 86 "},"ã":{"ha":732,"x_min":0,"x_max":0,"o":"m 472 774 b 354 821 432 774 396 793 l 315 846 b 254 868 296 860 278 868 b 203 788 222 868 203 843 l 115 788 l 115 822 b 246 963 115 901 168 963 b 357 922 283 963 322 946 l 392 899 b 463 868 417 883 439 868 b 513 949 494 868 513 894 l 600 949 l 600 914 b 472 774 600 835 547 774 m 292 -14 b 65 192 163 -14 65 74 b 314 404 65 349 203 396 l 514 421 l 514 444 b 360 608 514 549 456 608 l 350 608 b 197 496 272 608 206 571 l 79 496 b 356 708 88 622 201 708 b 632 444 539 708 632 586 l 632 153 b 639 0 632 111 632 49 l 528 0 b 521 111 522 33 521 94 b 292 -14 493 49 406 -14 m 317 86 b 514 250 406 86 514 160 l 514 328 l 332 314 b 183 197 244 307 183 265 b 304 86 183 133 235 86 "},"æ":{"ha":1186,"x_min":0,"x_max":0,"o":"m 296 -14 b 65 192 164 -14 65 74 b 313 407 65 350 203 397 l 510 422 l 510 444 b 357 608 510 549 451 608 l 350 608 b 197 496 272 608 206 571 l 79 496 b 353 708 88 622 200 708 b 586 593 458 708 540 665 b 829 708 646 671 738 708 b 1118 400 1006 708 1118 581 l 1118 331 l 628 331 b 831 86 635 160 736 86 l 840 86 b 999 203 917 86 981 124 l 1117 203 b 832 -14 1092 61 975 -14 b 563 135 721 -14 621 36 b 296 -14 508 42 413 -14 m 1000 426 b 835 608 996 547 924 608 l 822 608 b 635 426 744 608 657 564 m 319 86 b 510 254 406 86 510 163 l 510 329 l 331 315 b 183 197 244 308 183 267 b 306 86 183 133 236 86 "},"ǽ":{"ha":1186,"x_min":0,"x_max":0,"o":"m 549 788 l 625 972 l 756 972 l 631 788 m 296 -14 b 65 192 164 -14 65 74 b 313 407 65 350 203 397 l 510 422 l 510 444 b 357 608 510 549 451 608 l 350 608 b 197 496 272 608 206 571 l 79 496 b 353 708 88 622 200 708 b 586 593 458 708 540 665 b 829 708 646 671 738 708 b 1118 400 1006 708 1118 581 l 1118 331 l 628 331 b 831 86 635 160 736 86 l 840 86 b 999 203 917 86 981 124 l 1117 203 b 832 -14 1092 61 975 -14 b 563 135 721 -14 621 36 b 296 -14 508 42 413 -14 m 1000 426 b 835 608 996 547 924 608 l 822 608 b 635 426 744 608 657 564 m 319 86 b 510 254 406 86 510 163 l 510 329 l 331 315 b 183 197 244 308 183 267 b 306 86 183 133 236 86 "},"b":{"ha":822,"x_min":0,"x_max":0,"o":"m 454 -14 b 225 101 360 -14 261 35 l 225 0 l 107 0 l 107 972 l 225 972 l 225 593 b 446 708 261 660 350 708 b 757 347 621 708 757 574 b 454 -14 757 121 631 -14 m 439 86 b 639 347 558 86 639 186 b 439 608 639 508 558 608 l 429 608 b 225 347 314 608 225 508 b 429 86 225 186 314 86 "},"c":{"ha":733,"x_min":0,"x_max":0,"o":"m 393 -14 b 65 347 182 -14 65 143 b 393 708 65 551 182 708 b 674 468 549 708 660 617 l 556 468 b 400 608 542 550 483 608 l 388 608 b 183 347 249 608 183 486 b 388 86 183 208 249 86 l 400 86 b 556 226 483 86 542 146 l 674 226 b 393 -14 656 79 549 -14 "},"ć":{"ha":733,"x_min":0,"x_max":0,"o":"m 349 788 l 426 972 l 556 972 l 432 788 m 393 -14 b 65 347 182 -14 65 143 b 393 708 65 551 182 708 b 674 468 549 708 660 617 l 556 468 b 400 608 542 550 483 608 l 388 608 b 183 347 249 608 183 486 b 388 86 183 208 249 86 l 400 86 b 556 226 483 86 542 146 l 674 226 b 393 -14 656 79 549 -14 "},"č":{"ha":733,"x_min":0,"x_max":0,"o":"m 453 788 l 329 788 l 160 972 l 253 972 l 392 868 l 531 972 l 622 972 m 400 86 b 556 226 483 86 542 146 l 674 226 b 393 -14 656 79 549 -14 b 65 347 182 -14 65 143 b 393 708 65 551 182 708 b 674 468 549 708 660 617 l 556 468 b 400 608 542 550 483 608 l 388 608 b 183 347 249 608 183 486 b 388 86 183 208 249 86 "},"ç":{"ha":733,"x_min":0,"x_max":0,"o":"m 399 86 b 556 226 483 86 540 146 l 674 226 b 417 -12 657 86 560 -4 l 417 -62 b 535 -183 486 -65 535 -112 b 382 -322 535 -267 472 -322 l 296 -322 l 296 -236 l 383 -236 b 451 -182 429 -236 451 -215 b 386 -126 451 -146 426 -126 l 344 -126 l 344 -11 b 64 347 164 11 64 160 b 393 708 64 551 182 708 b 674 468 549 708 660 617 l 556 468 b 399 608 542 550 483 608 l 388 608 b 182 347 247 608 182 486 b 388 86 182 208 247 86 "},"ĉ":{"ha":733,"x_min":0,"x_max":0,"o":"m 392 892 l 253 788 l 160 788 l 329 972 l 453 972 l 622 788 l 531 788 m 400 86 b 556 226 483 86 542 146 l 674 226 b 393 -14 656 79 549 -14 b 65 347 182 -14 65 143 b 393 708 65 551 182 708 b 674 468 549 708 660 617 l 556 468 b 400 608 542 550 483 608 l 388 608 b 183 347 249 608 183 486 b 388 86 183 208 249 86 "},"ċ":{"ha":733,"x_min":0,"x_max":0,"o":"m 325 819 l 325 961 l 457 961 l 457 819 m 393 -14 b 65 347 182 -14 65 143 b 393 708 65 551 182 708 b 674 468 549 708 660 617 l 556 468 b 400 608 542 550 483 608 l 388 608 b 183 347 249 608 183 486 b 388 86 183 208 249 86 l 400 86 b 556 226 483 86 542 146 l 674 226 b 393 -14 656 79 549 -14 "},"d":{"ha":822,"x_min":0,"x_max":0,"o":"m 368 -14 b 65 347 192 -14 65 121 b 378 708 65 574 201 708 b 599 593 472 708 561 660 l 599 972 l 717 972 l 717 0 l 599 0 l 599 101 b 368 -14 561 35 463 -14 m 393 86 b 599 347 510 86 599 186 b 393 608 599 508 510 608 l 383 608 b 185 347 264 608 185 508 b 383 86 185 186 264 86 "},"ð":{"ha":792,"x_min":0,"x_max":0,"o":"m 583 829 b 715 399 671 726 715 572 b 386 -14 715 167 601 -14 b 64 335 189 -14 64 136 b 372 660 64 515 182 660 b 585 575 444 660 524 636 b 499 771 578 654 547 721 l 388 696 l 332 774 l 417 832 b 236 871 365 857 304 871 l 236 972 b 511 896 347 972 439 946 l 615 967 l 672 889 m 393 86 b 597 333 506 86 597 179 b 393 560 597 475 506 560 l 379 560 b 182 333 261 560 182 475 b 382 86 182 179 264 86 "},"ď":{"ha":847,"x_min":0,"x_max":0,"o":"m 368 -14 b 65 347 192 -14 65 121 b 378 708 65 574 201 708 b 599 593 472 708 561 660 l 599 972 l 717 972 l 717 0 l 599 0 l 599 101 b 368 -14 561 35 463 -14 m 779 718 l 779 781 l 790 781 b 863 836 839 781 863 799 l 863 844 l 807 844 l 807 972 l 925 972 l 925 836 b 797 718 925 768 876 718 m 393 86 b 599 347 510 86 599 186 b 393 608 599 508 510 608 l 383 608 b 185 347 264 608 185 508 b 383 86 185 186 264 86 "},"đ":{"ha":822,"x_min":0,"x_max":0,"o":"m 824 882 l 824 788 l 717 788 l 717 0 l 599 0 l 599 101 b 368 -14 561 35 463 -14 b 65 347 192 -14 65 121 b 378 708 65 574 201 708 b 599 593 472 708 561 660 l 599 788 l 382 788 l 382 882 l 599 882 l 599 972 l 717 972 l 717 882 m 393 86 b 599 347 510 86 599 186 b 393 608 599 508 510 608 l 383 608 b 185 347 264 608 185 508 b 383 86 185 186 264 86 "},"e":{"ha":742,"x_min":0,"x_max":0,"o":"m 386 -14 b 65 349 214 -14 65 107 b 383 708 65 590 221 708 b 674 400 561 708 674 581 l 674 331 l 183 331 b 385 86 189 160 290 86 l 396 86 b 554 203 472 86 536 124 l 672 203 b 386 -14 646 64 529 -14 m 556 426 b 389 608 550 547 479 608 l 378 608 b 189 426 300 608 213 564 "},"é":{"ha":742,"x_min":0,"x_max":0,"o":"m 346 788 l 422 972 l 553 972 l 428 788 m 386 -14 b 65 349 214 -14 65 107 b 383 708 65 590 221 708 b 674 400 561 708 674 581 l 674 331 l 183 331 b 385 86 189 160 290 86 l 396 86 b 554 203 472 86 536 124 l 672 203 b 386 -14 646 64 529 -14 m 556 426 b 389 608 550 547 479 608 l 378 608 b 189 426 300 608 213 564 "},"ĕ":{"ha":742,"x_min":0,"x_max":0,"o":"m 388 774 b 183 972 276 774 189 839 l 272 972 b 388 857 279 890 328 857 b 503 972 447 857 496 890 l 592 972 b 388 774 586 839 494 774 m 386 -14 b 65 349 214 -14 65 107 b 383 708 65 590 221 708 b 674 400 561 708 674 581 l 674 331 l 183 331 b 385 86 189 160 290 86 l 396 86 b 554 203 472 86 536 124 l 672 203 b 386 -14 646 64 529 -14 m 556 426 b 389 608 550 547 479 608 l 378 608 b 189 426 300 608 213 564 "},"ě":{"ha":742,"x_min":0,"x_max":0,"o":"m 449 788 l 326 788 l 156 972 l 249 972 l 389 868 l 526 972 l 619 972 m 674 331 l 183 331 b 385 86 189 160 290 86 l 396 86 b 554 203 472 86 536 124 l 672 203 b 386 -14 646 64 529 -14 b 65 349 214 -14 65 107 b 383 708 65 590 221 708 b 674 400 561 708 674 581 m 556 426 b 389 608 550 547 479 608 l 378 608 b 189 426 300 608 213 564 "},"ê":{"ha":742,"x_min":0,"x_max":0,"o":"m 389 892 l 249 788 l 156 788 l 326 972 l 449 972 l 619 788 l 526 788 m 674 331 l 183 331 b 385 86 189 160 290 86 l 396 86 b 554 203 472 86 536 124 l 672 203 b 386 -14 646 64 529 -14 b 65 349 214 -14 65 107 b 383 708 65 590 221 708 b 674 400 561 708 674 581 m 556 426 b 389 608 550 547 479 608 l 378 608 b 189 426 300 608 213 564 "},"ë":{"ha":742,"x_min":0,"x_max":0,"o":"m 196 819 l 196 954 l 322 954 l 322 819 m 453 819 l 453 954 l 579 954 l 579 819 m 386 -14 b 65 349 214 -14 65 107 b 383 708 65 590 221 708 b 674 400 561 708 674 581 l 674 331 l 183 331 b 385 86 189 160 290 86 l 396 86 b 554 203 472 86 536 124 l 672 203 b 386 -14 646 64 529 -14 m 556 426 b 389 608 550 547 479 608 l 378 608 b 189 426 300 608 213 564 "},"ė":{"ha":742,"x_min":0,"x_max":0,"o":"m 321 819 l 321 961 l 453 961 l 453 819 m 386 -14 b 65 349 214 -14 65 107 b 383 708 65 590 221 708 b 674 400 561 708 674 581 l 674 331 l 183 331 b 385 86 189 160 290 86 l 396 86 b 554 203 472 86 536 124 l 672 203 b 386 -14 646 64 529 -14 m 556 426 b 389 608 550 547 479 608 l 378 608 b 189 426 300 608 213 564 "},"è":{"ha":742,"x_min":0,"x_max":0,"o":"m 346 788 l 221 972 l 351 972 l 428 788 m 386 -14 b 65 349 214 -14 65 107 b 383 708 65 590 221 708 b 674 400 561 708 674 581 l 674 331 l 183 331 b 385 86 189 160 290 86 l 396 86 b 554 203 472 86 536 124 l 672 203 b 386 -14 646 64 529 -14 m 556 426 b 389 608 550 547 479 608 l 378 608 b 189 426 300 608 213 564 "},"ē":{"ha":742,"x_min":0,"x_max":0,"o":"m 192 819 l 192 914 l 582 914 l 582 819 m 386 -14 b 65 349 214 -14 65 107 b 383 708 65 590 221 708 b 674 400 561 708 674 581 l 674 331 l 183 331 b 385 86 189 160 290 86 l 396 86 b 554 203 472 86 536 124 l 672 203 b 386 -14 646 64 529 -14 m 556 426 b 389 608 550 547 479 608 l 378 608 b 189 426 300 608 213 564 "},"ę":{"ha":742,"x_min":0,"x_max":0,"o":"m 674 331 l 183 331 b 385 86 189 160 290 86 l 396 86 b 554 203 472 86 536 124 l 672 203 b 486 0 653 99 581 28 b 367 -137 426 -36 367 -81 b 450 -194 367 -182 407 -194 l 476 -194 l 476 -281 l 426 -281 b 276 -162 332 -281 276 -232 b 369 -14 276 -94 324 -44 b 65 349 204 -6 65 115 b 383 708 65 590 221 708 b 674 400 561 708 674 581 m 556 426 b 389 608 550 547 479 608 l 378 608 b 189 426 300 608 213 564 "},"f":{"ha":511,"x_min":0,"x_max":0,"o":"m 186 0 l 186 593 l 31 593 l 31 694 l 186 694 l 186 833 b 328 972 186 928 232 972 l 515 972 l 515 869 l 360 869 b 304 814 318 869 304 856 l 304 694 l 481 694 l 481 593 l 304 593 l 304 0 "},"g":{"ha":811,"x_min":0,"x_max":0,"o":"m 371 -306 b 51 -93 175 -306 65 -217 l 169 -93 b 364 -206 185 -168 263 -206 l 378 -206 b 588 14 496 -206 588 -142 l 588 115 b 371 0 550 53 478 0 b 65 351 207 0 65 115 b 371 708 65 588 204 708 b 588 593 478 708 554 656 l 588 694 l 706 694 l 706 1 b 371 -306 706 -174 582 -306 m 388 100 b 588 351 493 100 588 192 b 393 608 588 511 499 608 l 381 608 b 183 351 274 608 183 525 b 376 100 183 178 268 100 "},"ğ":{"ha":811,"x_min":0,"x_max":0,"o":"m 390 774 b 186 972 279 774 190 839 l 274 972 b 390 857 281 890 329 857 b 506 972 450 857 499 890 l 593 972 b 390 774 589 839 496 774 m 371 -306 b 51 -93 175 -306 65 -217 l 169 -93 b 364 -206 185 -168 263 -206 l 378 -206 b 588 14 496 -206 588 -142 l 588 115 b 371 0 550 53 478 0 b 65 351 207 0 65 115 b 371 708 65 588 204 708 b 588 593 478 708 554 656 l 588 694 l 706 694 l 706 1 b 371 -306 706 -174 582 -306 m 388 100 b 588 351 493 100 588 192 b 393 608 588 511 499 608 l 381 608 b 183 351 274 608 183 525 b 376 100 183 178 268 100 "},"ĝ":{"ha":811,"x_min":0,"x_max":0,"o":"m 390 892 l 251 788 l 158 788 l 328 972 l 451 972 l 621 788 l 529 788 m 588 694 l 706 694 l 706 1 b 371 -306 706 -174 582 -306 b 51 -93 175 -306 65 -217 l 169 -93 b 364 -206 185 -168 263 -206 l 378 -206 b 588 14 496 -206 588 -142 l 588 115 b 371 0 550 53 478 0 b 65 351 207 0 65 115 b 371 708 65 588 204 708 b 588 593 478 708 554 656 m 388 100 b 588 351 493 100 588 192 b 393 608 588 511 499 608 l 381 608 b 183 351 274 608 183 525 b 376 100 183 178 268 100 "},"ģ":{"ha":811,"x_min":0,"x_max":0,"o":"m 476 1083 l 476 1021 l 464 1021 b 393 965 417 1021 393 1003 l 393 957 l 449 957 l 449 829 l 331 829 l 331 965 b 457 1083 331 1033 378 1083 m 371 -306 b 51 -93 175 -306 65 -217 l 169 -93 b 364 -206 185 -168 263 -206 l 378 -206 b 588 14 496 -206 588 -142 l 588 115 b 371 0 550 53 478 0 b 65 351 207 0 65 115 b 371 708 65 588 204 708 b 588 593 478 708 554 656 l 588 694 l 706 694 l 706 1 b 371 -306 706 -174 582 -306 m 388 100 b 588 351 493 100 588 192 b 393 608 588 511 499 608 l 381 608 b 183 351 274 608 183 525 b 376 100 183 178 268 100 "},"ġ":{"ha":811,"x_min":0,"x_max":0,"o":"m 324 819 l 324 961 l 456 961 l 456 819 m 371 -306 b 51 -93 175 -306 65 -217 l 169 -93 b 364 -206 185 -168 263 -206 l 378 -206 b 588 14 496 -206 588 -142 l 588 115 b 371 0 550 53 478 0 b 65 351 207 0 65 115 b 371 708 65 588 204 708 b 588 593 478 708 554 656 l 588 694 l 706 694 l 706 1 b 371 -306 706 -174 582 -306 m 388 100 b 588 351 493 100 588 192 b 393 608 588 511 499 608 l 381 608 b 183 351 274 608 183 525 b 376 100 183 178 268 100 "},"h":{"ha":801,"x_min":0,"x_max":0,"o":"m 107 0 l 107 972 l 225 972 l 225 590 b 456 708 268 660 343 708 b 701 463 614 708 701 608 l 701 0 l 583 0 l 583 435 b 435 608 583 544 538 608 l 422 608 b 225 385 321 608 225 526 l 225 0 "},"ħ":{"ha":801,"x_min":0,"x_max":0,"o":"m 456 708 b 701 463 614 708 701 608 l 701 0 l 583 0 l 583 435 b 435 608 583 544 538 608 l 422 608 b 225 385 321 608 225 526 l 225 0 l 107 0 l 107 788 l 8 788 l 8 882 l 107 882 l 107 972 l 225 972 l 225 882 l 451 882 l 451 788 l 225 788 l 225 590 b 456 708 268 660 343 708 "},"ĥ":{"ha":801,"x_min":0,"x_max":0,"o":"m 425 1156 l 285 1051 l 193 1051 l 363 1236 l 486 1236 l 656 1051 l 563 1051 m 456 708 b 701 463 614 708 701 608 l 701 0 l 583 0 l 583 435 b 435 608 583 544 538 608 l 422 608 b 225 385 321 608 225 526 l 225 0 l 107 0 l 107 972 l 225 972 l 225 590 b 456 708 268 660 343 708 "},"i":{"ha":331,"x_min":0,"x_max":0,"o":"m 100 819 l 100 961 l 232 961 l 232 819 m 107 0 l 107 694 l 225 694 l 225 0 "},"ı":{"ha":331,"x_min":0,"x_max":0,"o":"m 107 0 l 107 694 l 225 694 l 225 0 "},"í":{"ha":331,"x_min":0,"x_max":0,"o":"m 124 788 l 201 972 l 331 972 l 207 788 m 107 0 l 107 694 l 225 694 l 225 0 "},"ĭ":{"ha":331,"x_min":0,"x_max":0,"o":"m 167 774 b -37 972 56 774 -33 839 l 50 972 b 167 857 57 890 106 857 b 282 972 226 857 275 890 l 369 972 b 167 774 365 839 272 774 m 107 0 l 107 694 l 225 694 l 225 0 "},"î":{"ha":331,"x_min":0,"x_max":0,"o":"m 228 972 l 397 788 l 306 788 l 167 892 l 28 788 l -65 788 l 104 972 m 107 0 l 107 694 l 225 694 l 225 0 "},"ï":{"ha":331,"x_min":0,"x_max":0,"o":"m -26 819 l -26 954 l 101 954 l 101 819 m 231 819 l 231 954 l 358 954 l 358 819 m 107 0 l 107 694 l 225 694 l 225 0 "},"ì":{"ha":331,"x_min":0,"x_max":0,"o":"m 124 788 l 0 972 l 129 972 l 207 788 m 107 0 l 107 694 l 225 694 l 225 0 "},"ĳ":{"ha":678,"x_min":0,"x_max":0,"o":"m 100 819 l 100 961 l 232 961 l 232 819 m 447 819 l 447 961 l 579 961 l 579 819 m 107 -247 l 107 -143 l 399 -143 b 454 -87 440 -143 454 -129 l 454 694 l 572 694 l 572 -108 b 431 -247 572 -204 525 -247 m 107 0 l 107 694 l 225 694 l 225 0 "},"ī":{"ha":331,"x_min":0,"x_max":0,"o":"m -31 819 l -31 914 l 361 914 l 361 819 m 107 0 l 107 694 l 225 694 l 225 0 "},"į":{"ha":331,"x_min":0,"x_max":0,"o":"m 100 961 l 232 961 l 232 819 l 100 819 m 107 0 l 107 694 l 225 694 l 225 0 b 104 -137 164 -36 104 -81 b 189 -194 104 -182 144 -194 l 215 -194 l 215 -281 l 164 -281 b 15 -162 69 -281 15 -232 b 131 0 15 -83 78 -29 "},"ĩ":{"ha":331,"x_min":0,"x_max":0,"o":"m 281 774 b 161 821 239 774 204 793 l 124 846 b 61 868 103 860 85 868 b 11 788 29 868 11 843 l -76 788 l -76 822 b 54 963 -76 901 -24 963 b 165 922 92 963 131 946 l 200 899 b 271 868 225 883 246 868 b 319 949 301 868 319 894 l 408 949 l 408 914 b 281 774 408 835 356 774 m 107 0 l 107 694 l 225 694 l 225 0 "},"j":{"ha":342,"x_min":0,"x_max":0,"o":"m 111 819 l 111 961 l 243 961 l 243 819 m -114 -247 l -114 -143 l 63 -143 b 118 -87 104 -143 118 -129 l 118 694 l 236 694 l 236 -108 b 94 -247 236 -204 189 -247 "},"ȷ":{"ha":342,"x_min":0,"x_max":0,"o":"m -114 -247 l -114 -143 l 63 -143 b 118 -87 104 -143 118 -129 l 118 694 l 236 694 l 236 -108 b 94 -247 236 -204 189 -247 "},"ĵ":{"ha":342,"x_min":0,"x_max":0,"o":"m 238 972 l 407 788 l 314 788 l 176 892 l 36 788 l -56 788 l 114 972 m 118 694 l 236 694 l 236 -108 b 94 -247 236 -204 189 -247 l -114 -247 l -114 -143 l 63 -143 b 118 -87 104 -143 118 -129 "},"k":{"ha":736,"x_min":0,"x_max":0,"o":"m 107 0 l 107 972 l 225 972 l 225 375 l 551 694 l 708 694 l 419 418 l 722 0 l 576 0 l 335 338 l 225 231 l 225 0 "},"ķ":{"ha":736,"x_min":0,"x_max":0,"o":"m 107 0 l 107 972 l 225 972 l 225 375 l 551 694 l 708 694 l 419 418 l 722 0 l 576 0 l 335 338 l 225 231 l 225 0 m 306 -379 l 306 -317 l 317 -317 b 389 -261 365 -317 389 -299 l 389 -253 l 333 -253 l 333 -125 l 451 -125 l 451 -261 b 324 -379 451 -329 404 -379 "},"l":{"ha":331,"x_min":0,"x_max":0,"o":"m 107 0 l 107 972 l 225 972 l 225 0 "},"ĺ":{"ha":331,"x_min":0,"x_max":0,"o":"m 124 1051 l 201 1236 l 331 1236 l 207 1051 m 107 0 l 107 972 l 225 972 l 225 0 "},"ľ":{"ha":356,"x_min":0,"x_max":0,"o":"m 107 0 l 107 972 l 225 972 l 225 0 m 286 718 l 286 781 l 297 781 b 369 836 346 781 369 799 l 369 844 l 314 844 l 314 972 l 432 972 l 432 836 b 304 718 432 768 383 718 "},"ļ":{"ha":331,"x_min":0,"x_max":0,"o":"m 107 0 l 107 972 l 225 972 l 225 0 m 79 -379 l 79 -317 l 90 -317 b 163 -261 139 -317 163 -299 l 163 -253 l 107 -253 l 107 -125 l 225 -125 l 225 -261 b 97 -379 225 -329 176 -379 "},"ŀ":{"ha":411,"x_min":0,"x_max":0,"o":"m 107 0 l 107 972 l 225 972 l 225 0 m 301 408 l 301 550 l 443 550 l 443 408 "},"ł":{"ha":417,"x_min":0,"x_max":0,"o":"m 386 711 l 386 593 l 274 529 l 274 0 l 156 0 l 156 463 l 42 399 l 42 517 l 156 581 l 156 972 l 274 972 l 274 647 "},"m":{"ha":1246,"x_min":0,"x_max":0,"o":"m 107 0 l 107 694 l 225 694 l 225 593 b 440 708 267 658 339 708 b 665 574 540 708 624 665 b 900 708 718 669 807 708 b 1146 461 1051 708 1146 614 l 1146 0 l 1028 0 l 1028 433 b 881 608 1028 544 982 608 l 871 608 b 685 375 768 608 685 513 l 685 0 l 567 0 l 567 433 b 421 608 567 544 522 608 l 410 608 b 225 375 307 608 225 513 l 225 0 "},"n":{"ha":801,"x_min":0,"x_max":0,"o":"m 107 0 l 107 694 l 225 694 l 225 590 b 454 708 265 658 342 708 b 701 461 607 708 701 614 l 701 0 l 583 0 l 583 433 b 435 608 583 544 538 608 l 424 608 b 225 375 308 608 225 513 l 225 0 "},"ń":{"ha":801,"x_min":0,"x_max":0,"o":"m 367 788 l 444 972 l 574 972 l 450 788 m 107 0 l 107 694 l 225 694 l 225 590 b 454 708 265 658 342 708 b 701 461 607 708 701 614 l 701 0 l 583 0 l 583 433 b 435 608 583 544 538 608 l 424 608 b 225 375 308 608 225 513 l 225 0 "},"ň":{"ha":801,"x_min":0,"x_max":0,"o":"m 471 788 l 347 788 l 178 972 l 269 972 l 410 868 l 547 972 l 640 972 m 454 708 b 701 461 607 708 701 614 l 701 0 l 583 0 l 583 433 b 435 608 583 544 538 608 l 424 608 b 225 375 308 608 225 513 l 225 0 l 107 0 l 107 694 l 225 694 l 225 590 b 454 708 265 658 342 708 "},"ņ":{"ha":801,"x_min":0,"x_max":0,"o":"m 107 0 l 107 694 l 225 694 l 225 590 b 454 708 265 658 342 708 b 701 461 607 708 701 614 l 701 0 l 583 0 l 583 433 b 435 608 583 544 538 608 l 424 608 b 225 375 308 608 225 513 l 225 0 m 321 -379 l 321 -317 l 333 -317 b 404 -261 381 -317 404 -299 l 404 -253 l 349 -253 l 349 -125 l 467 -125 l 467 -261 b 340 -379 467 -329 419 -379 "},"ŋ":{"ha":801,"x_min":0,"x_max":0,"o":"m 454 708 b 701 461 607 708 701 614 l 701 -108 b 560 -247 701 -204 657 -247 l 413 -247 l 413 -143 l 528 -143 b 583 -87 572 -143 583 -129 l 583 433 b 435 608 583 544 538 608 l 424 608 b 225 375 308 608 225 513 l 225 0 l 107 0 l 107 694 l 225 694 l 225 590 b 454 708 265 658 342 708 "},"ñ":{"ha":801,"x_min":0,"x_max":0,"o":"m 522 774 b 404 821 482 774 447 793 l 367 846 b 304 868 346 860 328 868 b 254 788 272 868 254 843 l 165 788 l 165 822 b 296 963 165 901 218 963 b 407 922 335 963 372 946 l 443 899 b 513 868 467 883 489 868 b 563 949 544 868 563 894 l 650 949 l 650 914 b 522 774 650 835 597 774 m 107 0 l 107 694 l 225 694 l 225 590 b 454 708 265 658 342 708 b 701 461 607 708 701 614 l 701 0 l 583 0 l 583 433 b 435 608 583 544 538 608 l 424 608 b 225 375 308 608 225 513 l 225 0 "},"o":{"ha":785,"x_min":0,"x_max":0,"o":"m 392 -14 b 64 347 207 -14 64 132 b 392 708 64 563 207 708 b 721 347 576 708 721 563 b 392 -14 721 132 576 -14 m 399 86 b 603 347 515 86 603 182 b 399 608 603 513 515 608 l 386 608 b 182 347 269 608 182 513 b 386 86 182 182 269 86 "},"ó":{"ha":785,"x_min":0,"x_max":0,"o":"m 350 788 l 428 972 l 557 972 l 433 788 m 392 -14 b 64 347 207 -14 64 132 b 392 708 64 563 207 708 b 721 347 576 708 721 563 b 392 -14 721 132 576 -14 m 399 86 b 603 347 515 86 603 182 b 399 608 603 513 515 608 l 386 608 b 182 347 269 608 182 513 b 386 86 182 182 269 86 "},"ŏ":{"ha":785,"x_min":0,"x_max":0,"o":"m 392 774 b 189 972 281 774 193 839 l 276 972 b 392 857 283 890 332 857 b 508 972 453 857 501 890 l 596 972 b 392 774 592 839 499 774 m 392 -14 b 64 347 207 -14 64 132 b 392 708 64 563 207 708 b 721 347 576 708 721 563 b 392 -14 721 132 576 -14 m 399 86 b 603 347 515 86 603 182 b 399 608 603 513 515 608 l 386 608 b 182 347 269 608 182 513 b 386 86 182 182 269 86 "},"ô":{"ha":785,"x_min":0,"x_max":0,"o":"m 393 892 l 253 788 l 161 788 l 331 972 l 454 972 l 624 788 l 531 788 m 392 708 b 721 347 576 708 721 563 b 392 -14 721 132 576 -14 b 64 347 207 -14 64 132 b 392 708 64 563 207 708 m 399 86 b 603 347 515 86 603 182 b 399 608 603 513 515 608 l 386 608 b 182 347 269 608 182 513 b 386 86 182 182 269 86 "},"ö":{"ha":785,"x_min":0,"x_max":0,"o":"m 200 819 l 200 954 l 328 954 l 328 819 m 457 819 l 457 954 l 585 954 l 585 819 m 392 -14 b 64 347 207 -14 64 132 b 392 708 64 563 207 708 b 721 347 576 708 721 563 b 392 -14 721 132 576 -14 m 399 86 b 603 347 515 86 603 182 b 399 608 603 513 515 608 l 386 608 b 182 347 269 608 182 513 b 386 86 182 182 269 86 "},"ò":{"ha":785,"x_min":0,"x_max":0,"o":"m 350 788 l 226 972 l 356 972 l 433 788 m 392 -14 b 64 347 207 -14 64 132 b 392 708 64 563 207 708 b 721 347 576 708 721 563 b 392 -14 721 132 576 -14 m 399 86 b 603 347 515 86 603 182 b 399 608 603 513 515 608 l 386 608 b 182 347 269 608 182 513 b 386 86 182 182 269 86 "},"ő":{"ha":785,"x_min":0,"x_max":0,"o":"m 225 788 l 303 972 l 432 972 l 308 788 m 446 788 l 524 972 l 653 972 l 529 788 m 392 -14 b 64 347 207 -14 64 132 b 392 708 64 563 207 708 b 721 347 576 708 721 563 b 392 -14 721 132 576 -14 m 399 86 b 603 347 515 86 603 182 b 399 608 603 513 515 608 l 386 608 b 182 347 269 608 182 513 b 386 86 182 182 269 86 "},"ō":{"ha":785,"x_min":0,"x_max":0,"o":"m 196 819 l 196 914 l 588 914 l 588 819 m 392 -14 b 64 347 207 -14 64 132 b 392 708 64 563 207 708 b 721 347 576 708 721 563 b 392 -14 721 132 576 -14 m 399 86 b 603 347 515 86 603 182 b 399 608 603 513 515 608 l 386 608 b 182 347 269 608 182 513 b 386 86 182 182 269 86 "},"ø":{"ha":792,"x_min":0,"x_max":0,"o":"m 643 593 b 725 347 694 531 725 446 b 396 -14 725 132 581 -14 b 218 39 331 -14 269 4 l 149 -53 l 74 10 l 146 106 b 68 347 97 167 68 250 b 396 708 68 563 211 708 b 569 658 460 708 519 690 l 638 747 l 718 690 m 186 347 b 217 197 186 288 197 238 l 507 578 b 403 608 478 597 442 608 l 390 608 b 186 347 274 608 186 513 m 403 86 b 607 347 519 86 607 182 b 574 501 607 408 594 461 l 281 119 b 390 86 313 97 350 86 "},"ǿ":{"ha":792,"x_min":0,"x_max":0,"o":"m 558 972 l 435 788 l 351 788 l 429 972 m 643 593 b 725 347 694 531 725 446 b 396 -14 725 132 581 -14 b 218 39 331 -14 269 4 l 149 -53 l 74 10 l 146 106 b 68 347 97 167 68 250 b 396 708 68 563 211 708 b 569 658 460 708 519 690 l 638 747 l 718 690 m 186 347 b 217 197 186 288 197 238 l 507 578 b 403 608 478 597 442 608 l 390 608 b 186 347 274 608 186 513 m 403 86 b 607 347 519 86 607 182 b 574 501 607 408 594 461 l 281 119 b 390 86 313 97 350 86 "},"õ":{"ha":785,"x_min":0,"x_max":0,"o":"m 506 774 b 388 821 465 774 431 793 l 350 846 b 288 868 329 860 311 868 b 238 788 256 868 238 843 l 149 788 l 149 822 b 279 963 149 901 201 963 b 390 922 318 963 356 946 l 426 899 b 496 868 450 883 472 868 b 546 949 528 868 546 894 l 633 949 l 633 914 b 506 774 633 835 581 774 m 392 -14 b 64 347 207 -14 64 132 b 392 708 64 563 207 708 b 721 347 576 708 721 563 b 392 -14 721 132 576 -14 m 399 86 b 603 347 515 86 603 182 b 399 608 603 513 515 608 l 386 608 b 182 347 269 608 182 513 b 386 86 182 182 269 86 "},"œ":{"ha":1279,"x_min":0,"x_max":0,"o":"m 392 -14 b 64 347 207 -14 64 132 b 392 708 64 563 207 708 b 660 565 504 708 600 654 b 922 708 719 661 819 708 b 1211 400 1099 708 1211 581 l 1211 331 l 721 331 b 924 86 728 160 829 86 l 933 86 b 1092 203 1010 86 1074 124 l 1210 203 b 925 -14 1185 61 1068 -14 b 660 129 817 -14 718 35 b 392 -14 600 40 504 -14 m 399 86 b 603 347 515 86 603 182 b 399 608 603 513 515 608 l 386 608 b 182 347 269 608 182 513 b 386 86 182 182 269 86 m 1093 426 b 928 608 1089 547 1017 608 l 915 608 b 728 426 838 608 750 564 "},"p":{"ha":822,"x_min":0,"x_max":0,"o":"m 107 -278 l 107 694 l 225 694 l 225 593 b 454 708 261 660 360 708 b 757 347 631 708 757 574 b 446 -14 757 121 621 -14 b 225 101 350 -14 261 35 l 225 -278 m 439 86 b 639 347 558 86 639 186 b 439 608 639 508 558 608 l 429 608 b 225 347 314 608 225 508 b 429 86 225 186 314 86 "},"þ":{"ha":822,"x_min":0,"x_max":0,"o":"m 107 -278 l 107 972 l 225 972 l 225 593 b 454 708 261 660 360 708 b 757 347 631 708 757 574 b 446 -14 757 121 621 -14 b 225 101 350 -14 261 35 l 225 -278 m 439 86 b 639 347 558 86 639 186 b 439 608 639 508 558 608 l 429 608 b 225 347 314 608 225 508 b 429 86 225 186 314 86 "},"q":{"ha":822,"x_min":0,"x_max":0,"o":"m 599 -278 l 599 101 b 378 -14 561 35 472 -14 b 65 347 201 -14 65 121 b 368 708 65 574 192 708 b 599 593 463 708 561 660 l 599 694 l 717 694 l 717 -278 m 393 86 b 599 347 510 86 599 186 b 393 608 599 508 510 608 l 383 608 b 185 347 264 608 185 508 b 383 86 185 186 264 86 "},"r":{"ha":514,"x_min":0,"x_max":0,"o":"m 107 0 l 107 694 l 218 694 l 218 540 b 424 701 247 646 332 701 l 486 701 l 486 589 l 431 589 b 225 347 303 589 225 497 l 225 0 "},"ŕ":{"ha":514,"x_min":0,"x_max":0,"o":"m 229 788 l 307 972 l 436 972 l 313 788 m 107 0 l 107 694 l 218 694 l 218 540 b 424 701 247 646 332 701 l 486 701 l 486 589 l 431 589 b 225 347 303 589 225 497 l 225 0 "},"ř":{"ha":514,"x_min":0,"x_max":0,"o":"m 333 788 l 210 788 l 40 972 l 132 972 l 272 868 l 410 972 l 503 972 m 218 540 b 424 701 247 646 332 701 l 486 701 l 486 589 l 431 589 b 225 347 303 589 225 497 l 225 0 l 107 0 l 107 694 l 218 694 "},"ŗ":{"ha":514,"x_min":0,"x_max":0,"o":"m 107 0 l 107 694 l 218 694 l 218 540 b 424 701 247 646 332 701 l 486 701 l 486 589 l 431 589 b 225 347 303 589 225 497 l 225 0 m 78 -379 l 78 -317 l 89 -317 b 161 -261 138 -317 161 -299 l 161 -253 l 106 -253 l 106 -125 l 224 -125 l 224 -261 b 96 -379 224 -329 175 -379 "},"s":{"ha":672,"x_min":0,"x_max":0,"o":"m 335 -14 b 53 213 153 -14 56 82 l 171 213 b 333 86 179 125 247 86 l 346 86 b 485 188 426 86 485 125 b 381 282 485 235 458 267 l 279 303 b 81 497 169 325 81 379 b 339 708 81 635 203 708 b 610 482 518 708 607 607 l 492 482 b 346 608 483 549 438 608 l 333 608 b 199 510 250 608 199 563 b 306 414 199 457 231 429 l 415 390 b 603 194 518 369 603 317 b 335 -14 603 67 493 -14 "},"ś":{"ha":672,"x_min":0,"x_max":0,"o":"m 292 788 l 369 972 l 499 972 l 375 788 m 335 -14 b 53 213 153 -14 56 82 l 171 213 b 333 86 179 125 247 86 l 346 86 b 485 188 426 86 485 125 b 381 282 485 235 458 267 l 279 303 b 81 497 169 325 81 379 b 339 708 81 635 203 708 b 610 482 518 708 607 607 l 492 482 b 346 608 483 549 438 608 l 333 608 b 199 510 250 608 199 563 b 306 414 199 457 231 429 l 415 390 b 603 194 518 369 603 317 b 335 -14 603 67 493 -14 "},"š":{"ha":672,"x_min":0,"x_max":0,"o":"m 396 788 l 272 788 l 103 972 l 194 972 l 335 868 l 472 972 l 565 972 m 415 390 b 603 194 518 369 603 317 b 335 -14 603 67 493 -14 b 53 213 153 -14 56 82 l 171 213 b 333 86 179 125 247 86 l 346 86 b 485 188 426 86 485 125 b 381 282 485 235 458 267 l 279 303 b 81 497 169 325 81 379 b 339 708 81 635 203 708 b 610 482 518 708 607 607 l 492 482 b 346 608 483 549 438 608 l 333 608 b 199 510 250 608 199 563 b 306 414 199 457 231 429 "},"ş":{"ha":672,"x_min":0,"x_max":0,"o":"m 415 390 b 603 194 518 369 603 317 b 372 -12 603 76 510 0 l 372 -62 b 490 -183 440 -65 490 -112 b 338 -322 490 -267 426 -322 l 251 -322 l 251 -236 l 338 -236 b 407 -182 383 -236 407 -215 b 342 -126 407 -146 381 -126 l 300 -126 l 300 -12 b 53 213 140 -1 56 90 l 171 213 b 333 86 179 125 247 86 l 346 86 b 485 188 426 86 485 125 b 381 282 485 235 458 267 l 279 303 b 81 497 169 325 81 379 b 339 708 81 635 203 708 b 610 482 518 708 607 607 l 492 482 b 346 608 483 549 438 608 l 333 608 b 199 510 250 608 199 563 b 306 414 199 457 231 429 "},"ŝ":{"ha":672,"x_min":0,"x_max":0,"o":"m 335 892 l 194 788 l 103 788 l 272 972 l 396 972 l 565 788 l 472 788 m 415 390 b 603 194 518 369 603 317 b 335 -14 603 67 493 -14 b 53 213 153 -14 56 82 l 171 213 b 333 86 179 125 247 86 l 346 86 b 485 188 426 86 485 125 b 381 282 485 235 458 267 l 279 303 b 81 497 169 325 81 379 b 339 708 81 635 203 708 b 610 482 518 708 607 607 l 492 482 b 346 608 483 549 438 608 l 333 608 b 199 510 250 608 199 563 b 306 414 199 457 231 429 "},"ș":{"ha":672,"x_min":0,"x_max":0,"o":"m 335 -14 b 53 213 153 -14 56 82 l 171 213 b 333 86 179 125 247 86 l 346 86 b 485 188 426 86 485 125 b 381 282 485 235 458 267 l 279 303 b 81 497 169 325 81 379 b 339 708 81 635 203 708 b 610 482 518 708 607 607 l 492 482 b 346 608 483 549 438 608 l 333 608 b 199 510 250 608 199 563 b 306 414 199 457 231 429 l 415 390 b 603 194 518 369 603 317 b 335 -14 603 67 493 -14 m 249 -379 l 249 -317 l 261 -317 b 332 -261 308 -317 332 -299 l 332 -253 l 276 -253 l 276 -125 l 394 -125 l 394 -261 b 268 -379 394 -329 347 -379 "},"ß":{"ha":758,"x_min":0,"x_max":0,"o":"m 107 -257 l 107 697 b 390 986 107 867 213 986 b 660 738 561 986 660 874 b 511 521 660 617 579 540 b 694 282 588 511 694 428 b 390 0 694 107 576 0 l 315 0 l 315 107 l 381 107 b 576 285 513 107 576 182 b 385 464 576 400 486 464 l 315 464 l 315 564 l 375 564 b 546 729 482 564 546 647 b 397 886 546 818 486 886 l 383 886 b 225 690 297 886 225 829 l 225 -257 "},"t":{"ha":521,"x_min":0,"x_max":0,"o":"m 324 0 b 178 143 229 0 178 49 l 178 593 l 22 593 l 22 694 l 178 694 l 178 919 l 296 919 l 296 694 l 465 694 l 465 593 l 296 593 l 296 160 b 351 104 296 118 310 104 l 486 104 l 486 0 "},"ŧ":{"ha":542,"x_min":0,"x_max":0,"o":"m 501 104 l 501 0 l 339 0 b 193 143 244 0 193 49 l 193 344 l 38 344 l 38 439 l 193 439 l 193 593 l 38 593 l 38 694 l 193 694 l 193 919 l 311 919 l 311 694 l 481 694 l 481 593 l 311 593 l 311 439 l 481 439 l 481 344 l 311 344 l 311 160 b 367 104 311 118 325 104 "},"ť":{"ha":521,"x_min":0,"x_max":0,"o":"m 422 754 l 422 817 l 433 817 b 506 872 482 817 506 835 l 506 882 l 450 882 l 450 1010 l 568 1010 l 568 872 b 440 754 568 806 521 754 m 324 0 b 178 143 229 0 178 49 l 178 593 l 22 593 l 22 694 l 178 694 l 178 919 l 296 919 l 296 694 l 465 694 l 465 593 l 296 593 l 296 160 b 351 104 296 118 310 104 l 486 104 l 486 0 "},"ţ":{"ha":521,"x_min":0,"x_max":0,"o":"m 486 0 l 335 0 l 335 -62 b 453 -183 403 -65 453 -112 b 300 -322 453 -267 389 -322 l 214 -322 l 214 -236 l 300 -236 b 369 -182 346 -236 369 -215 b 304 -126 369 -146 343 -126 l 263 -126 l 263 8 b 178 143 207 26 178 72 l 178 593 l 22 593 l 22 694 l 178 694 l 178 919 l 296 919 l 296 694 l 465 694 l 465 593 l 296 593 l 296 160 b 351 104 296 118 310 104 l 486 104 "},"ț":{"ha":521,"x_min":0,"x_max":0,"o":"m 324 0 b 178 143 229 0 178 49 l 178 593 l 22 593 l 22 694 l 178 694 l 178 919 l 296 919 l 296 694 l 465 694 l 465 593 l 296 593 l 296 160 b 351 104 296 118 310 104 l 486 104 l 486 0 m 211 -379 l 211 -317 l 224 -317 b 294 -261 271 -317 294 -299 l 294 -253 l 239 -253 l 239 -125 l 357 -125 l 357 -261 b 231 -379 357 -329 310 -379 "},"u":{"ha":788,"x_min":0,"x_max":0,"o":"m 338 -14 b 100 236 182 -14 100 90 l 100 694 l 218 694 l 218 264 b 367 86 218 146 267 86 l 379 86 b 563 319 472 86 563 174 l 563 694 l 681 694 l 681 0 l 563 0 l 563 132 b 338 -14 533 50 456 -14 "},"ú":{"ha":788,"x_min":0,"x_max":0,"o":"m 347 788 l 425 972 l 554 972 l 431 788 m 338 -14 b 100 236 182 -14 100 90 l 100 694 l 218 694 l 218 264 b 367 86 218 146 267 86 l 379 86 b 563 319 472 86 563 174 l 563 694 l 681 694 l 681 0 l 563 0 l 563 132 b 338 -14 533 50 456 -14 "},"ŭ":{"ha":788,"x_min":0,"x_max":0,"o":"m 389 774 b 186 972 278 774 190 839 l 274 972 b 389 857 281 890 329 857 b 506 972 450 857 499 890 l 593 972 b 389 774 589 839 496 774 m 338 -14 b 100 236 182 -14 100 90 l 100 694 l 218 694 l 218 264 b 367 86 218 146 267 86 l 379 86 b 563 319 472 86 563 174 l 563 694 l 681 694 l 681 0 l 563 0 l 563 132 b 338 -14 533 50 456 -14 "},"û":{"ha":788,"x_min":0,"x_max":0,"o":"m 390 892 l 250 788 l 158 788 l 328 972 l 451 972 l 621 788 l 528 788 m 563 694 l 681 694 l 681 0 l 563 0 l 563 132 b 338 -14 533 50 456 -14 b 100 236 182 -14 100 90 l 100 694 l 218 694 l 218 264 b 367 86 218 146 267 86 l 379 86 b 563 319 472 86 563 174 "},"ü":{"ha":788,"x_min":0,"x_max":0,"o":"m 197 819 l 197 954 l 325 954 l 325 819 m 454 819 l 454 954 l 582 954 l 582 819 m 338 -14 b 100 236 182 -14 100 90 l 100 694 l 218 694 l 218 264 b 367 86 218 146 267 86 l 379 86 b 563 319 472 86 563 174 l 563 694 l 681 694 l 681 0 l 563 0 l 563 132 b 338 -14 533 50 456 -14 "},"ù":{"ha":788,"x_min":0,"x_max":0,"o":"m 347 788 l 224 972 l 353 972 l 431 788 m 338 -14 b 100 236 182 -14 100 90 l 100 694 l 218 694 l 218 264 b 367 86 218 146 267 86 l 379 86 b 563 319 472 86 563 174 l 563 694 l 681 694 l 681 0 l 563 0 l 563 132 b 338 -14 533 50 456 -14 "},"ű":{"ha":788,"x_min":0,"x_max":0,"o":"m 222 788 l 300 972 l 429 972 l 306 788 m 443 788 l 521 972 l 650 972 l 526 788 m 338 -14 b 100 236 182 -14 100 90 l 100 694 l 218 694 l 218 264 b 367 86 218 146 267 86 l 379 86 b 563 319 472 86 563 174 l 563 694 l 681 694 l 681 0 l 563 0 l 563 132 b 338 -14 533 50 456 -14 "},"ū":{"ha":788,"x_min":0,"x_max":0,"o":"m 193 819 l 193 914 l 585 914 l 585 819 m 338 -14 b 100 236 182 -14 100 90 l 100 694 l 218 694 l 218 264 b 367 86 218 146 267 86 l 379 86 b 563 319 472 86 563 174 l 563 694 l 681 694 l 681 0 l 563 0 l 563 132 b 338 -14 533 50 456 -14 "},"ų":{"ha":788,"x_min":0,"x_max":0,"o":"m 681 0 b 561 -137 621 -36 561 -81 b 644 -194 561 -182 601 -194 l 671 -194 l 671 -281 l 621 -281 b 471 -162 526 -281 471 -232 b 586 0 471 -83 533 -29 l 563 0 l 563 132 b 338 -14 533 50 456 -14 b 100 236 182 -14 100 90 l 100 694 l 218 694 l 218 264 b 367 86 218 146 267 86 l 379 86 b 563 319 472 86 563 174 l 563 694 l 681 694 "},"ů":{"ha":788,"x_min":0,"x_max":0,"o":"m 389 775 b 261 901 322 775 261 829 b 389 1028 261 974 322 1028 b 517 901 456 1028 517 974 b 389 775 517 829 456 775 m 390 840 b 450 901 424 840 450 868 b 390 963 450 935 424 963 b 329 901 357 963 329 935 b 390 840 329 868 357 840 m 338 -14 b 100 236 182 -14 100 90 l 100 694 l 218 694 l 218 264 b 367 86 218 146 267 86 l 379 86 b 563 319 472 86 563 174 l 563 694 l 681 694 l 681 0 l 563 0 l 563 132 b 338 -14 533 50 456 -14 "},"ũ":{"ha":788,"x_min":0,"x_max":0,"o":"m 503 774 b 385 821 463 774 428 793 l 347 846 b 285 868 326 860 308 868 b 235 788 253 868 235 843 l 146 788 l 146 822 b 276 963 146 901 199 963 b 388 922 315 963 353 946 l 424 899 b 493 868 447 883 469 868 b 543 949 525 868 543 894 l 631 949 l 631 914 b 503 774 631 835 578 774 m 338 -14 b 100 236 182 -14 100 90 l 100 694 l 218 694 l 218 264 b 367 86 218 146 267 86 l 379 86 b 563 319 472 86 563 174 l 563 694 l 681 694 l 681 0 l 563 0 l 563 132 b 338 -14 533 50 456 -14 "},"v":{"ha":711,"x_min":0,"x_max":0,"o":"m 567 694 l 688 694 l 428 0 l 283 0 l 24 694 l 146 694 l 357 114 "},"w":{"ha":1076,"x_min":0,"x_max":0,"o":"m 925 694 l 1047 694 l 831 0 l 693 0 l 539 561 l 385 0 l 247 0 l 29 694 l 153 694 l 319 124 l 474 694 l 604 694 l 765 121 "},"ẃ":{"ha":1076,"x_min":0,"x_max":0,"o":"m 704 972 l 579 788 l 497 788 l 574 972 m 925 694 l 1047 694 l 831 0 l 693 0 l 539 561 l 385 0 l 247 0 l 29 694 l 153 694 l 319 124 l 474 694 l 604 694 l 765 121 "},"ŵ":{"ha":1076,"x_min":0,"x_max":0,"o":"m 540 892 l 400 788 l 307 788 l 478 972 l 600 972 l 771 788 l 678 788 m 925 694 l 1047 694 l 831 0 l 693 0 l 539 561 l 385 0 l 247 0 l 29 694 l 153 694 l 319 124 l 474 694 l 604 694 l 765 121 "},"ẅ":{"ha":1076,"x_min":0,"x_max":0,"o":"m 474 954 l 474 819 l 347 819 l 347 954 m 731 954 l 731 819 l 604 819 l 604 954 m 925 694 l 1047 694 l 831 0 l 693 0 l 539 561 l 385 0 l 247 0 l 29 694 l 153 694 l 319 124 l 474 694 l 604 694 l 765 121 "},"ẁ":{"ha":1076,"x_min":0,"x_max":0,"o":"m 579 788 l 497 788 l 372 972 l 503 972 m 925 694 l 1047 694 l 831 0 l 693 0 l 539 561 l 385 0 l 247 0 l 29 694 l 153 694 l 319 124 l 474 694 l 604 694 l 765 121 "},"x":{"ha":707,"x_min":0,"x_max":0,"o":"m 25 0 l 286 351 l 33 694 l 171 694 l 356 444 l 540 694 l 675 694 l 422 354 l 682 0 l 544 0 l 353 261 l 158 0 "},"y":{"ha":738,"x_min":0,"x_max":0,"o":"m 721 694 l 435 18 l 435 -110 b 294 -247 435 -203 389 -247 l 71 -247 l 71 -143 l 267 -143 b 322 -87 308 -143 322 -129 l 322 14 l 29 694 l 156 694 l 379 167 l 599 694 "},"ý":{"ha":738,"x_min":0,"x_max":0,"o":"m 542 972 l 418 788 l 335 788 l 413 972 m 721 694 l 435 18 l 435 -110 b 294 -247 435 -203 389 -247 l 71 -247 l 71 -143 l 267 -143 b 322 -87 308 -143 322 -129 l 322 14 l 29 694 l 156 694 l 379 167 l 599 694 "},"ŷ":{"ha":738,"x_min":0,"x_max":0,"o":"m 378 892 l 238 788 l 146 788 l 315 972 l 439 972 l 608 788 l 515 788 m 721 694 l 435 18 l 435 -110 b 294 -247 435 -203 389 -247 l 71 -247 l 71 -143 l 267 -143 b 322 -87 308 -143 322 -129 l 322 14 l 29 694 l 156 694 l 379 167 l 599 694 "},"ÿ":{"ha":738,"x_min":0,"x_max":0,"o":"m 313 954 l 313 819 l 185 819 l 185 954 m 569 954 l 569 819 l 442 819 l 442 954 m 721 694 l 435 18 l 435 -110 b 294 -247 435 -203 389 -247 l 71 -247 l 71 -143 l 267 -143 b 322 -87 308 -143 322 -129 l 322 14 l 29 694 l 156 694 l 379 167 l 599 694 "},"ỳ":{"ha":738,"x_min":0,"x_max":0,"o":"m 418 788 l 335 788 l 211 972 l 340 972 m 721 694 l 435 18 l 435 -110 b 294 -247 435 -203 389 -247 l 71 -247 l 71 -143 l 267 -143 b 322 -87 308 -143 322 -129 l 322 14 l 29 694 l 156 694 l 379 167 l 599 694 "},"ȳ":{"ha":738,"x_min":0,"x_max":0,"o":"m 572 914 l 572 819 l 181 819 l 181 914 m 721 694 l 435 18 l 435 -110 b 294 -247 435 -203 389 -247 l 71 -247 l 71 -143 l 267 -143 b 322 -87 308 -143 322 -129 l 322 14 l 29 694 l 156 694 l 379 167 l 599 694 "},"z":{"ha":676,"x_min":0,"x_max":0,"o":"m 194 101 l 625 101 l 625 0 l 58 0 l 58 107 l 467 593 l 65 593 l 65 694 l 604 694 l 604 589 "},"ź":{"ha":676,"x_min":0,"x_max":0,"o":"m 506 972 l 382 788 l 299 788 l 376 972 m 194 101 l 625 101 l 625 0 l 58 0 l 58 107 l 467 593 l 65 593 l 65 694 l 604 694 l 604 589 "},"ž":{"ha":676,"x_min":0,"x_max":0,"o":"m 403 788 l 279 788 l 110 972 l 203 972 l 342 868 l 481 972 l 572 972 m 194 101 l 625 101 l 625 0 l 58 0 l 58 107 l 467 593 l 65 593 l 65 694 l 604 694 l 604 589 "},"ż":{"ha":676,"x_min":0,"x_max":0,"o":"m 407 961 l 407 819 l 275 819 l 275 961 m 194 101 l 625 101 l 625 0 l 58 0 l 58 107 l 467 593 l 65 593 l 65 694 l 604 694 l 604 589 "},"ﬁ":{"ha":876,"x_min":0,"x_max":0,"o":"m 186 0 l 186 593 l 31 593 l 31 694 l 186 694 l 186 833 b 328 972 186 928 232 972 l 515 972 l 515 869 l 360 869 b 304 814 318 869 304 856 l 304 694 l 769 694 l 769 0 l 651 0 l 651 593 l 304 593 l 304 0 m 644 819 l 644 961 l 776 961 l 776 819 "},"ﬂ":{"ha":876,"x_min":0,"x_max":0,"o":"m 186 0 l 186 593 l 31 593 l 31 694 l 186 694 l 186 833 b 328 972 186 928 232 972 l 769 972 l 769 0 l 651 0 l 651 869 l 360 869 b 304 814 318 869 304 856 l 304 694 l 481 694 l 481 593 l 304 593 l 304 0 "},"ª":{"ha":507,"x_min":0,"x_max":0,"o":"m 200 569 b 74 688 129 569 74 614 b 203 810 74 765 129 801 l 324 824 l 324 836 b 247 904 324 885 289 904 l 243 904 b 172 847 208 904 175 888 l 81 847 b 247 979 85 935 161 979 b 413 838 335 979 413 928 l 413 664 b 417 576 413 635 413 606 l 336 576 b 329 644 332 597 329 624 b 200 569 311 593 257 569 m 225 644 b 324 731 276 644 324 672 l 324 763 l 225 751 b 167 693 194 749 167 726 b 221 644 167 663 192 644 "},"º":{"ha":514,"x_min":0,"x_max":0,"o":"m 257 569 b 67 774 142 569 67 649 b 257 979 67 899 142 979 b 447 774 372 979 447 899 b 257 569 447 649 372 569 m 263 647 b 351 774 318 647 351 700 b 261 901 351 847 317 901 l 253 901 b 163 774 197 901 163 846 b 253 647 163 701 197 647 "},"Δ":{"ha":958,"x_min":0,"x_max":0,"o":"m 557 972 l 935 56 l 935 0 l 24 0 l 24 56 l 406 972 m 479 846 l 175 114 l 781 114 "},"Ω":{"ha":1078,"x_min":0,"x_max":0,"o":"m 93 0 l 93 114 l 275 114 b 86 503 161 201 86 329 b 539 986 86 772 265 986 b 992 503 813 986 993 772 b 803 114 992 329 917 201 l 985 114 l 985 0 l 642 0 l 642 113 b 867 496 779 199 867 318 b 546 872 868 715 736 872 l 532 872 b 211 496 342 872 211 715 b 436 113 211 318 299 199 l 436 0 "},"μ":{"ha":819,"x_min":0,"x_max":0,"o":"m 776 100 l 776 0 l 706 0 b 574 115 621 0 574 40 l 574 122 b 372 -14 533 29 463 -14 b 225 53 314 -14 253 10 l 225 -278 l 107 -278 l 107 694 l 225 694 l 225 265 b 372 86 225 149 275 86 l 385 86 b 568 315 479 86 568 176 l 568 694 l 686 694 l 686 167 b 747 100 686 118 700 100 "},"π":{"ha":821,"x_min":0,"x_max":0,"o":"m 142 0 l 142 594 l 51 594 l 51 694 l 756 694 l 756 594 l 665 594 l 665 163 b 724 104 665 117 679 104 l 747 104 l 747 0 l 696 0 b 547 146 589 0 547 57 l 547 594 l 260 594 l 260 0 "},"⓿":{"ha":1222,"x_min":0,"x_max":0,"o":"m 611 -56 b 69 486 314 -56 69 189 b 611 1028 69 785 314 1028 b 1153 486 910 1028 1153 785 b 611 -56 1153 189 910 -56 m 615 207 b 846 489 758 207 846 319 b 615 769 846 657 758 769 b 383 489 471 769 383 657 b 615 207 383 319 471 207 m 613 289 b 481 489 524 289 481 390 b 613 688 481 586 524 688 l 618 688 b 749 489 707 688 749 586 b 618 289 749 390 707 289 "},"❶":{"ha":1222,"x_min":0,"x_max":0,"o":"m 611 -56 b 69 486 314 -56 69 189 b 611 1028 69 785 314 1028 b 1153 486 910 1028 1153 785 b 611 -56 1153 189 910 -56 m 596 215 l 689 215 l 689 764 l 619 764 l 435 613 l 435 507 l 596 639 "},"❷":{"ha":1222,"x_min":0,"x_max":0,"o":"m 611 -56 b 69 486 314 -56 69 189 b 611 1028 69 785 314 1028 b 1153 486 910 1028 1153 785 b 611 -56 1153 189 910 -56 m 422 215 l 804 215 l 804 300 l 526 300 l 678 429 b 799 611 739 481 799 529 b 617 771 799 713 717 771 b 424 601 513 771 426 707 l 522 601 b 610 686 525 657 567 686 l 617 686 b 701 613 664 686 700 658 b 603 479 703 564 658 528 l 422 322 "},"❸":{"ha":1222,"x_min":0,"x_max":0,"o":"m 611 -56 b 69 486 314 -56 69 189 b 611 1028 69 785 314 1028 b 1153 486 910 1028 1153 785 b 611 -56 1153 189 910 -56 m 607 208 b 807 364 708 208 807 261 b 718 493 807 431 764 472 b 803 618 769 514 803 560 b 614 771 803 719 714 771 b 422 614 511 771 422 718 l 521 614 b 607 689 521 658 557 689 l 614 689 b 704 610 665 689 704 660 b 625 535 704 563 671 535 l 565 535 l 565 451 l 622 451 b 708 374 671 451 708 424 b 610 290 708 319 664 290 l 603 290 b 513 371 551 290 513 322 l 414 371 b 607 208 414 267 506 208 "},"❹":{"ha":1222,"x_min":0,"x_max":0,"o":"m 611 -56 b 69 486 314 -56 69 189 b 611 1028 69 785 314 1028 b 1153 486 910 1028 1153 785 b 611 -56 1153 189 910 -56 m 633 215 l 725 215 l 725 342 l 803 342 l 803 422 l 725 422 l 725 764 l 625 764 l 374 426 l 374 342 l 633 342 m 467 422 l 633 650 l 633 422 "},"❺":{"ha":1222,"x_min":0,"x_max":0,"o":"m 611 -56 b 69 486 314 -56 69 189 b 611 1028 69 785 314 1028 b 1153 486 910 1028 1153 785 b 611 -56 1153 189 910 -56 m 597 208 b 797 393 708 208 797 279 b 632 560 797 488 729 560 b 524 519 592 560 551 544 l 557 682 l 792 682 l 792 764 l 485 764 l 422 439 l 513 439 b 601 478 529 456 560 478 l 606 478 b 699 390 658 478 699 444 b 601 290 699 331 658 290 l 596 290 b 499 365 547 290 504 314 l 397 365 b 597 208 408 263 492 208 "},"❻":{"ha":1222,"x_min":0,"x_max":0,"o":"m 611 -56 b 69 486 314 -56 69 189 b 611 1028 69 785 314 1028 b 1153 486 910 1028 1153 785 b 611 -56 1153 189 910 -56 m 597 208 b 803 401 728 208 803 297 b 624 583 803 514 719 583 b 478 506 557 583 500 550 b 619 688 486 618 549 688 l 628 688 b 715 617 674 688 707 660 l 811 617 b 628 771 811 692 751 771 b 389 474 489 771 389 657 b 597 208 389 307 471 208 m 597 290 b 496 396 540 290 496 335 b 600 501 496 458 543 501 l 604 501 b 707 396 664 501 707 456 b 601 290 707 335 663 290 "},"❼":{"ha":1222,"x_min":0,"x_max":0,"o":"m 611 -56 b 69 486 314 -56 69 189 b 611 1028 69 785 314 1028 b 1153 486 910 1028 1153 785 b 611 -56 1153 189 910 -56 m 521 215 l 619 215 l 619 265 b 808 678 619 489 728 608 l 808 764 l 431 764 l 431 682 l 717 682 b 521 265 629 618 521 499 "},"❽":{"ha":1222,"x_min":0,"x_max":0,"o":"m 611 -56 b 69 486 314 -56 69 189 b 611 1028 69 785 314 1028 b 1153 486 910 1028 1153 785 b 611 -56 1153 189 910 -56 m 608 208 b 799 356 707 208 799 257 b 707 485 799 417 760 461 b 811 618 767 510 811 554 b 610 771 811 715 725 771 b 410 618 494 771 410 715 b 518 485 410 554 457 508 b 419 356 461 461 419 419 b 608 208 419 257 510 208 m 606 533 b 506 611 556 533 506 560 b 607 689 506 663 553 689 l 614 689 b 715 611 668 689 715 663 b 613 533 715 560 665 533 m 606 290 b 515 368 557 290 515 318 b 606 447 515 415 557 447 l 613 447 b 703 368 661 447 703 415 b 613 290 703 318 661 290 "},"❾":{"ha":1222,"x_min":0,"x_max":0,"o":"m 611 -56 b 69 486 314 -56 69 189 b 611 1028 69 785 314 1028 b 1153 486 910 1028 1153 785 b 611 -56 1153 189 910 -56 m 593 208 b 832 506 732 208 832 322 b 624 771 832 672 750 771 b 418 578 493 771 418 682 b 597 396 418 465 501 396 b 743 474 664 396 721 429 b 601 292 735 361 672 292 l 593 292 b 506 363 547 292 514 319 l 410 363 b 593 208 410 288 469 208 m 617 478 b 514 583 557 478 514 524 b 619 689 514 644 558 689 l 624 689 b 725 583 681 689 725 644 b 621 478 725 521 678 478 "},"⓪":{"ha":1222,"x_min":0,"x_max":0,"o":"m 611 -56 b 69 486 314 -56 69 189 b 611 1028 69 785 314 1028 b 1153 486 910 1028 1153 785 b 611 -56 1153 189 910 -56 m 611 38 b 1060 486 858 38 1060 239 b 611 935 1060 733 858 935 b 163 486 364 935 163 733 b 611 38 163 239 364 38 m 615 207 b 383 489 471 207 383 319 b 615 769 383 657 471 769 b 846 489 758 769 846 657 b 615 207 846 319 758 207 m 618 289 b 749 489 707 289 749 390 b 618 688 749 586 707 688 l 613 688 b 481 489 524 688 481 586 b 613 289 481 390 524 289 "},"①":{"ha":1222,"x_min":0,"x_max":0,"o":"m 611 -56 b 69 486 314 -56 69 189 b 611 1028 69 785 314 1028 b 1153 486 910 1028 1153 785 b 611 -56 1153 189 910 -56 m 611 38 b 1060 486 858 38 1060 239 b 611 935 1060 733 858 935 b 163 486 364 935 163 733 b 611 38 163 239 364 38 m 596 215 l 596 639 l 435 507 l 435 613 l 619 764 l 689 764 l 689 215 "},"②":{"ha":1222,"x_min":0,"x_max":0,"o":"m 611 -56 b 69 486 314 -56 69 189 b 611 1028 69 785 314 1028 b 1153 486 910 1028 1153 785 b 611 -56 1153 189 910 -56 m 611 38 b 1060 486 858 38 1060 239 b 611 935 1060 733 858 935 b 163 486 364 935 163 733 b 611 38 163 239 364 38 m 422 215 l 422 322 l 603 479 b 701 613 658 528 703 564 b 617 686 700 658 664 686 l 610 686 b 522 601 567 686 525 657 l 424 601 b 617 771 426 707 513 771 b 799 611 717 771 799 713 b 678 429 799 529 739 481 l 526 300 l 804 300 l 804 215 "},"③":{"ha":1222,"x_min":0,"x_max":0,"o":"m 611 -56 b 69 486 314 -56 69 189 b 611 1028 69 785 314 1028 b 1153 486 910 1028 1153 785 b 611 -56 1153 189 910 -56 m 611 38 b 1060 486 858 38 1060 239 b 611 935 1060 733 858 935 b 163 486 364 935 163 733 b 611 38 163 239 364 38 m 607 208 b 414 371 506 208 414 267 l 513 371 b 603 290 513 322 551 290 l 610 290 b 708 374 664 290 708 319 b 622 451 708 424 671 451 l 565 451 l 565 535 l 625 535 b 704 610 671 535 704 563 b 614 689 704 660 665 689 l 607 689 b 521 614 557 689 521 658 l 422 614 b 614 771 422 718 511 771 b 803 618 714 771 803 719 b 718 493 803 560 769 514 b 807 364 764 472 807 431 b 607 208 807 261 708 208 "},"④":{"ha":1222,"x_min":0,"x_max":0,"o":"m 611 -56 b 69 486 314 -56 69 189 b 611 1028 69 785 314 1028 b 1153 486 910 1028 1153 785 b 611 -56 1153 189 910 -56 m 611 38 b 1060 486 858 38 1060 239 b 611 935 1060 733 858 935 b 163 486 364 935 163 733 b 611 38 163 239 364 38 m 633 215 l 633 342 l 374 342 l 374 426 l 625 764 l 725 764 l 725 422 l 803 422 l 803 342 l 725 342 l 725 215 m 467 422 l 633 422 l 633 650 "},"⑤":{"ha":1222,"x_min":0,"x_max":0,"o":"m 611 -56 b 69 486 314 -56 69 189 b 611 1028 69 785 314 1028 b 1153 486 910 1028 1153 785 b 611 -56 1153 189 910 -56 m 611 38 b 1060 486 858 38 1060 239 b 611 935 1060 733 858 935 b 163 486 364 935 163 733 b 611 38 163 239 364 38 m 597 208 b 397 365 492 208 408 263 l 499 365 b 596 290 504 314 547 290 l 601 290 b 699 390 658 290 699 331 b 606 478 699 444 658 478 l 601 478 b 513 439 560 478 529 456 l 422 439 l 485 764 l 792 764 l 792 682 l 557 682 l 524 519 b 632 560 551 544 592 560 b 797 393 729 560 797 488 b 597 208 797 279 708 208 "},"⑥":{"ha":1222,"x_min":0,"x_max":0,"o":"m 611 -56 b 69 486 314 -56 69 189 b 611 1028 69 785 314 1028 b 1153 486 910 1028 1153 785 b 611 -56 1153 189 910 -56 m 611 38 b 1060 486 858 38 1060 239 b 611 935 1060 733 858 935 b 163 486 364 935 163 733 b 611 38 163 239 364 38 m 597 208 b 389 474 471 208 389 307 b 628 771 389 657 489 771 b 811 617 751 771 811 692 l 715 617 b 628 688 707 660 674 688 l 619 688 b 478 506 549 688 486 618 b 624 583 500 550 557 583 b 803 401 719 583 803 514 b 597 208 803 297 728 208 m 601 290 b 707 396 663 290 707 335 b 604 501 707 456 664 501 l 600 501 b 496 396 543 501 496 458 b 597 290 496 335 540 290 "},"⑦":{"ha":1222,"x_min":0,"x_max":0,"o":"m 611 -56 b 69 486 314 -56 69 189 b 611 1028 69 785 314 1028 b 1153 486 910 1028 1153 785 b 611 -56 1153 189 910 -56 m 611 38 b 1060 486 858 38 1060 239 b 611 935 1060 733 858 935 b 163 486 364 935 163 733 b 611 38 163 239 364 38 m 521 215 l 521 265 b 717 682 521 499 629 618 l 431 682 l 431 764 l 808 764 l 808 678 b 619 265 728 608 619 489 l 619 215 "},"⑧":{"ha":1222,"x_min":0,"x_max":0,"o":"m 611 -56 b 69 486 314 -56 69 189 b 611 1028 69 785 314 1028 b 1153 486 910 1028 1153 785 b 611 -56 1153 189 910 -56 m 611 38 b 1060 486 858 38 1060 239 b 611 935 1060 733 858 935 b 163 486 364 935 163 733 b 611 38 163 239 364 38 m 608 208 b 419 356 510 208 419 257 b 518 485 419 419 461 461 b 410 618 457 508 410 554 b 610 771 410 715 494 771 b 811 618 725 771 811 715 b 707 485 811 554 767 510 b 799 356 760 461 799 417 b 608 208 799 257 707 208 m 613 533 b 715 611 665 533 715 560 b 614 689 715 663 668 689 l 607 689 b 506 611 553 689 506 663 b 606 533 506 560 556 533 m 613 290 b 703 368 661 290 703 318 b 613 447 703 415 661 447 l 606 447 b 515 368 557 447 515 415 b 606 290 515 318 557 290 "},"⑨":{"ha":1222,"x_min":0,"x_max":0,"o":"m 611 -56 b 69 486 314 -56 69 189 b 611 1028 69 785 314 1028 b 1153 486 910 1028 1153 785 b 611 -56 1153 189 910 -56 m 611 38 b 1060 486 858 38 1060 239 b 611 935 1060 733 858 935 b 163 486 364 935 163 733 b 611 38 163 239 364 38 m 593 208 b 410 363 469 208 410 288 l 506 363 b 593 292 514 319 547 292 l 601 292 b 743 474 672 292 735 361 b 597 396 721 429 664 396 b 418 578 501 396 418 465 b 624 771 418 682 493 771 b 832 506 750 771 832 672 b 593 208 832 322 732 208 m 621 478 b 725 583 678 478 725 521 b 624 689 725 644 681 689 l 619 689 b 514 583 558 689 514 644 b 617 478 514 524 557 478 "},"⁰":{"ha":564,"x_min":0,"x_max":0,"o":"m 282 569 b 50 851 138 569 50 682 b 282 1132 50 1019 138 1132 b 514 851 426 1132 514 1019 b 282 569 514 682 426 569 m 285 651 b 415 851 374 651 415 753 b 285 1050 415 949 374 1050 l 279 1050 b 149 851 190 1050 149 949 b 279 651 149 753 190 651 "},"¹":{"ha":368,"x_min":0,"x_max":0,"o":"m 192 576 l 192 1000 l 32 868 l 32 974 l 217 1125 l 286 1125 l 286 576 "},"²":{"ha":486,"x_min":0,"x_max":0,"o":"m 51 576 l 51 683 l 232 840 b 331 974 289 889 332 925 b 246 1047 331 1019 293 1047 l 239 1047 b 151 963 197 1047 154 1018 l 54 963 b 246 1132 57 1068 142 1132 b 429 972 347 1132 429 1074 b 308 790 429 890 368 842 l 157 661 l 435 661 l 435 576 "},"³":{"ha":493,"x_min":0,"x_max":0,"o":"m 239 569 b 46 732 136 569 46 628 l 143 732 b 235 651 144 683 183 651 l 242 651 b 340 735 294 651 340 681 b 254 813 340 785 303 813 l 197 813 l 197 896 l 257 896 b 336 971 303 896 336 924 b 246 1050 336 1021 297 1050 l 239 1050 b 151 975 189 1050 153 1019 l 54 975 b 246 1132 54 1079 143 1132 b 433 979 346 1132 433 1081 b 350 854 433 921 400 875 b 438 725 394 833 438 792 b 239 569 438 622 340 569 "},"⁴":{"ha":500,"x_min":0,"x_max":0,"o":"m 290 576 l 290 703 l 31 703 l 31 788 l 282 1125 l 382 1125 l 382 783 l 460 783 l 460 703 l 382 703 l 382 576 m 124 783 l 290 783 l 290 1011 "},"⁵":{"ha":485,"x_min":0,"x_max":0,"o":"m 235 569 b 35 726 129 569 46 624 l 136 726 b 233 651 142 675 185 651 l 239 651 b 336 751 296 651 336 692 b 243 839 336 806 296 839 l 239 839 b 150 800 197 839 167 817 l 60 800 l 122 1125 l 429 1125 l 429 1043 l 194 1043 l 161 881 b 269 921 189 906 229 921 b 435 754 367 921 435 849 b 235 569 435 640 346 569 "},"⁶":{"ha":522,"x_min":0,"x_max":0,"o":"m 260 569 b 51 835 132 569 51 668 b 290 1132 51 1018 151 1132 b 472 978 414 1132 472 1053 l 378 978 b 290 1049 369 1021 336 1049 l 282 1049 b 139 867 210 1049 149 979 b 285 944 161 911 219 944 b 464 763 381 944 464 875 b 260 569 464 658 390 569 m 264 651 b 369 757 325 651 369 696 b 267 863 369 817 326 863 l 263 863 b 157 757 206 863 157 819 b 260 651 157 696 201 651 "},"⁷":{"ha":428,"x_min":0,"x_max":0,"o":"m 117 576 l 117 626 b 313 1043 117 860 224 979 l 25 1043 l 25 1125 l 404 1125 l 404 1039 b 214 626 322 969 214 850 l 214 576 "},"⁸":{"ha":504,"x_min":0,"x_max":0,"o":"m 251 569 b 63 717 153 569 63 618 b 160 846 63 781 104 822 b 51 979 99 869 51 915 b 251 1132 51 1076 136 1132 b 453 979 367 1132 453 1076 b 349 846 453 915 408 871 b 442 717 403 822 442 778 b 251 569 442 618 350 569 m 256 894 b 357 972 307 894 357 921 b 256 1050 357 1024 310 1050 l 249 1050 b 147 972 194 1050 147 1024 b 249 894 147 921 197 894 m 256 651 b 346 729 304 651 346 679 b 256 808 346 776 304 808 l 249 808 b 158 729 200 808 158 776 b 249 651 158 679 200 651 "},"⁹":{"ha":522,"x_min":0,"x_max":0,"o":"m 232 569 b 49 724 108 569 49 649 l 144 724 b 232 653 153 681 186 653 l 240 653 b 382 835 311 653 374 722 b 236 757 360 790 303 757 b 57 939 140 757 57 826 b 263 1132 57 1043 132 1132 b 471 867 389 1132 471 1033 b 232 569 471 683 371 569 m 260 839 b 364 944 317 839 364 882 b 263 1050 364 1006 319 1050 l 258 1050 b 153 944 197 1050 153 1006 b 256 839 153 885 196 839 "},"⁄":{"ha":240,"x_min":0,"x_max":0,"o":"m -229 0 l 354 972 l 464 972 l -119 0 "},"⅟":{"ha":906,"x_min":0,"x_max":0,"o":"m 190 424 l 190 847 l 31 715 l 31 821 l 215 972 l 285 972 l 285 424 m 214 0 l 797 972 l 906 972 l 322 0 "},"½":{"ha":1218,"x_min":0,"x_max":0,"o":"m 206 424 l 206 847 l 44 715 l 44 821 l 231 972 l 300 972 l 300 424 m 218 0 l 801 972 l 910 972 l 326 0 m 776 0 l 776 107 l 957 264 b 1056 397 1013 313 1057 349 b 971 471 1054 443 1018 471 l 964 471 b 876 386 921 471 879 442 l 778 386 b 971 556 781 492 867 556 b 1153 396 1071 556 1153 497 b 1032 214 1153 314 1093 265 l 881 85 l 1158 85 l 1158 0 "},"⅓":{"ha":1215,"x_min":0,"x_max":0,"o":"m 206 424 l 206 847 l 44 715 l 44 821 l 229 972 l 299 972 l 299 424 m 215 0 l 799 972 l 907 972 l 324 0 m 956 -7 b 764 156 854 -7 764 51 l 861 156 b 951 75 863 107 901 75 l 958 75 b 1058 158 1013 75 1058 104 b 971 236 1058 208 1019 236 l 915 236 l 915 319 l 974 319 b 1054 394 1019 319 1054 347 b 963 474 1054 444 1015 474 l 956 474 b 869 399 906 474 871 443 l 772 399 b 963 556 772 503 860 556 b 1151 403 1063 556 1151 504 b 1068 278 1151 344 1118 299 b 1156 149 1113 257 1156 215 b 956 -7 1156 46 1058 -7 "},"⅔":{"ha":1289,"x_min":0,"x_max":0,"o":"m 67 424 l 67 531 l 247 688 b 346 821 304 736 347 772 b 261 894 346 867 308 894 l 254 894 b 167 810 213 894 169 865 l 69 810 b 261 979 72 915 157 979 b 444 819 363 979 444 921 b 324 638 444 738 383 689 l 172 508 l 450 508 l 450 424 m 315 0 l 899 972 l 1007 972 l 424 0 m 1031 -7 b 838 156 929 -7 838 51 l 936 156 b 1026 75 936 107 975 75 l 1033 75 b 1132 158 1088 75 1132 104 b 1046 236 1132 208 1094 236 l 989 236 l 989 319 l 1049 319 b 1128 394 1094 319 1128 347 b 1038 474 1128 444 1089 474 l 1031 474 b 944 399 981 474 944 443 l 846 399 b 1038 556 846 503 935 556 b 1226 403 1138 556 1226 504 b 1142 278 1226 344 1193 299 b 1231 149 1188 257 1231 215 b 1031 -7 1231 46 1132 -7 "},"¼":{"ha":1174,"x_min":0,"x_max":0,"o":"m 206 424 l 206 847 l 44 715 l 44 821 l 229 972 l 299 972 l 299 424 m 232 0 l 815 972 l 925 972 l 342 0 m 957 0 l 957 126 l 699 126 l 699 211 l 949 549 l 1050 549 l 1050 207 l 1126 207 l 1126 126 l 1050 126 l 1050 0 m 790 207 l 957 207 l 957 435 "},"¾":{"ha":1264,"x_min":0,"x_max":0,"o":"m 250 417 b 57 579 147 417 57 475 l 154 579 b 246 499 156 531 194 499 l 253 499 b 351 582 306 499 351 528 b 265 660 351 632 314 660 l 208 660 l 208 743 l 268 743 b 347 818 314 743 347 771 b 257 897 347 868 308 897 l 250 897 b 163 822 200 897 164 867 l 65 822 b 257 979 65 926 154 979 b 444 826 357 979 444 928 b 361 701 444 768 411 722 b 449 572 406 681 449 639 b 250 417 449 469 351 417 m 324 0 l 907 972 l 1017 972 l 433 0 m 1047 0 l 1047 126 l 789 126 l 789 211 l 1039 549 l 1140 549 l 1140 207 l 1217 207 l 1217 126 l 1140 126 l 1140 0 m 882 207 l 1047 207 l 1047 435 "},"⅕":{"ha":1208,"x_min":0,"x_max":0,"o":"m 206 424 l 206 847 l 44 715 l 44 821 l 229 972 l 299 972 l 299 424 m 214 0 l 797 972 l 906 972 l 322 0 m 940 -7 b 739 150 833 -7 751 47 l 840 150 b 939 75 847 99 889 75 l 944 75 b 1042 175 1000 75 1042 115 b 949 263 1042 229 1001 263 l 944 263 b 854 224 903 263 872 240 l 765 224 l 828 549 l 1133 549 l 1133 467 l 900 467 l 867 304 b 974 344 894 329 935 344 b 1139 178 1072 344 1139 272 b 940 -7 1139 64 1051 -7 "},"⅖":{"ha":1301,"x_min":0,"x_max":0,"o":"m 67 424 l 67 531 l 247 688 b 346 821 304 736 347 772 b 261 894 346 867 308 894 l 254 894 b 167 810 213 894 169 865 l 69 810 b 261 979 72 915 157 979 b 444 819 363 979 444 921 b 324 638 444 738 383 689 l 172 508 l 450 508 l 450 424 m 314 0 l 897 972 l 1006 972 l 422 0 m 1036 -7 b 835 150 929 -7 847 47 l 936 150 b 1035 75 943 99 985 75 l 1040 75 b 1138 175 1096 75 1138 115 b 1044 263 1138 229 1097 263 l 1040 263 b 950 224 999 263 968 240 l 861 224 l 924 549 l 1229 549 l 1229 467 l 996 467 l 963 304 b 1069 344 990 329 1031 344 b 1235 178 1168 344 1235 272 b 1036 -7 1235 64 1147 -7 "},"⅗":{"ha":1308,"x_min":0,"x_max":0,"o":"m 249 417 b 56 579 146 417 56 475 l 153 579 b 244 499 154 531 193 499 l 251 499 b 350 582 304 499 350 528 b 264 660 350 632 313 660 l 207 660 l 207 743 l 267 743 b 346 818 313 743 346 771 b 256 897 346 868 307 897 l 249 897 b 161 822 199 897 163 867 l 64 822 b 256 979 64 926 153 979 b 443 826 356 979 443 928 b 360 701 443 768 410 722 b 447 572 404 681 447 639 b 249 417 447 469 350 417 m 315 0 l 899 972 l 1008 972 l 425 0 m 1042 -7 b 842 150 936 -7 854 47 l 943 150 b 1040 75 949 99 992 75 l 1046 75 b 1144 175 1103 75 1144 115 b 1050 263 1144 229 1103 263 l 1046 263 b 957 224 1006 263 974 240 l 868 224 l 931 549 l 1236 549 l 1236 467 l 1003 467 l 969 304 b 1076 344 996 329 1036 344 b 1242 178 1174 344 1242 272 b 1042 -7 1242 64 1153 -7 "},"⅘":{"ha":1328,"x_min":0,"x_max":0,"o":"m 303 424 l 303 550 l 43 550 l 43 635 l 294 972 l 394 972 l 394 631 l 472 631 l 472 550 l 394 550 l 394 424 m 333 0 l 917 972 l 1026 972 l 443 0 m 136 631 l 303 631 l 303 858 m 1057 -7 b 857 150 951 -7 868 47 l 958 150 b 1056 75 964 99 1007 75 l 1061 75 b 1158 175 1118 75 1158 115 b 1065 263 1158 229 1118 263 l 1061 263 b 972 224 1019 263 989 240 l 882 224 l 944 549 l 1251 549 l 1251 467 l 1017 467 l 983 304 b 1092 344 1011 329 1051 344 b 1257 178 1189 344 1257 272 b 1057 -7 1257 64 1168 -7 "},"⅙":{"ha":1208,"x_min":0,"x_max":0,"o":"m 206 424 l 206 847 l 44 715 l 44 821 l 229 972 l 299 972 l 299 424 m 214 0 l 797 972 l 906 972 l 322 0 m 938 -7 b 729 258 811 -7 729 92 b 968 556 729 442 829 556 b 1151 401 1092 556 1151 476 l 1056 401 b 968 472 1047 444 1014 472 l 960 472 b 818 290 889 472 826 403 b 964 368 840 335 897 368 b 1143 186 1060 368 1143 299 b 938 -7 1143 82 1068 -7 m 942 75 b 1047 181 1003 75 1047 119 b 944 286 1047 240 1004 286 l 940 286 b 836 181 883 286 836 243 b 938 75 836 119 881 75 "},"⅚":{"ha":1318,"x_min":0,"x_max":0,"o":"m 246 417 b 46 574 140 417 57 471 l 147 574 b 244 499 153 522 196 499 l 250 499 b 347 599 307 499 347 539 b 254 686 347 653 307 686 l 250 686 b 161 647 208 686 178 664 l 71 647 l 133 972 l 440 972 l 440 890 l 206 890 l 172 728 b 281 768 200 753 240 768 b 446 601 378 768 446 696 b 246 417 446 488 357 417 m 313 0 l 896 972 l 1004 972 l 421 0 m 1047 -7 b 839 258 921 -7 839 92 b 1078 556 839 442 939 556 b 1261 401 1201 556 1261 476 l 1165 401 b 1078 472 1157 444 1124 472 l 1069 472 b 928 290 999 472 936 403 b 1074 368 950 335 1007 368 b 1253 186 1169 368 1253 299 b 1047 -7 1253 82 1178 -7 m 1051 75 b 1157 181 1113 75 1157 119 b 1054 286 1157 240 1114 286 l 1050 286 b 946 181 993 286 946 243 b 1047 75 946 119 990 75 "},"⅛":{"ha":1233,"x_min":0,"x_max":0,"o":"m 206 424 l 206 847 l 44 715 l 44 821 l 229 972 l 299 972 l 299 424 m 214 0 l 797 972 l 907 972 l 324 0 m 974 -7 b 785 140 875 -7 785 42 b 883 269 785 204 826 246 b 775 403 822 293 775 339 b 975 556 775 500 860 556 b 1176 403 1090 556 1176 500 b 1072 269 1176 339 1132 294 b 1164 140 1125 246 1164 201 b 974 -7 1164 42 1072 -7 m 978 318 b 1081 396 1031 318 1081 344 b 979 474 1081 447 1033 474 l 972 474 b 871 396 918 474 871 447 b 971 318 871 344 921 318 m 978 75 b 1068 153 1026 75 1068 103 b 978 232 1068 200 1026 232 l 971 232 b 881 153 922 232 881 200 b 971 75 881 103 922 75 "},"⅜":{"ha":1317,"x_min":0,"x_max":0,"o":"m 247 417 b 54 579 146 417 54 475 l 153 579 b 243 499 153 531 192 499 l 250 499 b 349 582 304 499 349 528 b 263 660 349 632 311 660 l 206 660 l 206 743 l 265 743 b 344 818 311 743 344 771 b 254 897 344 868 306 897 l 247 897 b 161 822 197 897 161 867 l 63 822 b 254 979 63 926 151 979 b 443 826 354 979 443 928 b 358 701 443 768 410 722 b 447 572 404 681 447 639 b 247 417 447 469 349 417 m 301 -10 l 885 963 l 993 963 l 410 -10 m 1060 -7 b 871 140 961 -7 871 42 b 968 269 871 204 913 246 b 861 403 908 293 861 339 b 1061 556 861 500 946 556 b 1263 403 1176 556 1263 500 b 1158 269 1263 339 1217 294 b 1250 140 1211 246 1250 201 b 1060 -7 1250 42 1158 -7 m 1064 318 b 1167 396 1115 318 1167 344 b 1065 474 1167 447 1119 474 l 1058 474 b 957 396 1004 474 957 447 b 1057 318 957 344 1006 318 m 1064 75 b 1154 153 1113 75 1154 103 b 1064 232 1154 200 1113 232 l 1057 232 b 967 153 1008 232 967 200 b 1057 75 967 103 1008 75 "},"⅝":{"ha":1324,"x_min":0,"x_max":0,"o":"m 246 417 b 46 574 140 417 57 471 l 147 574 b 244 499 153 522 196 499 l 250 499 b 347 599 307 499 347 539 b 254 686 347 653 307 686 l 250 686 b 161 647 208 686 178 664 l 71 647 l 133 972 l 440 972 l 440 890 l 206 890 l 172 728 b 281 768 200 753 240 768 b 446 601 378 768 446 696 b 246 417 446 488 357 417 m 308 0 l 892 972 l 1000 972 l 417 0 m 1064 -7 b 875 140 965 -7 875 42 b 972 269 875 204 917 246 b 865 403 913 293 865 339 b 1065 556 865 500 950 556 b 1267 403 1181 556 1267 500 b 1163 269 1267 339 1221 294 b 1254 140 1215 246 1254 201 b 1064 -7 1254 42 1163 -7 m 1068 318 b 1171 396 1119 318 1171 344 b 1069 474 1171 447 1124 474 l 1063 474 b 961 396 1008 474 961 447 b 1061 318 961 344 1010 318 m 1068 75 b 1158 153 1117 75 1158 103 b 1068 232 1158 200 1117 232 l 1061 232 b 971 153 1013 232 971 200 b 1061 75 971 103 1013 75 "},"⅞":{"ha":1189,"x_min":0,"x_max":0,"o":"m 136 424 l 136 474 b 332 890 136 707 243 826 l 44 890 l 44 972 l 424 972 l 424 886 b 233 474 342 817 233 697 l 233 424 m 174 0 l 757 972 l 867 972 l 283 0 m 929 -7 b 740 140 831 -7 740 42 b 839 269 740 204 782 246 b 731 403 778 293 731 339 b 931 556 731 500 815 556 b 1132 403 1046 556 1132 500 b 1028 269 1132 339 1088 294 b 1119 140 1081 246 1119 201 b 929 -7 1119 42 1028 -7 m 933 318 b 1036 396 986 318 1036 344 b 935 474 1036 447 989 474 l 928 474 b 826 396 874 474 826 447 b 926 318 826 344 876 318 m 933 75 b 1024 153 982 75 1024 103 b 933 232 1024 200 982 232 l 926 232 b 836 153 878 232 836 200 b 926 75 836 103 878 75 "},"Ⅰ":{"ha":656,"x_min":0,"x_max":0,"o":"m 65 0 l 65 100 l 269 100 l 269 872 l 65 872 l 65 972 l 590 972 l 590 872 l 388 872 l 388 100 l 590 100 l 590 0 "},"Ⅱ":{"ha":1051,"x_min":0,"x_max":0,"o":"m 65 0 l 65 100 l 269 100 l 269 872 l 65 872 l 65 972 l 986 972 l 986 872 l 783 872 l 783 100 l 986 100 l 986 0 m 388 100 l 665 100 l 665 872 l 388 872 "},"Ⅲ":{"ha":1447,"x_min":0,"x_max":0,"o":"m 65 0 l 65 100 l 269 100 l 269 872 l 65 872 l 65 972 l 1382 972 l 1382 872 l 1179 872 l 1179 100 l 1382 100 l 1382 0 m 388 100 l 665 100 l 665 872 l 388 872 m 783 100 l 1061 100 l 1061 872 l 783 872 "},"Ⅳ":{"ha":1478,"x_min":0,"x_max":0,"o":"m 67 0 l 67 100 l 271 100 l 271 872 l 67 872 l 67 972 l 842 972 l 842 872 l 694 872 l 932 135 l 1178 872 l 1025 872 l 1025 972 l 1432 972 l 1432 872 l 1296 872 l 1029 100 l 1251 100 l 1251 0 m 389 100 l 824 100 l 571 872 l 389 872 "},"Ⅴ":{"ha":1090,"x_min":0,"x_max":0,"o":"m 215 0 l 215 100 l 436 100 l 185 872 l 47 872 l 47 972 l 456 972 l 456 872 l 307 872 l 544 135 l 790 872 l 638 872 l 638 972 l 1046 972 l 1046 872 l 908 872 l 643 100 l 864 100 l 864 0 "},"Ⅵ":{"ha":1464,"x_min":0,"x_max":0,"o":"m 214 0 l 214 100 l 435 100 l 183 872 l 46 872 l 46 972 l 454 972 l 454 872 l 306 872 l 543 135 l 789 872 l 636 872 l 636 972 l 1397 972 l 1397 872 l 1194 872 l 1194 100 l 1397 100 l 1397 0 m 642 100 l 1076 100 l 1076 872 l 907 872 "},"Ⅶ":{"ha":1860,"x_min":0,"x_max":0,"o":"m 214 0 l 214 100 l 435 100 l 183 872 l 46 872 l 46 972 l 454 972 l 454 872 l 306 872 l 543 135 l 789 872 l 636 872 l 636 972 l 1794 972 l 1794 872 l 1590 872 l 1590 100 l 1794 100 l 1794 0 m 642 100 l 1076 100 l 1076 872 l 907 872 m 1194 100 l 1472 100 l 1472 872 l 1194 872 "},"Ⅷ":{"ha":2256,"x_min":0,"x_max":0,"o":"m 214 0 l 214 100 l 435 100 l 183 872 l 46 872 l 46 972 l 454 972 l 454 872 l 306 872 l 543 135 l 789 872 l 636 872 l 636 972 l 2190 972 l 2190 872 l 1986 872 l 1986 100 l 2190 100 l 2190 0 m 642 100 l 1076 100 l 1076 872 l 907 872 m 1194 100 l 1472 100 l 1472 872 l 1194 872 m 1590 100 l 1868 100 l 1868 872 l 1590 872 "},"Ⅸ":{"ha":1407,"x_min":0,"x_max":0,"o":"m 65 0 l 65 100 l 269 100 l 269 872 l 65 872 l 65 972 l 1333 972 l 1333 872 l 1200 872 l 940 493 l 1208 100 l 1347 100 l 1347 0 m 388 100 l 539 100 l 806 490 l 546 872 l 388 872 m 875 590 l 1068 872 l 683 872 m 671 100 l 1071 100 l 871 393 "},"Ⅹ":{"ha":1068,"x_min":0,"x_max":0,"o":"m 60 0 l 60 100 l 200 100 l 467 490 l 207 872 l 74 872 l 74 972 l 994 972 l 994 872 l 861 872 l 601 493 l 869 100 l 1008 100 l 1008 0 m 536 590 l 729 872 l 344 872 m 332 100 l 732 100 l 532 393 "},"Ⅼ":{"ha":960,"x_min":0,"x_max":0,"o":"m 64 0 l 64 100 l 254 100 l 254 872 l 64 872 l 64 972 l 563 972 l 563 872 l 372 872 l 372 100 l 785 100 l 785 357 l 903 357 l 903 0 "},"Ⅽ":{"ha":1017,"x_min":0,"x_max":0,"o":"m 518 -14 b 74 486 250 -14 74 206 b 518 986 74 767 250 986 b 800 856 674 986 772 904 l 800 972 l 918 972 l 918 669 l 800 669 b 529 886 771 793 674 886 l 515 886 b 192 486 317 886 192 714 b 515 86 192 258 317 86 l 529 86 b 800 303 669 86 772 176 l 918 303 l 918 0 l 796 0 l 796 114 b 518 -14 767 67 672 -14 "},"Ⅾ":{"ha":1082,"x_min":0,"x_max":0,"o":"m 64 0 l 64 100 l 254 100 l 254 872 l 64 872 l 64 972 l 558 972 b 1007 486 828 972 1007 790 b 560 0 1007 179 826 0 m 372 100 l 539 100 b 889 486 757 100 889 235 b 543 872 889 733 761 872 l 372 872 "},"Ⅿ":{"ha":1471,"x_min":0,"x_max":0,"o":"m 64 0 l 64 100 l 254 100 l 254 872 l 64 872 l 64 972 l 453 972 l 740 119 l 1018 972 l 1406 972 l 1406 872 l 1217 872 l 1217 100 l 1406 100 l 1406 0 l 996 0 l 996 100 l 1099 100 l 1099 861 l 811 0 l 664 0 l 372 865 l 372 100 l 474 100 l 474 0 "},".":{"ha":344,"x_min":0,"x_max":0,"o":"m 93 0 l 93 157 l 251 157 l 251 0 "},",":{"ha":349,"x_min":0,"x_max":0,"o":"m 47 -183 l 47 -104 l 93 -104 b 176 -21 149 -104 176 -76 l 176 0 l 96 0 l 96 157 l 253 157 l 253 -28 b 97 -183 253 -129 196 -183 "},":":{"ha":346,"x_min":0,"x_max":0,"o":"m 94 538 l 94 694 l 251 694 l 251 538 m 94 0 l 94 157 l 251 157 l 251 0 "},";":{"ha":386,"x_min":0,"x_max":0,"o":"m 121 538 l 121 694 l 278 694 l 278 538 m 72 -183 l 72 -104 l 118 -104 b 201 -21 174 -104 201 -76 l 201 0 l 121 0 l 121 157 l 278 157 l 278 -28 b 124 -183 278 -129 221 -183 "},"…":{"ha":1053,"x_min":0,"x_max":0,"o":"m 93 0 l 93 157 l 251 157 l 251 0 m 447 0 l 447 157 l 606 157 l 606 0 m 801 0 l 801 157 l 960 157 l 960 0 "},"!":{"ha":353,"x_min":0,"x_max":0,"o":"m 146 271 l 114 667 l 114 972 l 238 972 l 238 667 l 207 271 m 110 0 l 110 142 l 242 142 l 242 0 "},"¡":{"ha":333,"x_min":0,"x_max":0,"o":"m 233 694 l 233 553 l 101 553 l 101 694 m 196 424 l 229 28 l 229 -278 l 104 -278 l 104 28 l 136 424 "},"?":{"ha":649,"x_min":0,"x_max":0,"o":"m 186 281 l 186 447 b 315 572 186 540 222 572 l 335 572 b 478 717 425 572 478 633 b 321 858 478 800 422 858 l 49 858 l 49 972 l 342 972 b 600 717 494 972 600 869 b 351 464 600 561 482 464 b 304 415 317 464 304 450 l 304 281 m 179 0 l 179 142 l 311 142 l 311 0 "},"¿":{"ha":636,"x_min":0,"x_max":0,"o":"m 464 694 l 464 553 l 332 553 l 332 694 m 457 414 l 457 247 b 328 122 457 154 419 122 l 308 122 b 165 -22 218 122 165 61 b 322 -164 165 -106 219 -164 l 593 -164 l 593 -278 l 301 -278 b 43 -22 149 -278 43 -175 b 290 231 43 133 161 231 b 339 279 326 231 339 244 l 339 414 "},"·":{"ha":329,"x_min":0,"x_max":0,"o":"m 94 403 l 94 544 l 236 544 l 236 403 "},"•":{"ha":700,"x_min":0,"x_max":0,"o":"m 350 236 b 100 486 215 236 100 351 b 350 736 100 621 215 736 b 600 486 490 736 600 621 b 350 236 600 351 490 236 "},"*":{"ha":597,"x_min":0,"x_max":0,"o":"m 217 590 l 149 631 l 231 772 l 67 772 l 67 850 l 231 850 l 149 992 l 217 1032 l 300 890 l 381 1032 l 449 992 l 368 850 l 531 850 l 531 772 l 368 772 l 449 631 l 381 590 l 299 732 "},"#":{"ha":953,"x_min":0,"x_max":0,"o":"m 896 618 l 726 618 l 672 354 l 838 354 l 838 250 l 650 250 l 599 0 l 485 0 l 536 250 l 317 250 l 263 0 l 150 0 l 204 250 l 57 250 l 57 354 l 226 354 l 282 618 l 117 618 l 117 722 l 304 722 l 358 972 l 471 972 l 417 722 l 635 722 l 686 972 l 800 972 l 749 722 l 896 722 m 558 354 l 613 618 l 394 618 l 339 354 "},"/":{"ha":588,"x_min":0,"x_max":0,"o":"m 43 0 l 418 972 l 543 972 l 168 0 "},"\\":{"ha":588,"x_min":0,"x_max":0,"o":"m 419 0 l 44 972 l 169 972 l 544 0 "},"(":{"ha":493,"x_min":0,"x_max":0,"o":"m 458 -201 b 71 486 172 -179 71 142 b 458 1174 71 831 175 1144 l 458 1068 b 192 486 250 1028 192 765 b 458 -96 192 207 250 -56 "},")":{"ha":493,"x_min":0,"x_max":0,"o":"m 36 1174 b 424 486 321 1151 424 831 b 36 -201 424 142 318 -172 l 36 -96 b 303 486 244 -56 303 207 b 36 1068 303 765 244 1028 "},"{":{"ha":474,"x_min":0,"x_max":0,"o":"m 331 -201 b 163 14 210 -201 163 -132 l 163 299 b 93 392 163 369 149 392 l 58 392 l 58 581 l 93 581 b 163 674 149 581 163 603 l 163 958 b 331 1174 163 1104 210 1174 l 431 1174 l 431 1069 l 364 1069 b 281 963 294 1069 281 1042 l 281 618 b 169 500 281 528 232 500 l 169 472 b 281 354 232 472 281 444 l 281 10 b 364 -97 281 -69 294 -97 l 431 -97 l 431 -201 "},"}":{"ha":474,"x_min":0,"x_max":0,"o":"m 142 1175 b 311 960 264 1175 311 1106 l 311 675 b 381 582 311 604 325 582 l 415 582 l 415 393 l 381 393 b 311 300 325 393 311 371 l 311 15 b 142 -200 311 -131 264 -200 l 43 -200 l 43 -96 l 110 -96 b 193 11 179 -96 193 -68 l 193 356 b 304 474 193 446 242 474 l 304 501 b 193 619 242 501 193 529 l 193 964 b 110 1071 193 1043 179 1071 l 43 1071 l 43 1175 "},"[":{"ha":460,"x_min":0,"x_max":0,"o":"m 124 -201 l 124 1174 l 419 1174 l 419 1069 l 242 1069 l 242 -97 l 419 -97 l 419 -201 "},"]":{"ha":460,"x_min":0,"x_max":0,"o":"m 338 1174 l 338 -201 l 40 -201 l 40 -97 l 219 -97 l 219 1069 l 40 1069 l 40 1174 "},"":{"ha":510,"x_min":0,"x_max":0,"o":"m 325 -201 b 144 -32 224 -201 144 -131 b 194 90 144 14 157 50 b 82 249 103 110 82 174 l 82 724 b 194 882 82 799 103 863 b 144 1004 157 922 144 958 b 325 1174 144 1103 224 1174 l 464 1174 l 464 1069 l 339 1069 b 263 996 294 1069 263 1039 l 263 985 b 339 913 263 942 294 913 l 374 913 l 374 808 l 297 808 b 200 704 233 808 200 772 l 200 268 b 297 164 200 200 233 164 l 374 164 l 374 60 l 339 60 b 263 -12 294 60 263 31 l 263 -24 b 339 -97 263 -67 294 -97 l 464 -97 l 464 -201 "},"":{"ha":518,"x_min":0,"x_max":0,"o":"m 190 1174 b 371 1004 292 1174 371 1103 b 321 882 371 958 358 922 b 433 724 413 863 433 799 l 433 249 b 321 90 433 174 413 110 b 371 -32 358 50 371 14 b 190 -201 371 -131 292 -201 l 51 -201 l 51 -97 l 176 -97 b 253 -24 221 -97 253 -67 l 253 -12 b 176 60 253 31 221 60 l 142 60 l 142 164 l 218 164 b 315 268 282 164 315 200 l 315 704 b 218 808 315 772 282 808 l 142 808 l 142 913 l 176 913 b 253 985 221 913 253 942 l 253 996 b 176 1069 253 1039 221 1069 l 51 1069 l 51 1174 "},"〈":{"ha":526,"x_min":0,"x_max":0,"o":"m 354 -118 l 38 486 l 354 1090 l 481 1090 l 167 489 l 481 -118 "},"〉":{"ha":526,"x_min":0,"x_max":0,"o":"m 172 1090 l 489 486 l 172 -118 l 46 -118 l 360 483 l 46 1090 "},"【":{"ha":517,"x_min":0,"x_max":0,"o":"m 124 -201 l 124 1174 l 508 1174 b 242 488 324 976 242 726 b 508 -201 242 253 321 1 "},"】":{"ha":515,"x_min":0,"x_max":0,"o":"m 392 1175 l 392 -200 l 7 -200 b 274 486 192 -3 274 247 b 7 1175 274 721 194 972 "},"「":{"ha":433,"x_min":0,"x_max":0,"o":"m 99 539 l 99 1174 l 404 1174 l 404 1069 l 214 1069 l 214 539 "},"」":{"ha":432,"x_min":0,"x_max":0,"o":"m 335 433 l 335 -201 l 29 -201 l 29 -97 l 219 -97 l 219 433 "},"《":{"ha":799,"x_min":0,"x_max":0,"o":"m 354 -118 l 38 486 l 354 1090 l 481 1090 l 167 489 l 481 -118 m 626 -118 l 310 486 l 626 1090 l 753 1090 l 439 489 l 753 -118 "},"》":{"ha":799,"x_min":0,"x_max":0,"o":"m 172 1090 l 489 486 l 172 -118 l 46 -118 l 360 483 l 46 1090 m 444 1090 l 761 486 l 444 -118 l 318 -118 l 632 483 l 318 1090 "},"〔":{"ha":442,"x_min":0,"x_max":0,"o":"m 292 -201 l 92 24 l 92 949 l 292 1174 l 433 1174 l 210 921 l 210 53 l 435 -201 "},"〕":{"ha":442,"x_min":0,"x_max":0,"o":"m 150 1175 l 350 950 l 350 25 l 150 -200 l 8 -200 l 232 53 l 232 921 l 7 1175 "},"『":{"ha":622,"x_min":0,"x_max":0,"o":"m 101 447 l 101 1174 l 572 1174 l 572 929 l 382 929 l 382 447 m 199 532 l 286 532 l 286 1014 l 476 1014 l 476 1090 l 199 1090 "},"』":{"ha":625,"x_min":0,"x_max":0,"o":"m 519 525 l 519 -201 l 49 -201 l 49 43 l 239 43 l 239 525 m 422 440 l 335 440 l 335 -42 l 144 -42 l 144 -118 l 422 -118 "},"-":{"ha":551,"x_min":0,"x_max":0,"o":"m 93 368 l 93 472 l 458 472 l 458 368 "},"­":{"ha":551,"x_min":0,"x_max":0,"o":"m 93 368 l 93 472 l 458 472 l 458 368 "},"–":{"ha":801,"x_min":0,"x_max":0,"o":"m 93 368 l 93 472 l 708 472 l 708 368 "},"—":{"ha":1246,"x_min":0,"x_max":0,"o":"m 93 368 l 93 472 l 1153 472 l 1153 368 "},"―":{"ha":1246,"x_min":0,"x_max":0,"o":"m 93 368 l 93 472 l 1153 472 l 1153 368 "},"_":{"ha":699,"x_min":0,"x_max":0,"o":"m 42 -104 l 42 0 l 657 0 l 657 -104 "},"‚":{"ha":349,"x_min":0,"x_max":0,"o":"m 47 -183 l 47 -104 l 93 -104 b 176 -21 149 -104 176 -76 l 176 0 l 96 0 l 96 157 l 253 157 l 253 -28 b 97 -183 253 -129 196 -183 "},"„":{"ha":633,"x_min":0,"x_max":0,"o":"m 47 -183 l 47 -104 l 93 -104 b 176 -21 149 -104 176 -76 l 176 0 l 96 0 l 96 157 l 253 157 l 253 -28 b 97 -183 253 -129 196 -183 m 332 -183 l 332 -104 l 378 -104 b 461 -21 433 -104 461 -76 l 461 0 l 381 0 l 381 157 l 538 157 l 538 -28 b 382 -183 538 -129 481 -183 "},"“":{"ha":647,"x_min":0,"x_max":0,"o":"m 296 972 l 296 893 l 249 893 b 165 810 193 893 165 865 l 165 789 l 247 789 l 247 632 l 89 632 l 89 817 b 244 972 89 919 147 972 m 581 972 l 581 893 l 533 893 b 450 810 478 893 450 865 l 450 789 l 532 789 l 532 632 l 374 632 l 374 817 b 529 972 374 919 432 972 "},"”":{"ha":646,"x_min":0,"x_max":0,"o":"m 76 632 l 76 711 l 124 711 b 207 794 179 711 207 739 l 207 815 l 125 815 l 125 972 l 283 972 l 283 788 b 128 632 283 685 225 632 m 361 632 l 361 711 l 408 711 b 492 794 464 711 492 739 l 492 815 l 410 815 l 410 972 l 568 972 l 568 788 b 413 632 568 685 510 632 "},"‘":{"ha":363,"x_min":0,"x_max":0,"o":"m 296 972 l 296 893 l 249 893 b 165 810 193 893 165 865 l 165 789 l 247 789 l 247 632 l 89 632 l 89 817 b 244 972 89 919 147 972 "},"’":{"ha":361,"x_min":0,"x_max":0,"o":"m 76 632 l 76 711 l 124 711 b 207 794 179 711 207 739 l 207 815 l 125 815 l 125 972 l 283 972 l 283 788 b 128 632 283 685 225 632 "},"«":{"ha":729,"x_min":0,"x_max":0,"o":"m 390 694 l 190 396 l 392 97 l 254 97 l 53 396 l 254 694 m 469 397 l 672 97 l 535 97 l 333 396 l 535 694 l 671 694 "},"»":{"ha":728,"x_min":0,"x_max":0,"o":"m 193 694 l 394 396 l 193 97 l 57 97 l 258 394 l 57 694 m 474 694 l 675 396 l 474 97 l 338 97 l 539 394 l 336 694 "},"‹":{"ha":449,"x_min":0,"x_max":0,"o":"m 190 396 l 392 97 l 254 97 l 53 396 l 254 694 l 390 694 "},"›":{"ha":449,"x_min":0,"x_max":0,"o":"m 194 694 l 396 396 l 194 97 l 57 97 l 258 396 l 58 694 "},"\"":{"ha":492,"x_min":0,"x_max":0,"o":"m 113 676 l 81 861 l 81 972 l 199 972 l 199 861 l 160 676 m 328 676 l 296 861 l 296 972 l 414 972 l 414 861 l 375 676 "},"'":{"ha":276,"x_min":0,"x_max":0,"o":"m 113 676 l 81 861 l 81 972 l 199 972 l 199 861 l 160 676 "}," ":{"ha":104,"x_min":0,"x_max":0,"o":""}," ":{"ha":174,"x_min":0,"x_max":0,"o":""}," ":{"ha":342,"x_min":0,"x_max":0,"o":""}," ":{"ha":694,"x_min":0,"x_max":0,"o":""}," ":{"ha":1389,"x_min":0,"x_max":0,"o":""},"¢":{"ha":743,"x_min":0,"x_max":0,"o":"m 675 226 b 394 -14 657 79 550 -14 l 376 -14 l 350 -167 l 246 -167 l 275 6 b 65 347 139 54 65 186 b 393 708 65 551 183 708 l 419 861 l 524 861 l 496 693 b 674 468 596 663 663 582 l 551 468 b 476 581 543 517 517 558 l 394 94 l 401 94 b 553 226 482 94 539 151 m 188 347 b 294 118 188 249 221 158 l 375 600 b 188 347 247 594 188 478 "},"¤":{"ha":996,"x_min":0,"x_max":0,"o":"m 851 424 b 793 218 851 347 829 276 l 921 93 l 844 18 l 719 136 b 494 56 658 85 581 56 b 274 133 410 56 333 85 l 151 18 l 76 93 l 200 214 b 139 424 161 272 139 344 b 197 626 139 500 160 569 l 76 747 l 151 822 l 271 708 b 494 785 332 757 410 785 b 722 706 582 785 661 756 l 844 822 l 921 747 l 796 622 b 851 424 831 567 851 499 m 501 164 b 729 424 629 164 729 272 b 501 676 729 575 629 676 l 488 676 b 261 424 361 676 261 575 b 494 164 261 272 368 164 "},"$":{"ha":854,"x_min":0,"x_max":0,"o":"m 507 539 b 774 263 686 500 774 411 b 431 -14 774 92 642 -14 l 407 -14 l 381 -167 l 274 -167 l 301 0 b 50 310 146 36 54 146 l 172 310 b 321 110 172 208 231 139 l 375 439 l 336 447 b 99 699 196 478 99 560 b 438 986 99 865 235 986 b 467 985 447 986 457 986 l 493 1139 l 600 1139 l 571 968 b 789 683 703 928 783 826 l 667 683 b 553 856 663 764 618 825 l 500 540 m 396 563 l 449 878 l 444 878 l 431 878 b 221 710 306 878 221 808 b 363 569 221 633 271 589 m 443 94 b 651 257 572 94 651 161 b 492 415 651 342 599 393 l 479 418 l 425 94 l 429 94 "},"€":{"ha":947,"x_min":0,"x_max":0,"o":"m 558 94 b 751 289 671 94 739 165 l 874 289 b 553 -14 857 99 739 -14 b 208 257 385 -14 263 85 l 64 225 l 64 331 l 186 357 b 176 474 181 394 176 433 l 64 449 l 64 554 l 181 581 b 553 986 208 833 344 986 b 874 683 739 986 857 874 l 751 683 b 558 878 739 807 671 878 l 544 878 b 308 608 419 878 335 778 l 581 669 l 581 564 l 299 501 l 299 486 b 304 383 299 450 301 415 l 522 432 l 522 326 l 326 283 b 544 94 365 164 440 94 "},"ƒ":{"ha":592,"x_min":0,"x_max":0,"o":"m 506 864 b 364 715 406 864 381 819 l 350 628 l 525 628 l 525 521 l 335 521 l 253 -14 b -8 -278 224 -201 157 -278 l -74 -278 l -74 -169 l -15 -169 b 131 -21 88 -169 115 -125 l 214 521 l 65 521 l 65 628 l 231 628 l 243 713 b 499 972 271 900 336 972 l 564 972 l 564 864 "},"₴":{"ha":901,"x_min":0,"x_max":0,"o":"m 851 682 l 851 579 l 49 510 l 49 614 l 632 664 b 643 724 639 683 643 704 b 467 878 643 822 571 878 l 458 878 b 267 728 326 878 274 792 l 142 728 b 465 986 150 822 228 986 b 761 728 653 986 761 876 b 756 674 761 708 760 690 m 76 315 l 76 419 l 819 486 l 819 383 l 268 333 b 251 258 257 310 251 285 b 444 94 251 164 328 94 l 463 94 b 663 258 583 94 646 158 l 786 258 b 449 -14 771 100 658 -14 b 133 246 231 -14 133 118 b 144 321 133 272 138 297 "},"₽":{"ha":893,"x_min":0,"x_max":0,"o":"m 203 0 l 203 232 l 58 232 l 58 338 l 203 338 l 203 431 l 57 431 l 57 543 l 203 543 l 203 972 l 547 972 b 856 701 722 972 856 889 b 546 431 856 514 722 431 l 328 431 l 328 338 l 619 338 l 619 232 l 328 232 l 328 0 m 328 543 l 526 543 b 731 701 651 543 731 583 b 526 858 731 818 651 858 l 328 858 "},"£":{"ha":790,"x_min":0,"x_max":0,"o":"m 744 108 l 744 0 l 65 0 l 65 108 l 103 108 b 206 215 169 108 201 147 l 218 392 l 65 356 l 65 467 l 228 504 l 240 681 b 531 972 254 868 340 972 l 675 972 l 675 864 l 526 864 b 363 674 411 864 371 790 l 351 533 l 536 576 l 536 465 l 343 421 l 328 228 b 258 108 322 167 303 135 "},"¥":{"ha":894,"x_min":0,"x_max":0,"o":"m 856 972 l 601 554 l 749 588 l 749 482 l 528 432 l 510 403 l 510 310 l 707 354 l 707 249 l 510 204 l 510 0 l 386 0 l 386 178 l 189 133 l 189 239 l 386 283 l 386 400 l 147 346 l 147 451 l 332 493 l 40 972 l 182 972 l 451 524 l 718 972 "},"₩":{"ha":1296,"x_min":0,"x_max":0,"o":"m 1261 972 l 1151 524 l 1260 524 l 1260 428 l 1128 428 l 1024 0 l 849 0 l 746 428 l 551 428 l 447 0 l 272 0 l 168 428 l 36 428 l 36 524 l 144 524 l 35 972 l 164 972 l 271 524 l 460 524 l 568 972 l 738 972 l 844 524 l 1031 524 l 1132 972 m 574 524 l 722 524 l 649 832 m 364 128 l 438 428 l 293 428 m 939 125 l 1008 428 l 867 428 "},"₿":{"ha":918,"x_min":0,"x_max":0,"o":"m 842 265 b 617 6 842 124 743 28 l 617 -167 l 510 -167 l 510 0 l 385 0 l 385 -167 l 279 -167 l 279 0 l 128 0 l 128 972 l 279 972 l 279 1139 l 385 1139 l 385 972 l 510 972 l 510 1139 l 617 1139 l 617 965 b 821 717 735 940 821 851 b 663 493 821 606 751 524 b 842 265 761 476 842 399 m 253 858 l 253 550 l 529 550 b 696 704 628 550 696 607 b 529 858 696 801 628 858 m 533 114 b 717 275 642 114 717 171 b 533 436 717 379 642 436 l 253 436 l 253 114 "},"∙":{"ha":629,"x_min":0,"x_max":0,"o":"m 314 236 b 64 486 179 236 64 351 b 314 736 64 621 179 736 b 564 486 454 736 564 621 b 314 236 564 351 454 236 "},"∕":{"ha":519,"x_min":0,"x_max":0,"o":"m 8 0 l 383 972 l 508 972 l 133 0 "},"+":{"ha":806,"x_min":0,"x_max":0,"o":"m 343 21 l 343 304 l 60 304 l 60 411 l 343 411 l 343 694 l 464 694 l 464 411 l 746 411 l 746 304 l 464 304 l 464 21 "},"−":{"ha":885,"x_min":0,"x_max":0,"o":"m 100 303 l 100 413 l 786 413 l 786 303 "},"×":{"ha":747,"x_min":0,"x_max":0,"o":"m 157 61 l 78 140 l 294 358 l 78 575 l 157 654 l 374 438 l 592 654 l 671 575 l 453 358 l 671 140 l 592 61 l 374 279 "},"÷":{"ha":864,"x_min":0,"x_max":0,"o":"m 367 518 l 367 664 l 499 664 l 499 518 m 89 303 l 89 413 l 775 413 l 775 303 m 367 51 l 367 197 l 499 197 l 499 51 "},"=":{"ha":886,"x_min":0,"x_max":0,"o":"m 100 428 l 100 538 l 786 538 l 786 428 m 100 178 l 100 286 l 786 286 l 786 178 "},"≠":{"ha":886,"x_min":0,"x_max":0,"o":"m 786 428 l 525 428 l 481 286 l 786 286 l 786 178 l 447 178 l 399 21 l 281 21 l 329 178 l 100 178 l 100 286 l 363 286 l 407 428 l 100 428 l 100 538 l 440 538 l 489 694 l 607 694 l 558 538 l 786 538 "},">":{"ha":746,"x_min":0,"x_max":0,"o":"m 96 650 l 686 406 l 686 306 l 96 61 l 96 185 l 518 353 l 96 518 "},"<":{"ha":744,"x_min":0,"x_max":0,"o":"m 650 651 l 650 528 l 226 360 l 650 194 l 650 63 l 60 307 l 60 407 "},"≥":{"ha":871,"x_min":0,"x_max":0,"o":"m 96 708 l 782 508 l 782 381 l 96 181 l 96 297 l 621 442 l 96 585 m 96 25 l 96 135 l 782 135 l 782 25 "},"≤":{"ha":871,"x_min":0,"x_max":0,"o":"m 775 708 l 775 592 l 250 447 l 775 304 l 775 181 l 89 381 l 89 508 m 89 25 l 89 135 l 775 135 l 775 25 "},"±":{"ha":876,"x_min":0,"x_max":0,"o":"m 378 218 l 378 399 l 96 399 l 96 507 l 378 507 l 378 694 l 499 694 l 499 507 l 782 507 l 782 399 l 499 399 l 499 218 m 96 0 l 96 108 l 782 108 l 782 0 "},"≈":{"ha":850,"x_min":0,"x_max":0,"o":"m 585 386 b 279 475 494 386 335 475 b 206 400 225 475 206 436 l 99 400 l 99 435 b 265 594 99 525 161 594 b 572 506 357 594 517 506 b 644 574 626 506 644 538 l 751 574 l 751 539 b 585 386 751 449 696 386 m 585 122 b 279 211 494 122 335 211 b 206 136 225 211 206 172 l 99 136 l 99 171 b 265 331 99 261 161 331 b 572 242 357 331 517 242 b 644 310 626 242 644 274 l 751 310 l 751 275 b 585 122 751 185 696 122 "},"¬":{"ha":840,"x_min":0,"x_max":0,"o":"m 614 176 l 614 372 l 99 372 l 99 482 l 736 482 l 736 176 "},"~":{"ha":686,"x_min":0,"x_max":0,"o":"m 464 481 b 349 524 421 481 382 504 l 307 547 b 242 572 285 563 265 572 b 192 492 213 572 192 549 l 104 492 l 104 521 b 236 665 104 607 158 665 b 351 622 279 665 318 643 l 389 600 b 456 574 414 585 435 574 b 506 654 485 574 506 597 l 593 654 l 593 625 b 464 481 593 540 542 481 "},"^":{"ha":731,"x_min":0,"x_max":0,"o":"m 676 396 l 557 396 l 363 872 l 168 396 l 54 396 l 299 972 l 432 972 "},"∞":{"ha":1190,"x_min":0,"x_max":0,"o":"m 328 236 b 75 500 185 236 75 340 b 328 764 75 656 185 764 b 597 586 461 764 528 685 b 863 764 664 685 729 764 b 1115 500 1006 764 1115 656 b 863 236 1115 340 1006 236 b 597 407 729 236 664 308 b 328 236 528 308 461 236 m 335 340 b 525 500 419 340 471 410 b 335 660 471 590 419 660 l 328 660 b 190 500 246 660 190 597 b 328 340 190 399 246 340 m 858 340 b 1000 500 944 340 1000 399 b 858 660 1000 601 944 660 l 851 660 b 665 500 771 660 719 590 b 851 340 724 406 771 340 "},"∫":{"ha":564,"x_min":0,"x_max":0,"o":"m 22 -139 l 22 -31 l 79 -31 b 219 118 183 -31 219 14 l 219 708 b 475 972 219 896 314 972 l 540 972 l 540 864 l 482 864 b 343 715 379 864 343 819 l 343 125 b 86 -139 343 -62 249 -139 "},"Ω":{"ha":1079,"x_min":0,"x_max":0,"o":"m 93 0 l 93 108 l 247 108 b 86 486 143 182 86 308 b 539 986 86 799 276 986 b 993 486 801 986 993 799 b 831 108 993 308 936 182 l 986 108 l 986 0 l 642 0 l 642 107 b 871 486 785 143 871 278 b 546 878 871 732 746 878 l 532 878 b 208 486 332 878 208 732 b 438 107 208 278 294 143 l 438 0 "},"∆":{"ha":965,"x_min":0,"x_max":0,"o":"m 46 0 l 46 107 l 407 972 l 557 972 l 918 107 l 918 0 m 167 108 l 797 108 l 483 863 "},"∏":{"ha":963,"x_min":0,"x_max":0,"o":"m 185 0 l 185 864 l 44 864 l 44 972 l 917 972 l 917 864 l 776 864 l 776 0 l 657 0 l 657 864 l 304 864 l 304 0 "},"∑":{"ha":749,"x_min":0,"x_max":0,"o":"m 68 0 l 68 114 l 343 486 l 68 864 l 68 972 l 678 972 l 678 864 l 214 864 l 490 486 l 214 108 l 678 108 l 678 0 "},"√":{"ha":932,"x_min":0,"x_max":0,"o":"m 269 0 l 36 694 l 160 694 l 343 139 l 521 972 l 901 972 l 901 865 l 610 865 l 417 0 "},"∂":{"ha":799,"x_min":0,"x_max":0,"o":"m 389 -14 b 65 335 186 -14 65 125 b 369 674 65 533 192 674 b 583 581 461 674 535 640 l 581 608 b 293 878 551 799 418 878 b 156 857 244 878 185 867 l 156 965 b 304 986 182 975 242 986 b 717 419 585 986 717 739 b 389 -14 717 118 581 -14 m 393 94 b 597 333 503 94 597 169 b 393 572 597 493 510 572 l 379 572 b 185 335 268 572 185 493 b 386 94 185 174 275 94 "},"µ":{"ha":822,"x_min":0,"x_max":0,"o":"m 583 694 l 701 694 l 701 0 l 583 0 l 583 132 b 358 -14 554 50 476 -14 b 239 13 313 -14 272 -4 l 239 -278 l 121 -278 l 121 694 l 239 694 l 239 264 b 388 86 239 146 288 86 l 400 86 b 583 319 493 86 583 174 "},"%":{"ha":1283,"x_min":0,"x_max":0,"o":"m 279 417 b 47 699 135 417 47 529 b 279 979 47 867 135 979 b 511 699 424 979 511 867 b 279 417 511 529 424 417 m 297 0 l 881 972 l 989 972 l 406 0 m 282 499 b 413 699 371 499 413 600 b 282 897 413 796 371 897 l 276 897 b 146 699 188 897 146 796 b 276 499 146 600 188 499 m 1004 -7 b 774 275 861 -7 774 106 b 1004 556 774 443 861 556 b 1236 275 1149 556 1236 443 b 1004 -7 1236 106 1149 -7 m 1007 75 b 1139 275 1096 75 1139 176 b 1007 474 1139 372 1096 474 l 1001 474 b 871 275 913 474 871 372 b 1001 75 871 176 913 75 "},"‰":{"ha":1649,"x_min":0,"x_max":0,"o":"m 511 699 b 279 417 511 529 424 417 b 47 699 135 417 47 529 b 279 979 47 867 135 979 b 511 699 424 979 511 867 m 881 972 l 989 972 l 406 0 l 297 0 m 282 499 b 413 699 371 499 413 600 b 282 897 413 796 371 897 l 276 897 b 146 699 188 897 146 796 b 276 499 146 600 188 499 m 1371 556 b 1603 275 1515 556 1603 443 b 1371 -7 1603 106 1515 -7 b 1188 89 1290 -7 1228 28 b 1004 -7 1147 28 1085 -7 b 774 275 861 -7 774 106 b 1004 556 774 443 861 556 b 1188 460 1085 556 1147 521 b 1371 556 1228 521 1290 556 m 1007 75 b 1139 275 1096 75 1139 176 b 1007 474 1139 372 1096 474 l 1001 474 b 871 275 913 474 871 372 b 1001 75 871 176 913 75 m 1374 75 b 1504 275 1463 75 1504 176 b 1374 474 1504 372 1463 474 l 1368 474 b 1238 275 1279 474 1238 372 b 1368 75 1238 176 1279 75 "},"↑":{"ha":1075,"x_min":0,"x_max":0,"o":"m 481 0 l 481 813 l 186 517 l 107 596 l 536 1028 l 968 596 l 889 517 l 594 811 l 594 0 "},"↗":{"ha":932,"x_min":0,"x_max":0,"o":"m 69 286 l 644 860 l 228 860 l 228 971 l 836 972 l 836 363 l 725 363 l 725 778 l 151 206 "},"→":{"ha":1093,"x_min":0,"x_max":0,"o":"m 39 543 l 851 543 l 557 838 l 635 917 l 1067 488 l 635 56 l 557 135 l 850 429 l 39 429 "},"↘":{"ha":932,"x_min":0,"x_max":0,"o":"m 151 767 l 725 193 l 725 608 l 836 610 l 838 0 l 226 0 l 228 113 l 643 113 l 69 686 "},"↓":{"ha":1075,"x_min":0,"x_max":0,"o":"m 594 972 l 594 160 l 889 456 l 968 376 l 539 -56 l 107 376 l 186 456 l 481 161 l 481 972 "},"↙":{"ha":932,"x_min":0,"x_max":0,"o":"m 861 686 l 288 111 l 703 113 l 704 0 l 94 -1 l 94 610 l 207 610 l 207 193 l 781 767 "},"←":{"ha":1093,"x_min":0,"x_max":0,"o":"m 1053 429 l 242 429 l 536 136 l 457 56 l 25 486 l 457 918 l 536 839 l 242 544 l 1053 544 "},"↖":{"ha":932,"x_min":0,"x_max":0,"o":"m 779 206 l 206 779 l 206 363 l 94 363 l 93 972 l 703 972 l 703 860 l 288 860 l 860 286 "},"↤":{"ha":1174,"x_min":0,"x_max":0,"o":"m 951 833 l 1065 833 l 1065 139 l 951 139 l 951 429 l 254 429 l 547 135 l 469 56 l 38 488 l 469 917 l 547 838 l 253 543 l 951 543 "},"↥":{"ha":1135,"x_min":0,"x_max":0,"o":"m 918 517 l 624 813 l 624 114 l 914 114 l 914 0 l 219 0 l 219 114 l 510 114 l 510 811 l 215 517 l 136 596 l 568 1028 l 997 596 "},"↦":{"ha":1178,"x_min":0,"x_max":0,"o":"m 710 917 l 1142 485 l 710 56 l 631 135 l 925 429 l 226 429 l 226 139 l 114 139 l 114 833 l 226 833 l 226 543 l 925 543 l 631 838 "},"↧":{"ha":1135,"x_min":0,"x_max":0,"o":"m 919 456 l 999 376 l 567 -56 l 136 376 l 217 456 l 510 160 l 510 858 l 221 858 l 221 972 l 915 972 l 915 858 l 625 858 l 625 161 "},"↰":{"ha":1164,"x_min":0,"x_max":0,"o":"m 1051 543 l 1051 0 l 936 0 l 936 429 l 240 429 l 533 135 l 456 56 l 24 488 l 456 917 l 533 838 l 239 543 "},"↱":{"ha":1164,"x_min":0,"x_max":0,"o":"m 710 917 l 1142 488 l 710 56 l 631 135 l 925 429 l 228 429 l 228 0 l 114 0 l 114 543 l 925 543 l 631 838 "},"↲":{"ha":1174,"x_min":0,"x_max":0,"o":"m 936 972 l 1051 972 l 1051 429 l 239 429 l 533 135 l 456 56 l 24 485 l 456 917 l 533 838 l 240 543 l 936 543 "},"↳":{"ha":1174,"x_min":0,"x_max":0,"o":"m 718 917 l 1150 485 l 718 56 l 640 135 l 935 429 l 122 429 l 122 972 l 238 972 l 238 543 l 933 543 l 640 838 "},"◊":{"ha":872,"x_min":0,"x_max":0,"o":"m 378 0 l 49 486 l 378 972 l 503 972 l 824 486 l 503 0 m 440 115 l 692 486 l 440 864 l 188 486 "},"▲":{"ha":1167,"x_min":0,"x_max":0,"o":"m 21 0 l 583 1000 l 1146 0 "},"":{"ha":1136,"x_min":0,"x_max":0,"o":"m 1122 981 b 1247 951 1175 981 1228 968 b 1242 913 1246 940 1246 917 b 1200 903 1233 906 1218 903 b 1153 908 1181 903 1161 906 b 1046 764 1156 839 1125 757 b 807 629 1011 653 892 629 b 769 631 793 629 781 629 b 831 361 769 628 814 494 b 943 242 854 335 893 288 b 1026 133 985 204 1017 158 b 1029 118 1029 128 1029 122 b 1003 93 1029 103 1018 96 b 826 265 935 133 894 199 b 825 244 825 258 825 251 b 861 24 825 160 856 83 b 821 7 847 13 832 7 b 803 19 811 7 804 11 b 749 304 761 89 756 275 b 439 243 718 306 572 275 b 586 -44 436 129 551 72 b 558 -60 583 -49 574 -60 b 535 -51 551 -60 543 -57 b 440 64 504 -35 469 24 b 382 165 410 104 399 154 b 294 -32 349 67 311 -33 l 283 -32 b 253 -7 268 -32 253 -28 b 339 240 253 44 290 156 b 69 300 286 250 142 244 b 56 319 69 300 63 308 b 122 369 79 347 96 353 b 268 506 163 424 226 447 b 138 597 243 526 151 553 b 150 624 139 599 143 607 b 276 576 158 631 222 604 b 290 675 281 610 279 660 b 342 693 294 686 342 693 b 357 672 349 689 357 679 b 343 546 360 647 339 589 b 532 633 415 546 479 608 b 706 681 561 642 646 663 b 678 788 688 713 678 751 b 701 865 678 818 685 847 b 886 746 826 867 886 813 b 878 700 886 731 883 715 b 968 753 913 703 963 729 b 888 825 932 786 903 782 b 865 879 872 842 865 861 b 925 956 865 911 888 942 b 964 963 939 961 953 963 b 1058 847 1021 963 1058 914 b 1057 821 1058 839 1058 829 b 1090 936 1083 833 1090 883 b 1089 979 1090 950 1089 965 b 1122 981 1100 981 1111 981 m 993 817 b 997 840 996 824 997 832 b 946 907 997 868 981 897 b 938 879 940 897 938 888 b 993 817 938 847 968 819 m 813 707 b 832 754 813 707 832 714 b 753 793 813 774 783 793 b 747 760 750 783 747 771 b 764 706 747 738 753 717 b 778 701 767 703 772 701 b 813 707 790 701 804 706 m 728 375 b 754 374 736 375 744 374 b 728 481 747 418 736 443 b 696 604 715 543 724 571 b 382 475 568 576 500 506 b 419 311 401 406 417 319 b 728 375 525 317 608 375 m 322 313 b 346 314 331 313 339 313 b 306 440 329 356 325 397 b 192 328 261 399 219 374 b 322 313 243 319 286 313 "},"@":{"ha":1289,"x_min":0,"x_max":0,"o":"m 665 -174 b 71 431 331 -174 71 28 b 653 1014 71 799 357 1014 b 1214 488 976 1014 1214 786 b 936 132 1214 253 1074 132 l 800 132 l 800 228 b 618 118 775 171 710 118 b 363 417 479 118 363 229 b 618 708 363 604 479 708 b 796 601 710 708 767 658 l 796 694 l 901 694 l 901 226 l 929 226 b 1096 488 1000 226 1096 292 b 653 910 1096 739 925 910 b 189 431 400 910 189 724 b 672 -69 189 117 385 -69 l 1013 -69 l 1013 -174 m 636 213 b 796 417 728 213 796 303 b 642 614 796 533 729 614 l 633 614 b 481 417 543 614 481 539 b 628 213 481 297 536 213 "},"&":{"ha":903,"x_min":0,"x_max":0,"o":"m 351 0 b 76 257 200 0 76 101 b 244 492 76 378 146 456 b 83 719 147 528 83 603 b 356 972 83 874 210 972 l 539 972 l 539 864 l 368 864 b 206 706 281 864 206 808 b 371 549 206 606 275 549 l 588 549 l 588 718 l 710 718 l 710 549 l 865 549 l 865 439 l 710 439 l 710 0 m 588 108 l 588 439 l 376 439 b 199 276 269 439 199 374 b 378 108 199 171 269 108 "},"¶":{"ha":879,"x_min":0,"x_max":0,"o":"m 338 -278 l 338 425 l 319 425 b 42 699 164 425 42 549 b 315 972 42 849 163 972 l 810 972 l 810 868 l 722 868 l 722 -278 l 608 -278 l 608 868 l 451 868 l 451 -278 "},"§":{"ha":725,"x_min":0,"x_max":0,"o":"m 115 -83 l 115 25 l 399 25 b 501 107 471 25 501 57 b 390 204 501 150 467 176 l 197 276 b 60 447 103 313 60 379 b 188 633 60 519 106 586 b 108 785 133 675 108 722 b 338 972 108 907 194 972 l 585 972 l 585 864 l 339 864 b 225 785 269 864 225 839 b 333 688 225 738 258 713 l 460 646 b 668 442 585 606 668 557 b 539 254 668 365 624 303 b 619 107 593 214 619 174 b 386 -83 619 10 556 -83 m 443 306 b 550 428 535 344 550 390 b 401 546 550 494 476 522 l 281 585 b 176 458 208 556 176 501 b 321 351 176 396 246 379 "},"©":{"ha":1222,"x_min":0,"x_max":0,"o":"m 611 -56 b 69 486 314 -56 69 189 b 611 1028 69 785 314 1028 b 1153 486 910 1028 1153 785 b 611 -56 1153 189 910 -56 m 611 35 b 1060 486 858 35 1060 238 b 611 938 1060 735 858 938 b 163 486 364 938 163 735 b 611 35 163 238 364 35 m 615 219 b 368 492 472 219 368 311 b 615 767 368 667 468 767 b 835 583 746 767 826 700 l 736 583 b 619 679 726 640 682 679 l 610 679 b 468 492 519 679 468 597 b 610 307 468 386 519 307 l 619 307 b 738 403 682 307 729 342 l 838 403 b 615 219 826 286 744 219 "},"®":{"ha":1222,"x_min":0,"x_max":0,"o":"m 611 -56 b 69 486 314 -56 69 189 b 611 1028 69 785 314 1028 b 1153 486 910 1028 1153 785 b 611 -56 1153 189 910 -56 m 611 35 b 1060 486 858 35 1060 238 b 611 938 1060 735 858 938 b 163 486 364 938 163 735 b 611 35 163 238 364 35 m 426 233 l 426 756 l 660 756 b 831 611 768 756 831 694 b 721 479 831 536 782 492 b 824 389 790 479 824 457 l 824 233 l 725 233 l 725 368 b 656 431 725 410 704 431 l 525 431 l 525 233 m 525 513 l 626 513 b 732 593 692 513 732 539 b 625 667 732 649 696 667 l 525 667 "},"℗":{"ha":1222,"x_min":0,"x_max":0,"o":"m 611 -56 b 69 486 314 -56 69 189 b 611 1028 69 785 314 1028 b 1153 486 910 1028 1153 785 b 611 -56 1153 189 910 -56 m 611 35 b 1060 486 858 35 1060 238 b 611 938 1060 735 858 938 b 163 486 364 938 163 735 b 611 35 163 238 364 35 m 447 233 l 447 756 l 665 756 b 849 590 774 756 849 704 b 664 425 849 475 774 425 l 544 425 l 544 233 m 544 514 l 653 514 b 751 590 715 514 751 533 b 653 667 751 647 715 667 l 544 667 "},"™":{"ha":1324,"x_min":0,"x_max":0,"o":"m 49 875 l 49 972 l 519 972 l 519 875 l 338 875 l 338 444 l 231 444 l 231 875 m 1054 972 l 1214 972 l 1214 444 l 1107 444 l 1107 843 l 979 444 l 874 444 l 739 847 l 739 444 l 632 444 l 632 972 l 793 972 l 926 564 "},"℅":{"ha":990,"x_min":0,"x_max":0,"o":"m 231 618 b 43 821 118 618 43 699 b 239 1028 43 954 126 1028 b 407 890 325 1028 400 978 l 313 890 b 240 950 308 928 278 950 l 236 950 b 138 821 168 950 138 889 b 232 696 138 754 165 696 l 236 696 b 310 754 272 696 301 718 l 404 754 b 231 618 396 664 318 618 m 144 0 l 728 972 l 836 972 l 253 0 m 756 -14 b 565 190 640 -14 565 65 b 756 396 565 315 640 396 b 946 190 872 396 946 315 b 756 -14 946 65 872 -14 m 761 64 b 850 190 818 64 850 117 b 760 318 850 264 817 318 l 753 318 b 661 190 696 318 661 263 b 753 64 661 118 696 64 "},"°":{"ha":638,"x_min":0,"x_max":0,"o":"m 318 472 b 61 729 172 472 61 583 b 318 986 61 875 172 986 b 575 729 465 986 575 875 b 318 472 575 583 465 472 m 318 576 b 464 729 399 576 464 644 b 318 882 464 814 399 882 b 172 729 238 882 172 814 b 318 576 172 644 238 576 "},"|":{"ha":367,"x_min":0,"x_max":0,"o":"m 122 -118 l 122 1090 l 244 1090 l 244 -118 "},"¦":{"ha":375,"x_min":0,"x_max":0,"o":"m 126 593 l 126 1090 l 249 1090 l 249 593 m 126 -118 l 126 393 l 249 393 l 249 -118 "},"†":{"ha":688,"x_min":0,"x_max":0,"o":"m 285 -118 l 285 646 l 42 646 l 42 750 l 285 750 l 285 1090 l 403 1090 l 403 750 l 646 750 l 646 646 l 403 646 l 403 -118 "},"ℓ":{"ha":596,"x_min":0,"x_max":0,"o":"m 283 169 b 347 106 283 122 300 106 l 474 106 l 474 0 l 306 0 b 164 146 211 0 164 49 l 164 279 l 60 217 l 60 339 l 164 400 l 164 751 b 363 986 164 904 238 986 b 563 742 507 986 563 865 b 347 388 563 589 482 464 l 283 350 m 283 471 l 290 475 b 443 733 400 538 443 639 b 363 881 443 833 411 881 b 283 765 318 881 283 843 "},"‡":{"ha":739,"x_min":0,"x_max":0,"o":"m 672 646 l 429 646 l 429 326 l 672 326 l 672 222 l 429 222 l 429 -118 l 311 -118 l 311 222 l 68 222 l 68 326 l 311 326 l 311 646 l 68 646 l 68 750 l 311 750 l 311 1090 l 429 1090 l 429 750 l 672 750 "},"№":{"ha":1468,"x_min":0,"x_max":0,"o":"m 1207 569 b 1017 774 1092 569 1017 649 b 1207 979 1017 899 1092 979 b 1397 774 1324 979 1397 899 b 1207 569 1397 649 1324 569 m 131 0 l 131 972 l 301 972 l 781 161 l 781 972 l 906 972 l 906 0 l 738 0 l 256 815 l 256 0 m 1213 647 b 1301 774 1269 647 1301 700 b 1211 901 1301 847 1268 901 l 1204 901 b 1113 774 1147 901 1113 846 b 1204 647 1113 701 1147 647 m 1017 408 l 1017 486 l 1396 486 l 1396 408 "},"":{"ha":750,"x_min":0,"x_max":0,"o":"m 97 208 l 97 764 l 653 764 l 653 208 m 201 313 l 549 313 l 549 660 l 201 660 "},"":{"ha":958,"x_min":0,"x_max":0,"o":"m 97 104 l 97 868 l 861 868 l 861 104 m 201 208 l 757 208 l 757 764 l 201 764 "},"":{"ha":1222,"x_min":0,"x_max":0,"o":"m 125 0 l 125 972 l 1097 972 l 1097 0 m 229 104 l 993 104 l 993 868 l 229 868 "},"":{"ha":750,"x_min":0,"x_max":0,"o":"m 97 208 l 97 764 l 653 764 l 653 208 m 201 313 l 549 313 l 549 660 l 201 660 m 306 417 l 306 556 l 444 556 l 444 417 "},"":{"ha":958,"x_min":0,"x_max":0,"o":"m 97 104 l 97 868 l 861 868 l 861 104 m 201 208 l 757 208 l 757 764 l 201 764 m 306 313 l 306 660 l 653 660 l 653 313 m 410 417 l 549 417 l 549 556 l 410 556 "},"":{"ha":1222,"x_min":0,"x_max":0,"o":"m 125 0 l 125 972 l 1097 972 l 1097 0 m 229 104 l 993 104 l 993 868 l 229 868 m 333 208 l 333 764 l 889 764 l 889 208 m 438 313 l 785 313 l 785 660 l 438 660 m 542 417 l 542 556 l 681 556 l 681 417 "},"":{"ha":750,"x_min":0,"x_max":0,"o":"m 97 208 l 97 764 l 653 764 l 653 208 "},"":{"ha":958,"x_min":0,"x_max":0,"o":"m 97 104 l 97 868 l 861 868 l 861 104 "},"":{"ha":1222,"x_min":0,"x_max":0,"o":"m 125 0 l 125 972 l 1097 972 l 1097 0 "},"":{"ha":806,"x_min":0,"x_max":0,"o":"m 403 153 b 69 486 219 153 69 303 b 403 819 69 669 219 819 b 736 486 586 819 736 669 b 403 153 736 303 586 153 m 403 257 b 632 486 529 257 632 360 b 403 715 632 613 529 715 b 174 486 276 715 174 613 b 403 257 174 360 276 257 "},"":{"ha":1014,"x_min":0,"x_max":0,"o":"m 507 49 b 69 486 267 49 69 246 b 507 924 69 726 267 924 b 944 486 747 924 944 726 b 507 49 944 246 747 49 m 507 153 b 840 486 690 153 840 303 b 507 819 840 669 690 819 b 174 486 324 819 174 669 b 507 153 174 303 324 153 "},"":{"ha":1222,"x_min":0,"x_max":0,"o":"m 611 -56 b 69 486 314 -56 69 189 b 611 1028 69 785 314 1028 b 1153 486 910 1028 1153 785 b 611 -56 1153 189 910 -56 m 611 49 b 1049 486 851 49 1049 246 b 611 924 1049 726 851 924 b 174 486 371 924 174 726 b 611 49 174 246 371 49 "},"":{"ha":806,"x_min":0,"x_max":0,"o":"m 403 153 b 69 486 219 153 69 303 b 403 819 69 669 219 819 b 736 486 586 819 736 669 b 403 153 736 303 586 153 m 403 257 b 632 486 529 257 632 360 b 403 715 632 613 529 715 b 174 486 276 715 174 613 b 403 257 174 360 276 257 m 403 361 b 278 486 335 361 278 418 b 403 611 278 556 335 611 b 528 486 472 611 528 556 b 403 361 528 418 472 361 "},"":{"ha":1014,"x_min":0,"x_max":0,"o":"m 507 49 b 69 486 267 49 69 246 b 507 924 69 726 267 924 b 944 486 747 924 944 726 b 507 49 944 246 747 49 m 507 153 b 840 486 690 153 840 303 b 507 819 840 669 690 819 b 174 486 324 819 174 669 b 507 153 174 303 324 153 m 507 257 b 278 486 381 257 278 360 b 507 715 278 613 381 715 b 736 486 633 715 736 613 b 507 257 736 360 633 257 m 507 361 b 632 486 576 361 632 418 b 507 611 632 556 576 611 b 382 486 439 611 382 556 b 507 361 382 418 439 361 "},"":{"ha":1222,"x_min":0,"x_max":0,"o":"m 611 -56 b 69 486 314 -56 69 189 b 611 1028 69 785 314 1028 b 1153 486 910 1028 1153 785 b 611 -56 1153 189 910 -56 m 611 49 b 1049 486 851 49 1049 246 b 611 924 1049 726 851 924 b 174 486 371 924 174 726 b 611 49 174 246 371 49 m 611 153 b 278 486 428 153 278 303 b 611 819 278 669 428 819 b 944 486 794 819 944 669 b 611 153 944 303 794 153 m 611 257 b 840 486 738 257 840 360 b 611 715 840 613 738 715 b 382 486 485 715 382 613 b 611 257 382 360 485 257 m 611 361 b 486 486 543 361 486 418 b 611 611 486 556 543 611 b 736 486 681 611 736 556 b 611 361 736 418 681 361 "},"":{"ha":889,"x_min":0,"x_max":0,"o":"m 444 153 b 111 486 261 153 111 303 b 444 819 111 669 261 819 b 778 486 628 819 778 669 b 444 153 778 303 628 153 "},"":{"ha":972,"x_min":0,"x_max":0,"o":"m 486 69 b 69 486 257 69 69 257 b 486 903 69 715 257 903 b 903 486 715 903 903 715 b 486 69 903 257 715 69 "},"":{"ha":1167,"x_min":0,"x_max":0,"o":"m 583 -14 b 83 486 308 -14 83 211 b 583 986 83 761 308 986 b 1083 486 858 986 1083 761 b 583 -14 1083 211 858 -14 "},"´":{"ha":290,"x_min":0,"x_max":0,"o":"m 42 788 l 119 972 l 249 972 l 125 788 "},"˘":{"ha":490,"x_min":0,"x_max":0,"o":"m 246 774 b 42 972 135 774 46 839 l 129 972 b 246 857 136 890 185 857 b 361 972 306 857 354 890 l 449 972 b 246 774 444 839 351 774 "},"ˇ":{"ha":546,"x_min":0,"x_max":0,"o":"m 413 972 l 504 972 l 335 788 l 211 788 l 42 972 l 135 972 l 274 868 "},"¸":{"ha":322,"x_min":0,"x_max":0,"o":"m 42 -322 l 42 -236 l 128 -236 b 197 -182 174 -236 197 -215 b 132 -126 197 -146 171 -126 l 90 -126 l 90 21 l 163 21 l 163 -62 b 281 -183 231 -65 281 -112 b 128 -322 281 -267 217 -322 "},"ˆ":{"ha":546,"x_min":0,"x_max":0,"o":"m 504 788 l 413 788 l 274 892 l 135 788 l 42 788 l 211 972 l 335 972 "},"¨":{"ha":468,"x_min":0,"x_max":0,"o":"m 42 819 l 42 954 l 169 954 l 169 819 m 299 819 l 299 954 l 426 954 l 426 819 "},"˙":{"ha":215,"x_min":0,"x_max":0,"o":"m 42 819 l 42 961 l 174 961 l 174 819 "},"`":{"ha":290,"x_min":0,"x_max":0,"o":"m 165 788 l 42 972 l 171 972 l 249 788 "},"˝":{"ha":511,"x_min":0,"x_max":0,"o":"m 42 788 l 119 972 l 249 972 l 125 788 m 263 788 l 340 972 l 469 972 l 346 788 "},"¯":{"ha":475,"x_min":0,"x_max":0,"o":"m 42 819 l 42 914 l 433 914 l 433 819 "},"˛":{"ha":286,"x_min":0,"x_max":0,"o":"m 235 -281 l 183 -281 b 35 -162 89 -281 35 -232 b 181 15 35 -67 126 -8 l 244 0 b 124 -137 183 -36 124 -81 b 208 -194 124 -182 164 -194 l 235 -194 "},"˚":{"ha":338,"x_min":0,"x_max":0,"o":"m 168 775 b 42 901 101 775 42 829 b 168 1028 42 974 101 1028 b 296 901 235 1028 296 974 b 168 775 296 829 235 775 m 169 840 b 229 901 203 840 229 868 b 169 963 229 935 203 963 b 108 901 136 963 108 935 b 169 840 108 868 136 840 "},"˜":{"ha":568,"x_min":0,"x_max":0,"o":"m 399 774 b 281 821 358 774 322 793 l 242 846 b 181 868 222 860 204 868 b 129 788 149 868 129 843 l 42 788 l 42 822 b 172 963 42 901 94 963 b 283 922 210 963 249 946 l 318 899 b 389 868 343 883 365 868 b 439 949 421 868 439 894 l 526 949 l 526 914 b 399 774 526 835 474 774 "}}}
